<mxfile host="Electron" agent="Mozilla/5.0 (Macintosh; Intel Mac OS X 10_15_7) AppleWebKit/537.36 (KHTML, like Gecko) draw.io/24.7.17 Chrome/128.0.6613.36 Electron/32.0.1 Safari/537.36" version="24.7.17">
  <diagram name="Page-1" id="oo-ZgDfyL9Ay4hEghHGP">
    <mxGraphModel dx="1012" dy="705" grid="0" gridSize="10" guides="1" tooltips="1" connect="1" arrows="1" fold="1" page="1" pageScale="1" pageWidth="850" pageHeight="1100" math="1" shadow="0">
      <root>
        <mxCell id="0" />
        <mxCell id="1" parent="0" />
        <mxCell id="ELQDbCGjd16Vh4-IR_vf-1" value="" style="shape=image;verticalLabelPosition=bottom;labelBackgroundColor=default;verticalAlign=top;aspect=fixed;imageAspect=0;image=data:image/png,iVBORw0KGgoAAAANSUhEUgAABDwAAAQ8CAYAAAB+ao7jAAAMQGlDQ1BJQ0MgUHJvZmlsZQAASImVVwdYU8kWnltSIbQAAlJCb4KIlABSQmgBpBdBVEISIJQYA0HFjiwquBZULGBDV0UUOyAWFLGzKPa+WFBQ1sWCXXmTArruK9+b75s7//3nzH/OnDtz7x0A1E9wxeIcVAOAXFG+JCbYnzEuKZlB6gYEgAEycAEWXF6emBUVFQ5gGWz/Xt7dAIisveog0/pn/38tmnxBHg8AJAriNH4eLxfigwDgVTyxJB8Aoow3n5ovlmFYgbYEBgjxQhnOUOAqGU5T4L1ym7gYNsStAJBVuVxJBgBqlyHPKOBlQA21PoidRHyhCAB1BsQ+ubmT+RCnQmwDbcQQy/SZaT/oZPxNM21Ik8vNGMKKucgLOUCYJ87hTv8/0/G/S26OdNCHFayqmZKQGNmcYd5uZU8Ok2FViHtFaRGREGtB/EHIl9tDjFIzpSHxCnvUkJfHhjkDuhA78bkBYRAbQhwkyokIV/Jp6cIgDsRwhaDThPmcOIj1IF4oyAuMVdpskkyOUfpC69MlbJaSP8eVyP3KfD2QZsezlPqvMwUcpT6mVpgZlwgxFWKLAmFCBMRqEDvmZceGKW3GFGayIwZtJNIYWfwWEMcIRMH+Cn2sIF0SFKO0L83NG5wvtilTyIlQ4v35mXEhivxgrTyuPH44F+yyQMSKH9QR5I0LH5wLXxAQqJg71i0QxccqdT6I8/1jFGNxqjgnSmmPmwlygmW8GcQueQWxyrF4Qj5ckAp9PF2cHxWniBMvzOKGRiniwZeBcMAGAYABpLCmgckgCwjbext64Z2iJwhwgQRkAAFwUDKDIxLlPSJ4jQWF4E+IBCBvaJy/vFcACiD/dYhVXB1Aury3QD4iGzyFOBeEgRx4L5WPEg15SwBPICP8h3curDwYbw6ssv5/zw+y3xkWZMKVjHTQI0N90JIYSAwghhCDiLa4Ae6De+Hh8OoHqzPOxD0G5/HdnvCU0EF4RLhO6CTcniQskvwU5VjQCfWDlLlI+zEXuBXUdMX9cW+oDpVxXdwAOOAu0A8L94WeXSHLVsYtywrjJ+2/zeCHp6G0ozhRUMowih/F5ueRanZqrkMqslz/mB9FrGlD+WYP9fzsn/1D9vmwDfvZEluIHcDOYiex89hRrAEwsGasEWvDjsnw0Op6Il9dg95i5PFkQx3hP/wNPllZJvOcap16nL4o+vIF02TvaMCeLJ4uEWZk5jNY8IsgYHBEPMcRDGcnZxcAZN8XxevrTbT8u4Hotn3n5v8BgHfzwMDAke9caDMA+9zh9j/8nbNhwk+HCgDnDvOkkgIFh8suBPiWUIc7TR8YA3NgA+fjDNyAF/ADgSAURII4kAQmwugz4TqXgKlgJpgHSkAZWAZWgXVgI9gCdoDdYD9oAEfBSXAGXASXwXVwF66eLvAC9IF34DOCICSEhtARfcQEsUTsEWeEifgggUg4EoMkIalIBiJCpMhMZD5ShpQj65DNSA2yDzmMnETOIx3IbeQh0oO8Rj6hGKqKaqNGqBU6EmWiLDQMjUMnoBnoFLQQLUaXoGvQanQXWo+eRC+i19FO9AXajwFMBdPFTDEHjImxsUgsGUvHJNhsrBSrwKqxOqwJPuerWCfWi33EiTgdZ+AOcAWH4PE4D5+Cz8YX4+vwHXg93opfxR/iffg3Ao1gSLAneBI4hHGEDMJUQgmhgrCNcIhwGu6lLsI7IpGoS7QmusO9mETMIs4gLiauJ+4hniB2EB8T+0kkkj7JnuRNiiRxSfmkEtJa0i5SM+kKqYv0gaxCNiE7k4PIyWQRuYhcQd5JPk6+Qn5G/kzRoFhSPCmRFD5lOmUpZSuliXKJ0kX5TNWkWlO9qXHULOo86hpqHfU09R71jYqKipmKh0q0ilBlrsoalb0q51QeqnxU1VK1U2WrpqhKVZeoblc9oXpb9Q2NRrOi+dGSafm0JbQa2inaA9oHNbqaoxpHja82R61SrV7titpLdYq6pTpLfaJ6oXqF+gH1S+q9GhQNKw22BldjtkalxmGNmxr9mnTNUZqRmrmaizV3ap7X7NYiaVlpBWrxtYq1tmid0npMx+jmdDadR59P30o/Te/SJmpba3O0s7TLtHdrt2v36WjpuOgk6EzTqdQ5ptOpi+la6XJ0c3SX6u7XvaH7aZjRMNYwwbBFw+qGXRn2Xm+4np+eQK9Ub4/edb1P+gz9QP1s/eX6Dfr3DXADO4Nog6kGGwxOG/QO1x7uNZw3vHT4/uF3DFFDO8MYwxmGWwzbDPuNjI2CjcRGa41OGfUa6xr7GWcZrzQ+btxjQjfxMRGarDRpNnnO0GGwGDmMNYxWRp+poWmIqdR0s2m76Wcza7N4syKzPWb3zanmTPN085XmLeZ9FiYWYy1mWtRa3LGkWDItMy1XW561fG9lbZVotcCqwarbWs+aY11oXWt9z4Zm42szxaba5pot0ZZpm2273vayHWrnapdpV2l3yR61d7MX2q+37xhBGOExQjSiesRNB1UHlkOBQ63DQ0ddx3DHIscGx5cjLUYmj1w+8uzIb06uTjlOW53ujtIaFTqqaFTTqNfOds4850rna6Npo4NGzxndOPqVi72LwGWDyy1XuutY1wWuLa5f3dzdJG51bj3uFu6p7lXuN5nazCjmYuY5D4KHv8ccj6MeHz3dPPM993v+5eXgle2106t7jPUYwZitYx57m3lzvTd7d/owfFJ9Nvl0+pr6cn2rfR/5mfvx/bb5PWPZsrJYu1gv/Z38Jf6H/N+zPdmz2CcCsIDggNKA9kCtwPjAdYEPgsyCMoJqg/qCXYNnBJ8IIYSEhSwPuckx4vA4NZy+UPfQWaGtYaphsWHrwh6F24VLwpvGomNDx64Yey/CMkIU0RAJIjmRKyLvR1lHTYk6Ek2MjoqujH4aMypmZszZWHrspNidse/i/OOWxt2Nt4mXxrckqCekJNQkvE8MSCxP7Bw3ctyscReTDJKESY3JpOSE5G3J/eMDx68a35XimlKScmOC9YRpE85PNJiYM/HYJPVJ3EkHUgmpiak7U79wI7nV3P40TlpVWh+PzVvNe8H346/k9wi8BeWCZ+ne6eXp3RneGSsyejJ9Mysye4Vs4Trhq6yQrI1Z77Mjs7dnD+Qk5uzJJeem5h4WaYmyRa2TjSdPm9whtheXiDuneE5ZNaVPEibZlofkTchrzNeGP/JtUhvpL9KHBT4FlQUfpiZMPTBNc5poWtt0u+mLpj8rDCr8bQY+gzejZabpzHkzH85izdo8G5mdNrtljvmc4jldc4Pn7phHnZc97/cip6LyorfzE+c3FRsVzy1+/EvwL7UlaiWSkpsLvBZsXIgvFC5sXzR60dpF30r5pRfKnMoqyr4s5i2+8OuoX9f8OrAkfUn7UrelG5YRl4mW3Vjuu3xHuWZ5YfnjFWNX1K9krCxd+XbVpFXnK1wqNq6mrpau7lwTvqZxrcXaZWu/rMtcd73Sv3JPlWHVoqr36/nrr2zw21C30Whj2cZPm4Sbbm0O3lxfbVVdsYW4pWDL060JW8/+xvytZpvBtrJtX7eLtnfuiNnRWuNeU7PTcOfSWrRWWtuzK2XX5d0BuxvrHOo279HdU7YX7JXufb4vdd+N/WH7Ww4wD9QdtDxYdYh+qLQeqZ9e39eQ2dDZmNTYcTj0cEuTV9OhI45Hth81PVp5TOfY0uPU48XHB5oLm/tPiE/0nsw4+bhlUsvdU+NOXWuNbm0/HXb63JmgM6fOss42n/M+d/S85/nDF5gXGi66Xaxvc2079Lvr74fa3drrL7lfarzscbmpY0zH8Su+V05eDbh65hrn2sXrEdc7bsTfuHUz5WbnLf6t7ts5t1/dKbjz+e7ce4R7pfc17lc8MHxQ/YftH3s63TqPPQx42PYo9tHdx7zHL57kPfnSVfyU9rTimcmzmm7n7qM9QT2Xn49/3vVC/OJzb8mfmn9WvbR5efAvv7/a+sb1db2SvBp4vfiN/pvtb13etvRH9T94l/vu8/vSD/ofdnxkfjz7KfHTs89Tv5C+rPlq+7XpW9i3ewO5AwNiroQr/xXAYEXT0wF4vR0AWhIAdHg+o45XnP/kBVGcWeUI/CesOCPKixsAdfD/PboX/t3cBGDvVnj8gvrqKQBE0QCI8wDo6NFDdfCsJj9XygoRngM2RXxNy00D/6Yozpw/xP1zC2SqLuDn9l/k5nxy0EL+aAAAADhlWElmTU0AKgAAAAgAAYdpAAQAAAABAAAAGgAAAAAAAqACAAQAAAABAAAEPKADAAQAAAABAAAEPAAAAAA4Ll52AABAAElEQVR4AezdWZAV157v9z+IoeaRmguKWSBmITFoQqAJpDN1293n+rrDwmFHR/jN4X7pCD/4xU8d0X5ydIQ7wr4QDofv7dvd7tN9JAoJAUIDIECoAFEgxprneQYEXv/clZtdpYLaOewp85sRefaU0/pkHuD8zlr/teCJWSRmGRwclKGhoeg3dXV10fe88Vfgb//2b0XX2GXv3r3yT//0T7Ff8T7BAjzzCQaOOTzWMRhJftvU1BQ9Y2FhoRQVFUU/88ZfAaz99Yz3aJcuXRJd7eUv//Iv7be8JliAZz7BwDGHxzoGI4lv+fdL8rCxTp717DP9/d//ffSrnTt3iq5BWBYGoRG0AQEEEEAAAQQQQAABBBBAAAEEEIgVIPCI1eA9AggggAACCCCAAAIIIIAAAggEQoDAIxC3kUYggAACCCCAAAIIIIAAAggggECsAIFHrAbvEUAAAQQQQAABBBBAAAEEEEAgEAIEHoG4jTQCAQQQQAABBBBAAAEEEEAAAQRiBRb+8dv7sZ95jwACCCCAAAIIIIAAAggggAACCGS8wMKjxxvlf/jfTssfz97P+MbQAAQQQAABBBBAAAEEEEAAAQQQQEAFFvUMTYquvUMT8snZ+3Jge4XsWpODDgIIIIAAAggggAACCCCAAAIIIJCxAovsK7eDj+6BcTl2/gV5e0uZ7NtSav/MKwIIIIAAAggggAACCCCAAAIIIJAxAtHAw77ivpEp6RsRGRhrl9NXe+RP334iv9q70v6ZVwQQQAABBBBAAAEEEEAAAQQQQCDtBX4ReNhXPDD6UHQ9Wn9DPj13Xz7as9L66SPCD5uIVwQQQAABBBBAAAEEEEAAAQQQSFOBZwYe9vX2mNoe1jo4aX9lvRJ8zODgAwIIIIAAAggggAACCCCAAAIIpJHAvIGHfa0aeuhyxPT4iF0IPmI1eI8AAggggAACCCCAAAIIIIAAAukgEHfgYV/s7ODjk+nhLgQfthCvCCCAAAIIIIAAAggggAACCCCQagHHgYd9wXbwYQ93+eRck6nzUScEH7YQrwgggAACCCCAAAIIIIAAAgggkCqBRXYxUu2p4XaxQg+t9TE4IQQfbhXZDwEEEEAAAQQQQAABBBBAAAEE/BJYdPjgButY2jtDwwqCD79oOQ4CCCCAAAIIIIAAAggggAACCKRKYFFZUbZ1bn3Vdd/mUiv4+PJar+troseHazp2RAABBBBAAAEEEEAAAQQQQAABHwRm1PDQwGOxFMjiPVXylgk+zlzrEz+Cj14z3OXT803y4W5qfPhwzzgEAggggAACCCCAAAIIIIAAAgjMIzAj8LC3LclfLNaat0T+/N1N8unZ+/KJCSzcLt2mtoeuWuOD4MOtIvshgAACCCCAAAIIIIAAAggggEC8AnMGHvbOGnrU1ZVIuen58eHelQQfNgyvCCCAAAIIIIAAAggggAACCCCQ1gLPDTzsK7fre+jrh3tWWoVNtaeG2yW2x8cxHepijqnLh6ZwKgsCCCCAAAIIIIAAAggggAACCCDgVSCuwMM+ifb00LWsOFt0Olud0cWP4EMDkNiF4CNWg/cIIIAAAggggAACCCCAAAIIIOBUwFHgYR88EcGHHvtIfaN9CuuV4GMGBx8QQAABBBBAAAEEEEAAAQQQQCBOAVeBh33suYIP/c1trw+7p4cdfHxqepDocBeCD1ucVwQQQAABBBBAAAEEEEAAAQQQiEfAU+BhnyAafJjhLrGL1+DDrvVx7Px9ObSb4CPWlvcIIIAAAggggAACCCCAAAIIIPBsAV8CD/vw5aa2hy6HD260v7Je3QYfurMdenQNTAjBxwxWPiCAAAIIIIAAAggggAACCCCAwDMEfA087HPMDj50SMqn55pcD3XR4xJ82Lq8IoAAAggggAACCCCAAAIIIIDAfAIJCTzsk9rBh76WF+VYtTgIPmwdXhFAAAEEEEAAAQQQQAABBBBAwG+B4bu3pe3EcUlo4BF70VboYYKPMhN8HNpdJ8e0x8d3TbGbOHpv9/jotoa6NMmH5piHTE8SFgQQQAABBBBAAAEEEEAAAQQQCJ9AJOj4TAauNshEb3fyAg+busKEHrqWF5vgwwQUXoOPrsEJ0bV7YNwaMkPwYUvzigACCCCAAAIIIIAAAggggEDwBWYHHY/Gxq1GJ62Hx2ziZAQfa2sLZV1t0exT8xkBBBBAAAEEEEAAAQQQQAABBDJc4FlBh92slAUe9gUkMvjIzV4sf7ZvrXUqhrvY4rwigAACCCCAAAIIIIAAAgggkLkC8wUddstSHnjYF/I0+MiWg9NDXY55qPGhw1zErEeON0ZOsSDyovVDWBBAAAEEEEAAAQQQQAABBBBAILMEhu/ekbYvjpsaHVdkoqdbHo2NPbcBaRN42FdZYWp7RNbsaI0PT8GHKWqqy5H66eBj+kQEH9MQvCCAAAIIIIAAAggggAACCCCQxgJOgw67KWkXeNgXNlfwob+5DT+6ZgUfx843WbPFEHzY4rwigAACCCCAAAIIIIAAAgggkD4CboMOuwVpG3jYFxgNPoqy7a+sV6/BhwYgOqVtvQk+PjDDXHR2l9jl+vXr8nd/93fRr/7qr/5KVq1aFf3MGwQQQAABBBBAAAEEEEAAAQQQ8F/Aa9BhX1HaBx72hVaU5FhvDx/cYH9lvboNPnTnTjOVra4dJvj4dLrHx0cm+JiampK//uu/li+//DJ6rt///vcEHlEN3iCAAAIIIIAAAggggAACCCDgr8CIVaPjM+m/2hBXjY75zp4xgYfdkNnBx6HdK+TY+WbXQ130uN0m9LBXHepS8qRDTpw4IRMTkfofus2DBw/0hQUBBBBAAAEEEEAAAQQQQAABBHwU8DvoKFi9RqrfeV8yLvCwTe3gQ1912Is/wUdkmMtieSwvfvQ/S+f1k9Zqn5NXBBBAAAEEEEAAAQQQQAABBBDwRyBRQUfJlq2SXVaRuYFHLK8Vepjgo9wEHwd3mR4fZjrb+u+aYzdx9P6hZElhzUuSlV/maD82RgABBBBAAAEEEEAAAQQQQACB5wtYQcdJHbpippft7pp3etnnH00k0qPjPSnZvE2yy03QkZtr7ZKxPTzmanClCT101QDk0K46z8HH0oIyWbn799apLrc8lCkTpHxojsuCAAIIIIAAAggggAACCCCAAALOBJIVdNhXFajAw25UbPBx0AQUWpD0swvuenxo6KHLmZtT8l3TDfsUBB9RCd4ggAACCCCAAAIIIIAAAggg8GyBZAcd9pUEMvCwG2cHH/p6yMy+okNdPnM51GV44rEMT4zLkWPToccTc5YFQvBhY/OKAAIIIIAAAggggAACCCCAQIxAqoIO+xICHXjYjYwNPj54Zbn8H//4lfzUvdD+2dGrzuaiy5H6G7LQBB4Ln5j/MMtBM1sMCwIIIIAAAggggAACCCCAAAJhFxi5d0favvhc+q81yKSp0fFwdMwTSb6ZdaXmgKnRocVIrRodeXEdLxSBhy1RZXp6TAx2Sv3/9b/I8JRI5cYDUvnSfvtnR69Pg4/GGfsRfMzg4AMCCCCAAAIIIIAAAggggEBIBNIl6LC5QxV4aKPHxsak5c6PVvsnh3uks/Gkp+CjM9rjg+DDfqh4RQABBBBAAAEEEEAAAQQQCI9AugUdtnzoAg+74fo6Ndxtra9sWS//45+skoa2n+VzlzU+CD5iZXmPAAIIIIAAAggggAACCCAQdIF0DTps91AHHm+99Zb8xV/8hezZs0fWrl0rOyeeyKFXV8j/+nf/LP1Pym0jR6928HH0+HSPj0iJDzm4ixofjiDZGAEEEEAAAQQQQAABBBBAIC0FrKDj5AkZuNogE92dnmt01Bx4V6rfeV8W5eZJTkWF9epHw0MXeBQVFclvf/tb+c1vfiO7du2SlStXSl5epOBJdraI1vmoWdgsp/7hfzdDXfZLhcsaHx39keKmR+tnDXUh+PDjueUYCCCAAAIIIIAAAggggAACSRZIVNChhUizKyp9b03oAo8Kkxb9zd/8jdTU1Ehubu6coEsXTMlg6zWZMENeOhtPEXzMqcSXCCCAAAIIIIAAAggggAACYRDItKDDviehCzyWLFki69evt9v/3Fe7xsekCT7+p//uI+l+VCqfX2h57j7P+nF2jw8d6dIylv+szfkeAQQQQAABBBBAAAEEEEAAgZQKZGrQYaOFLvCwG+7kVQOP1csWya+2bzS1OOqk/rsmz8HHETPUZWioWArqdluXMtx03sklsS0CCCCAAAIIIIAAAggggAACCRHQoKPd1Ojov2ZqdHR1mRodo57OU21qdNQceM8atpKIoSvPujgCj2fJzPF9VWmu6Fpt6nxo8HHczOjy2YXmObac/6tIj49FUrrpo/k3ZgsEEEAAAQQQQAABBBBAAAEEEiywZHhIev7lH+XB6FBGBx02E4GHLeHgNRp8mPDjkClCWm+Cj+Mug4/FeaXWme3go6BwwApSPqC4qYM7wqYIIIAAAggggAACCCCAAAJuBTToyG29L1l9vfJkfEyGHz50eyhrv1T16Jh90QQes0UcfNYZXXStNOsHZjpb7fFx/KK7Hh928NElBaLDXeyF4MOW4BUBBBBAAAEEEEAAAQQQQMBPgZF7d6X91Akpbbgoi0zQsdCHoKN6/7uSU1mVkFlXnLadwMOp2Bzb2z0+qkpN8GF6ZngJPsZ/XizjZkrb2NBDT0nwMQc8XyGAAAIIIIAAAggggAACCDgWsIOO/qtao6NTlvhQoyOdgg4bhMDDlvDh1c/gw57VheDDhxvDIRBAAAEEEEAAAQQQQAABBEwh0s+tHh1ahFSDDi/FSPNXrRYdupK/cnXa9OiYfYsXffLJJzO+GzUNHx8fj35XXl4efR+0NwsWLLCmqF27dq3jpv3888/y/fffS3d39zP3XfZ4TA7Ujcm9wSy5N5T1zO2e98Ps4OOnWz9Zm68umnrebvzmQCBMz7wDloRsinVCWOM6aOyfVTk5OZKXlxfXfmzkXABr52Z+7HHr1i25fft29FCz/30T/YE3vgvwzPtO+swDYv1MmoT+wL9fEso74+BYz+Dw9UNuS5PktTXJeGenFXR4OfiDgkIZq62T/uoa6Z58KItb20V0TcNlUVtb24zL0rBjYmIi+t1Dj2N4ogdKwzcLFy6UqqoqV1f25MkT6evrk9l+sw9WmSuSt/ixrDIBxb3BpZ6Dj+MjP1un2FIWCaVWFU3OPiWfHQqE6Zl3SOP75lj7Thr3AfXPK3vJzs4WDT1YEiOAdWJc5ztqT0+PDA4ORjeb7+/n6Ia88SzAM++ZMO4DYB03la8b8u8XXzmfezCsn8vj6sfcVhN0tDbLmKnPMWVWL4sddEyWLpNHObnyePESGRkaFtE1TReGtCThxuQt+VmsdfHPnoOP0YcvWFd8tWfm/1gh+EjCjeQUCCCAAAIIIIAAAggggEAGCNhBhxYi1dXLMlfQ4eV4ydx30fr162ecb2RkRMbGnoJUVlbO+D1IH3RIS0lJiasmae+Q6upqycpyPlRlx4OFMvrgBfn027vSMu6uW/mzgg+Kmzq/nWF65p3r+LsH1v56Ojlap+m+aC+5ubmSn59vf+TVZwGsfQaN83Da83Jy8mmvx9n/vonzMGzmQoBn3gWay12wdgnncTf+/eIR0MHuWDvAesamkw3fy1TDZSvk8Bp0aI2OrG07ZKKkTApMj44nS5Y846zp+/Wil19+ecbVDQ0NyfDw0y4py5cvn/F7kD5o4LHE5U3TwGPdunXiZcjP7R8vydlj/0EK6nZJwcrdrmhnBx87fy6zjvP+q8G9b66gnrNTmJ755zAk5Sesk8I850laWlqi3xcUFEhhYWH0M2/8FcDaX894j6Z/L09NPa1vNfvfN/Eeh+2cC/DMOzdzuwfWbuW87ce/X7z5OdkbaydaM7fVqWV1XTTQLwsGBmb+6PCTVYx0/ztSsmWbvFBUIj8vXuzwCOmz+SL9h2/s8vjxY9HVXmb/bn/Pq4iOg9fV7ZKz6KGMd90wlXF7ZbjpO1+Cj3/+NlKTpaAg8v/evv/qCreXF5r9eOaTd6uxTp717DPFFinV3h382T5byL/PWPtn6eRI2nMpttclz7gTPW/b8sx783OyN9ZOtPzbln+/+Gc535Gwnk/ol79Hgo4vZKKzQx6a1csSGbqyQkr37ZeaN/fJ4gAUuaeGh5cnwqd9H471irWa4KM2d1T2HDosn118+v/GOjlNe19kONKR+hszdiP4mMHBBwQQQAABBBBAAAEEEEAgYwVig45xj0GH9uhozs6VSTN05ZH5PxAWlFcGIuzQm0vgkUaPuIYeiyc75PDBjaIBxWcXmgk+0uj+cCkIIIAAAggggAACCCCAQCoF/A46qt+ODF25fvy4NetKKtuWiHMTeCRC1eMxq5flirWW5voWfBylx4fHu8LuCCCAAAIIIIAAAggggEBqBBIVdGRXVlm9OR6fPJWahiX4rAQeCQb2cng/g4+26aEuBB9e7gj7IoAAAggggAACCCCAAALJE7CCjtOmRkdHh3gfurJKtEdHsSlGmmMFHcGftY/AI3nPquszEXy4pmNHBBBAAAEEEEAAAQQQQCDjBAg6/LllBB7+OCblKAQfSWHmJAgggAACCCCAAAIIIIBASgRG7t8108t+Id1nv6FHhw93gMDDB8RkH8IOPqpMjY/3Xlluipu2yOeX3M3qMnuoywJZYDXnvVeXJ7tZnA8BBBBAAAEEEEAAAQQQCKWABh0dp09K/9UGK+h4ODLi2iF/1Sqp2qfFSLdKTlW1qdER/KErz8Ii8JhDJisr6xffzvXdLzZK8hc1priprtXL8kxxU3+CjyP1jTNaQfAxg4MPCCCAAAIIIIAAAggggIBvAgQdvlHOeSACjzlYDh8+LG+++eaMXzZv3jzjczp9IPhIp7vBtSCAAAIIIIAAAggggAACzxcg6Hi+j1+/EnjMIbl27VrRNdMWgo9Mu2NcLwIIIIAAAggggAACCIRJgKAjuXebwCO53kk5W2zwoTU+Pr/ovcbHkePTQ10iJT6s2iFJaQwnQQABBBBAAAEEEEAAAQQyXGDk/j1To+ML6b92RcY72sVTjY6VpkbH2wdMjQ6dXtbU6MgPb42O+R4LAo/5hDL4dzv4qCnLswIKT8FH75gl8YsaHyZQYUEAAQQQQAABBBBAAAEEEPilAEHHL02S+Q2BRzK1U3Qugo8UwXNaBBBAAAEEEEAAAQQQCKUAQUd63HYCj/S4D0m5CoKPpDBzEgQQQAABBBBAAAEEEAipAEFHet14Ao/0uh9JuZpo8GGmtH3XDEk54aXGx/RQl6P1N2Zcu9YOYUEAAQQQQAABBBBAAAEEwiBgBR1fnpT+qw3+1OjYN12jo4oaHV6eHwIPL3oZvq/W9tC11ofgo7V31NIg+Mjwh4LLRwABBBBAAAEEEEAAAUcCWoy06Y9/8Bx06Emr9u2Xul//ieQQdDi6B8/amMDjWTIh+j7Rwcfq6gJZU10YIlGaigACCCCAAAIIIIAAAkEX0KCj/ctTJuhok/H2dk/N1aCj+u13JKe62oQdNZ6Oxc5PBQg8nlqE/p0dfOiQl3d3mulsL7XICbO6WWJ7fBTkLpY/fXONNXzGzbHYBwEEEEAAAQQQQAABBBBIFwGCjnS5E/NfB4HH/Eah26JWh7lYw11y5T0/go9ekeGxG1Z4okGK1g1hQQABBBBAAAEEEEAAAQQySaDj9EnpOHNSxtr96dFR9fYByTW9OXKq6dGRqOeAwCNRsgE4rt/Bh/b6aO0ZI/gIwLNBExBAAAEEEEAAAQQQCIuAXZC06+zXnoeu5K9cZdXpqNj7BkFHEh4gAo8kIGf6KQg+Mv0Ocv0IIIAAAggggAACCCDgVMAOOvqvXTFBR5s8HBlxeojo9nbQUbJl23RB0oLob7xJnACBR+JsA3fk2ODj3Z211nS2J75vddVOq7eH9vgw09p+YY7xjjmeDndhQQABBBBAAAEEEEAAAQRSKWAFHWdOyYCZYlaHr3gLOlZK1VsHpHjLVsk1Q1cW5xN0JPPeEngkUzsg57KDD33VehwnLpripm6Djx4d5jIqLWb94hLBR0AeEZqBAAIIIIAAAggggEDGCRB0ZNwtm/eCCTzmJWKDZwkQfDxLhu8RQAABBBBAAAEEEEAgUwQIOjLlTjm/TgIP52bsMUsgUcGHfRqGutgSvCKAAAIIIIAAAggggIBfAgQdfkmm73EIPNL33mTcldnBR82yPFOTY7kZouJtqMvR+huWwYJpCT0mCwIIIIAAAggggAACCCDgRWD0/j0zvewpiRQjbZUHw+6Lkeat1Bod+0WLkVKjw8tdScy+BB6JcQ31UZeX54muGoCsqi6Ue+1Drmp8aF0PXY5MBx/6ntBDFVgQQAABBBBAAAEEEEDAqQBBh1OxzN+ewCPz72HatkBDj1/vXSlDYw+i1+imuGls8HHCFDbVGWIIPqKkvEEAAQQQQAABBBBAAIHnCBB0PAcn4D8ReAT8Bqe6eQW5S0TXjw9ujF7K3Y5h0dXposGHrjqrC8GHUz22RwABBBBAAAEEEEAgXAIEHeG633O1lsBjLhW+811Ae3voosHH8PgD+eczd+QLl1PZxgYfeox3Xl5uenzU+n7NHBABBBBAAAEEEEAAAQQyU+DW//0fpP9qg4y1t8nDYef/Z2tsq6veeltW/Oq3kltTK4vzC2J/4n2aCxB4pPkNCtrl2cFHQc6SaGFTr8FHS/eoCU9aCD6C9rDQHgQQQAABBBBAAAEEHAp0fHlKOr46JYM3Gn0JOqr27Zec6lor7HB4KWyeBgIEHmlwE8J4CRp8WKspbGrP6ELwEcYngTYjgAACCCCAAAIIIOBdwA46xttaZaytzdMBtUcHQYcnwrTZmcAjbW5FOC9kRvDxcq2ZyrZVvrjc6gojOtTF9Pg4eblFDuxgqIsrSHZCAAEEEEAAAQQQQCBDBAg6MuRGpegyCTxSBM9pZwpEg4/yfKseh5fgo9kUNdW1pYvgY6YynxBAAAEEEEAAAQQQCIbAaNN90TodY1aPDnf/h6ktkVe3UrRXR8VrbzJ0xUYJyCuBR0BuZFCakajgw/ahuKktwSsCCCCAAAIIIIAAApknoEFHx5lT0n/tigw2XvfUADvoKNmyTXJNnY7FBRQk9QSahjsTeKThTeGSJFLfw6rz4U+Pj6P1jTNYCT5mcPABAQQQQAABBBBAAIG0FogNOrROxwMPM68QdKT1rfb14gg8fOXkYH4L2D0+as1QlyfTBz/posaHDnHR5ejxSPCxYIHIAVMzhAUBBBBAAAEEEEAAAQTSV8AKOr46bU0x60vQ8eY+sXp01CynR0f63nbfrozAwzdKDpRIgRWmt8fhQxtnnMJV8GEKmupyxPT4OPl9qxV6vLw6b8Zx+YAAAggggAACCCCAAAKpFZjqaJNbZnrZ/qsNQtCR2nuRyWcn8Mjkuxeya9fQQ5fY4MNN6KHHaDbBR2QdkePFWbJzTb7sfrFYf2JBAAEEEEAAAQQQQACBFAlo0DF86YKM37opP/f2eB+6Qo+OFN3J9DgtgUd63AeuwoFAbPDxjk5la3pqeA8+RuXczX7Z82KJ1NXVObgaNkUAAQQQQAABBBBAAAGvAjp0pf3k59LbcFkedHfJz6ORntlujmvV6CDocEMXuH0IPAJ3S8PTIA0+dNU6H1qPQ4eouA0+OgYmRdfO/im50jIpB3bUUuMjPI8SLUUAAQQQQAABBBBIkYBdo2PAzLoy1triS4+O4s1m1pXaWllSUJiiVnHadBEg8EiXO8F1uBZYUZEv1upD8NFuQo/2gQ5p7hq1whOCD9e3hR0RQAABBBBAAAEEEHimAEHHM2n4wUcBAg8fMTlUagX8DD6au0dMjQ+zEnyk9qZydgQQQAABBBBAAIFACRB0BOp2pn1jCDzS/hZxgU4FCD6cirE9AggggAACCCCAAAKJFfAz6NArXfcXHwtDVxJ7z4JwdAKPINxF2jCnQGzwsX9HjZy6rDU+2ubcdr4v7R4fLabHx4LpjfebuiEsCCCAAAIIIIAAAggg8HyBzq9OS/Mn/ypjbaZGx9Dw8zee59dKU4y0yqxFL22mRsc8VvwsQuDBUxB4ATv4qDO1PvabYqRego8mM8zlSP2NGWYEHzM4+IAAAggggAACCCCAgCWgQUfn11/KaEuLVZDUC4sddOTWrjAFSZd7ORT7hkiAwCNENzvsTY0NPmwLNz0+NPTQJTb4IPSwRXlFAAEEEEAAAQQQCLsAQUfYn4D0aT+BR/rcC64kSQIafHx8cKN1tidPRB49eiRfXetyfPbY4OPUD21W7xEdOsOCAAIIIIAAAggggEAYBbROh/bo6PzmK889OpZWVctL/+1/b3pz0KMjjM+SX20m8PBLkuNklIAOb9Hl8KGNMjIyIg8ePJDzPw24aoMGH9baOWINl9FhMwQfrijZCQEEEEAAAQQQQCADBUabNeg4I/1XG6yg48HQkOtWaNBR8PIrkr3uRSnf87rr47AjAipA4MFzEGoBDT4Gl/4sv9tbJbtfLJbzNwcIPkL9RNB4BBBAAAEEEEAAgXgF/Aw68urqTNDxqiyqWyVLK6rkhby8eC+D7RB4pgCBxzNp+CFMAtUlWaJrlVl/9cZ6Ofl9q+gwFTcLPT7cqLEPAggggAACCCCAQKYI+B10VL6xT0o2b5VH+QUyboacsyDglwCBh1+SHCcQAhp61NVVy4rypzO6eA0+mrtG5LSZEvdthroE4hmhEQgggAACCCCAQJgFtEZH8yf/ZoauNJspZt0PXclbUSeVb7wlJVu2WXU6lhQWyuDgoIiHY4b5vtD2uQUIPOZ24duQC9RV5ou1xkxl6zb4uG8CD12bCD5C/lTRfAQQQAABBBBAIHMFrGKkpk7HWEuzmWa22XVD5go6XB+MHRGYR4DAYx4gfg63QKKCj/udw7KysoDipuF+vGg9AggggAACCCCQ9gKjzU3WzCtdZuYVgo60v11c4CwBAo9ZIHxEYC4Bv4OPwa/vSVHekuipmNUlSsEbBBBAAAEEEEAAgTQQsIOO/qtXPA1foUdHGtzMEF8CgUeIbz5Ndy5gBx8rzFCXt3fUmNocba6Kmw6OTYmuR+sbrYtYYP5zZVW+1evD+VWxBwIIIIAAAggggAAC/ghYQcc3Z2TATDGrPTq81OnQGh3LP/y15C2vE63RwYJAsgUIPJItzvkCIbDS1PjQta6iINoeNzU+tLaHLkdM8FGYt1T+5I3VVpASPShvEEAAAQQQQAABBBBIgoDfQYeGHbnLV1hhRxIun1MgMKcAgcecLHyJQHwCGnp8fHDjjI1dBx8m/BganTI9Rlpl//Zago8ZqnxAAAEEEEAAAQQQSJSAFiRt+fTfPPfosIevVLz+JkFHom4Wx3UkQODhiIuNEfilgIYeusQGH25CDz1GdEaXzhGCDwVhQQABBBBAAAEEEEiYgDXzihm+Mtbsz8wrxZu3MnwlYXeLA7sRIPBwo8Y+CMwhEBt87Nseqe9xuqFtji3n/yo2+NBjvG2OpysLAggggAACCCCAAAJeBezhK10m7Bg1YYfbxerRYXpzFG/ZZoKOFaZOR5HbQ7EfAgkRIPBICCsHDbOABh+RtSBa2NRr8HG/Y1hO/0DwEebnirYjgAACCCCAAAJeBeygY8DMvDLa0uS6IClBh9c7wf7JEiDwSJY05wmdAMFH6G45DUYAAQQQQAABBNJSwK+gQxtXaXp0LP/oN/ToSMs7zUXNFiDwmC3CZwR8FngafJipbHWoi+mp4UePD/syGepiS/CKAAIIIIAAAgggECvgd9BRYWZe0SlmtYcHCwKZIEDgkQl3iWsMhMDKygIz1MWsVf4EH0frb0RdCD2iFLxBAAEEEEAAAQQQMAJan6NZZ15pdj90RSHzVqyQitffMj07TNhB0MGzlWECBB4ZdsO43MwX8Cv4uNc5bGFo8PGl6TWihVIJPjL/+aAFCCCAAAIIIICAFwENOjq/+coKOjTscLvYQUeJzrxigg4KkrqVZL9UChB4pFKfc4daIDb40GEv981UtG6GumjwoavuT/AR6keKxiOAAAIIIIBAiAU03Oj69ivp/FpnXiHoCPGjQNNjBAg8YjB4i0AqBDT4+N2bS2VgZCp6es/Bh05lu63G6vURPShvEEAAAQQQQAABBAInoLOtdJkeHf3XzMwrOnxlcNBVG60eHa+9KSU6xSw9OlwZslP6CRB4pN894YpCKFCUt1R0/fjghmjr72uvja6R6Od430R7fHQ83VeHu7AggAACCCCAAAIIBEfAr6BDRSpef0NWfGhmXiHoCM4DQkssAQIPHgQE0khgVVWBdTUafAyOTskfvr7napiLHkSDjyMxhU0JPdLoRnMpCCCAAAIIIICASwG/gw67GGneipUur4jdEEhfAQKP9L03XFmIBezgQ3t97NtebWpztLsKPjT00EWDDx0mwzCXED9UNB0BBBBAAAEEMl5Ah640H5ueecXl0BVFsIevVOo0swQdGf9c0IBnCxB4PNuGXxBIuYAGH7pqnY+3tpngw4QWXza0O76u2GEuuv8+cyx6fDhmZAcEEEAAAQQQQCAlAhp0dJqCpKPN92W0yWNBUq3ToTOv1K1k5pWU3E1OmkwBAo9kanMuBFwK2MGHvu4zxUi9Bh/3Ooat4ITgw+UNYTcEEEAAAQQQQCAJAtbwlW+/NjOvfEnQkQRvThE8AQKP4N1TWhRggdjgw26mlx4fGnw0mcKodRX59PiwQXlFAAEEEEAAAQRSLGAHHf1XG/yZeYUeHSm+o5w+VQIEHqmS57wIeBDQ4OPwwY3RI7gJPXRnHeoy+NWUNUOMfmaYiyqwIIAAAggggAACqRHwK+jQq694TWde+TVDV1JzKzlrmggQeKTJjeAyEHAqoKGHLhp8vGWGuZz5wdT3uOK8vseAmQ1G16OmsOkZs78eS4e6sCCAAAIIIIAAAggkR2C0pVm6TI2O/mtXzNCV+/LAQ0FSDToqTJ2OfFOjQ+t0sCAQZgECjzDffdoeCAF7mMtqE4C8td198HHX9PbQ9V77sJwxxVEJPgLxeNAIBBBAAAEEEEhzAQ06mo/90XPQkbd8haz+/X9N0JHm95vLS64AgUdyvTkbAgkTIPhIGC0HRgABBBBAAAEEfBfQoKPLFCQdMT06tFeH20WDDu3VUbJlm5Rs3e72MOyHQCAFCDwCeVtpVJgF7OBjlZnK1l7cDHWJ7fHR1DVsCpvqDDEMdbFNeUUAAQQQQAABBNwI2MNXOr8+41vQkbfCTDFbVOTmctgHgUALEHgE+vbSuDALrK4ukI9jC5u6qO+hfhp8DJyZkuL8pbLAfH6L0CPMjxVtRwABBBBAAAGXAmNap+Ps16Izr2ivDrd1OuweHcVm5pX8ulUEHS7vB7uFQ4DAIxz3mVaGVEBDD100+NCg4kxDu6fCpkfqG6P1PQg+QvpQ0WwEEEAAAQQQcCTgV9ChJ13z+38vBB2O+Nk45AIEHiF/AGh+OAQ0+NB1VVWhp+DjbocpbDq92oVNCT7C8QzRSgQQQAABBBBwJuBn0FHx2utSsfdNKd22gx4dzm4DW4dcgMAj5A8AzQ+XQGzw8eZ0jw+ditbpYoce+mpNZbu1mqEuThHZHgEEEEAAAQQCK6DFSFvqzcwr9+/JlIcpZnNNQdI1f/5fmellV0n+ylWB9aJhCCRKgMAjUbIcF4E0FrCDj9Wmx4e9eAo+2oekuWtEVlTkE3zYoLwigAACCCCAQOgENOjQOh2jTfdk5P591+3XoKNi7+vWzCvaq4MFAQTcCRB4uHNjLwQCIaDBx+GYwqZuQg+F0J4egyN3pMgUNtWFYS4WA/+BAAIIIIAAAiERiAxf+UY6vz7tW9CRX6czrxSHRJBmIpAYAQKPxLhyVAQyRkBDD100+LALm7oJPvpHp0RXq7CpGSbzFsNcMuYZ4EIRQAABBBBAwJ2AHXT0X2vwNHwltkcHQYe7e8FeCMwlsKi3t3fG90NDQzIyMhL9Ljc3N/qeN/4KjI2NyePHj2cc9MGDBzL7nszYgA++C/DMR0gLlohsr8uWgsVlsrF6iVy6PSgXzep0set73DPDXL4ywccr64pk59rIvPBYO9X0b/uBgYHowR49eiS6siRGAOvEuM531EEzRn50dDS6GX+XRikS/oZnPuHE0RNgHaVI6pu5/v3yoKtDRhouy8iN656CDm1I6QcfSv6LGyXX1Oh4Ynp0DD/6Wcz/IEhqG9PlZHNZp8u1Bf06Yv8O1b9Tg/L36CL9H92xy/j4uOhqL7N/t7/n1buAhhtPnjyZcSD9HyGYzyBJ+Aee+ZnEFYUvSEVhiSwvy7aCCrfBxx0zzEXXG0298uUP2Vbwsa58IX++zORO2qfYP9dfeOEFWbSIDn6Jwsc6UbLPP+7ExIRMTU1FN+Lv0ihFwt/wzCecOHoCrKMUSX2j7rb9475eab5wVsZv3ZSp9jZ5NDzs+lryTW0OXXM3vCQv5BfIQ3Okh7P+t5nrg2fojrHW2gT+LE/ejYz9O1T/Tg2KPf/iTd4zxJkQyCiB5cuyxVpN8FFVkiUd/ZOueny09E6IvW5ZvlSKs0U21UZqfWQUCBeLAAIIIIAAAqEWeHSzUR7+cFGmTOjhJehYUlkpy97/UJbW1MrS6tpQm9J4BBItsCgnJ2fGObSHwcOHmi9Gltm/29/z6l1g8eLFsmDBghkH0s+YzyBJ+Aee+ecTv7giRypLC2R4/JF5NjusaWifv8fcv2roMTAyJXlZC60Ndq4t5Fmfmyoh32ZlZUWPq3/G8OdMlMP3N1j7ThrXAdV9yRIzNm964Rm3JRL/yjOfeGP7DFjbEsl9HTVDVybNzCs/93TJ4+5u1yfPXb5cSnbukpx1L1q9OlwfKMA78u/y1N3c2L9D9c+aoPw9uqiw8Om0lDZv7DCLuX63t+PVm0B2dvYvAg990DD35upmb57556vZf0wUFhXKG1uqTG2ODvnqavvzd5rj19Gpx6LryR9H5Vb3z/LBnhJ50xQ3ZUm8gI6JtZeCggL+nLExEvCKdQJQ4zhkXl6e6N+r9sLfpbZE4l955hNvbJ8Ba1siOa9jrS1mitlvpN+EHQ+bm1yfVIOOij2RKWZzzHSzOnyF5dkC/Lv82TaJ/CX271D9OzUof48uik1yFFB7HehqL7N/t7/n1buAjqOf3cNDv8Pcu62TI/DMx6+1xhQzXVNdKGtqCk1Q4T746Bh6JB1DI9I3flfO3+i1Qg+Cj/jvg5stY/9c1/f8OeNGMb59sI7Pye+t1D22Ng3PuN/Czz4ez/yzbfz+BWu/Rec+3lhrswk6vpXozCsxhb/n3mPub2ODjnxTkJQpZud2iv1Wn/HY55w/y2N1Evs+9u9QvQdBsaeGR2KfG46OQCAFrNDDh+DjjpnJJbIOWzO6aOhB8BHIR4ZGIYAAAgggkPYCfgUd2tDVf/bvpGTLNiHoSPvbzgUGXIDAI+A3mOYhkEiB2OCjriJfmrpGXA11iQ0+ms0xVphjEXwk8s5xbAQQQAABBBCIFdChKy31f4xMMeuyR4cer2Lva1K+9w1Ztv1lenTEAvMegRQJEHikCJ7TIhAkAQ0+ivOzZGB40mqWm/oeuqMGHwMjk9ax9DOhhyqwIIAAAggggECiBLROx91//I8ycu+OWe+5Po0OX1n9X/4706NjteSvWu36OOyIAAL+ChB4+OvJ0RAIrUBJ/lLR9fDBDSaocF/fo9/M5KLrkfob8vXVDqtIKsFHaB8rGo4AAggggEBCBKyCpOe+kYGrV6T38iXX57DrdBRv3irLdux0fRx2RACBxAgQeCTGlaMiEFoBLWhqrabXh5fgwx7mcrttiOAjtE8TDUcAAQQQQMBfgdigY+T+XZlyOXwlNugoMD06KEjq733iaAj4JUDg4Zckx0EAgRkCdvCx2gQfOpXt12Ya269Mjw2nix183JkOPt7cUi1vmB4kLAgggAACCCCAgBOBbtOjo6X+EzN0xX3QsaSiUmrf3CfFVkHS1bK0uNjJJbAtAggkWYDAI8ngnA6BsAmsNT0+dNUApLI4S+62DcilO4OOGW6b+h66avChNUIIPhwTsgMCCCCAAAKhFNBeHd3nvpWOr05bYYdbhNL3DkrOuhdlxe69BB1uEdkPgSQLEHgkGZzTIRBWAQ09Fu+ukeaOLIvATeihO8YGH/p5RUWeNauLvmdBAAEEEEAAAQRsATvo6L/W4KlXR/627ZK3dYfkbtgkiwoKCDtsYF4RyAABAo8MuElcIgJBESjMXSwryrLld3ur5OW1hXKj/YGrYS7qocHHkfpGKSlYKr95bTXDXILykNAOBBBAAAEEPAr4FXTk1i6Xij2vSdaW7fK4pNTjVbE7AgikQoDAIxXqnBOBkAto6KHr7q1F8rqpyfH1lXb5+prz+h4aeki7SP/wlNm/3dQKMfU9TL0QFgQQQAABBBAIp4AOXYnU6bjjviCpCTrKzbCVEq3TYQqSTixYKEND5t8cLAggkHECBB4Zd8u4YASCI2DX99DXN7Z6Cz6soS6tOqMLwUdwnhBaggACCCCAQHwCVq+O86ZOxxlvdTo06Fh+6FdW0LG0uMQ6+cSg89pj8V01WyGAQKIFCDwSLczxEUBgXoHY4GNFRb40d4247vFB8DEvNxsggAACCCAQGAE76Oi/esXU6XDfq0ODjvI9r0vB6tUm7FgTGB8agkDYBQg8wv4E0H4E0khAg4+S/KXSPzJlXZWbYS66oxV66KwupseHLivKKWxqQfAfCCCAAAIIBEjg3j/9J/EadGidDg07qt56m6AjQM8GTUHAFiDwsCV4RQCBtBAoKcgyhUiz5PDBjaa+R5V8c7XDVW8PbYwGH0e1sGl+lvz69VXU90iLO8xFIIAAAggg4E2g2wxd6T5/VnovXfBQp6PWBB2vScnmrZK/eo2ZeSUyfMXblbE3AgikmwCBR7rdEa4HAQQsgbW1haLruhotbOo++LjVpr08hkyvkUkrPNFjUdiUhwwBBBBAAIHME4gMXzkrnV+dluG7d1w3wKrTcfAjgg7XguyIQOYIEHhkzr3iShEIpYCfwYeGH7fbBgk+Qvkk0WgEEEAAgUwVsIOO/msNMmKCjqmBAVdNidTpeE0KTI0O7dXBggACwRcg8Aj+PaaFCARCIDb4WG4Km7a4LGyqoYcdfCgM9T0C8XjQCAQQQACBgArc+6d/EK9BR25tZPhK1ZumTgdBR0CfFJqFwNwCBB5zu/AtAgikqYAGH8UFprDp8KQ8Mdf4zbUOV1eqocfR+humXshS+c1rq6xhM64OxE4IIIAAAggg4LuA1uh4Wqej39XxraBj114p2bKN4SuuBNkJgcwXIPDI/HtICxAInUCpKWqq6+GDG6x6HF+bwqZugo9bZniLtIkJT6as/V/fXEXwEbqniQYjgAACCKSTgDV85TtTp+MMdTrS6b5wLQhkqgCBR6beOa4bAQRkXW2Rtep0tlqI1EvwoeHHLTONbUv3qCw309hqcVMWBBBAAAEEEEiOgB10WNPMWnU63PfqWPWnf2716ChYvTY5F89ZEEAgbQUIPNL21nBhCCAQr0Bs8KG9NLS3h9seHzqbi05jqwuhR7x3gO0QQAABBBBwL6BDV1qPf2LNvDLV7z7oKDfDV4rNNLNlr+xyfzHsiQACgRIg8AjU7aQxCIRbwA4+1pk6H26Djz5TG0TXI6a+h4YmDHMJ9zNF6xFAAAEEEiegQUePGb4yfPe2DN9xN82sXadDg46CNWtlaXFJ4i6YIyOAQMYJEHhk3C3jghFAYD6B2OBDt3Xb28Me5kLwMZ84vyOAAAIIIBC/wFhbiwk6zknHmVOugw49W/muPVJ78COCjvjp2RKB0AkQeITultNgBMIjoMGHFjZ129tDpazQY7q+h35mmIsqsCCAAAIIIOBcwA46+q82eB6+supP/szU6VhrhR3Or4Q9EEAgLAIEHmG507QTgZAK2L09tLDpa5sr5Vud0eXHTscaGnwcPX5Dvv2xwxzHzOZiVhYEEEAAAQQQiE+g2wxdaa3/1Bq+4rpOR02t1auj2EwzS52O+NzZCoGwCxB4hP0JoP0IhERg/fIi0XVdTZHV4paeUWk2M7I4WX5qHRRddTaXb019D4IPJ3psiwACCCAQRoGxtla5///9ZzN0Ret03HZFkBsTdFCnwxUhOyEQWgECj9DeehqOQDgFNPT4+OBG0dlY/u2be656e8QGH7YiPT5sCV4RQAABBBAQ0aBD63To8JWei9+5JqFOh2s6dkQAASNA4MFjgAACoRPQ0EMXnX72tS1Vroe5aPBx1MzmYi+EHrYErwgggAACYRWIDTp09hWvw1cq39pPnY6wPky0GwEfBAg8fEDkEAggkJkCscNc9pqaHDpM5VuH9T009NBFg4+zZt/XNlVaQ10yU4SrRgABBBBAwL2A9uhoOf6JNXTFS9BRZmZfKbGmmV0nS0uYZtb9HWFPBBAg8OAZQACB0AvYwcd6M6uLLk5DD93HHubyU8ugtT/Bh6qwIIAAAgiEQSBSp+MfTdBxy1OdDoKOMDwttBGB5AoQeCTXm7MhgEAaC2jwcdjU99BipG56e2jTYoMP/azHYkEAAQQQQCCIAtbwlQvTdTouuK/TUbZrtyz/4CMzdIUeHUF8TmgTAqkUIPBIpT7nRgCBtBOI7e3hNfg4Yoa5aG8Renuk3W3mghBAAAEEPAjEBh0684rX4StVb71thR0eLoldEUAAgTkFCDzmZOFLBBAIu0Bs8KEWLWYKW53K1sli9/a4ZYa5aH2PvZuqTI+PSieHYFsEEEAAAQTSSiBSp+NTa/iKp6Dj1d1SsmWbVZB0aUlpWrWRi0EAgeAIEHgE517SEgQQSICAPcylb9hMY/vtPVf1PW6awqa6an0PXZaX51lrAi6XQyKAAAIIIJAQgUivjvPSceakDN++7focK3/3XxB0uNZjRwQQcCpA4OFUjO0RQCB0Ahp66FJaYKaxNb00vv3R+Wwuur+GHkfrG6W0MEt+tXcVvT0UhQUBBBBAIK0F7KCj/2qDp14dZaZHR7mZfUVf6dGR1reci0MgUAIEHoG6nTQGAQQSKWAPc1lnApDasjxpNcNcvr3e6eiUGnpIq0jf0KScNftqfY+9ZmVBAAEEEEAgnQSsoOPiebGCjtu3PNTpqDEhxx6pemu/FKxdl05N5FoQQCAEAgQeIbjJNBEBBPwVeNEEHstMb49eM8xFF6ehh+4THebSPGDVBlluAhSCD5VhQQABBBBItUCPmXml5bip0+FD0FG8easUmqCDXh2pvqucH4FwChB4hPO+02oEEPAooMNSdP340EbZawqRnr3W6Tr40PogOlxGF0IPjzeG3RFAAAEEXAvYvTo6vjxlhR1uD6R1Ogg63OqxHwII+ClA4OGnJsdCAIHQCWhvD13XLy92HXxoTxFdjxxrjE5jS/ARukeJBiOAAAIpE7CDDq/DV7Q+R9kuU6vDDGGhR0fKbicnRgCBGAECjxgM3iKAAAJuBaLBR22RPDEH0focTpfoMJeWgelpbKnv4dSQ7RFAAAEE4hcYb2+V7gvfyYApSDp0x9Tp6OuLf+eYLXNrTJ2OV3ZL1T6t07E+5hfeIoAAAqkVIPBIrT9nRwCBgAm8uKJYDh/cYA1NOftjp7vgw0xfe9NaBywdensE7CGhOQgggEAaCPRcOC+tpk6HH0FH8Rat07GeXh1pcF+5BAQQmClA4DHTg08IIICAZwENPazVDHXRsMJL8HHETGOr++txCD483xoOgAACCIRewO7V0fHlSU91Ospe3SW1H3xI0BH6JwoABNJbgMAjve8PV4cAAhksEBt82M1wOtQl0tNDe3wwzMU25BUBBBBAwLmAHXR4Hb6iQYdOM6szrzB8xfl9YA8EEEiuAIFHcr05GwIIhFDAHuZiN91p6KH72cHHTyb4aO0ZlVqmsbU5eUUAAQQQmEfAGr7y2TEZuv2T6zodOaZOR7mp01H51n4pXEedjnnI+RkBBNJEgMAjTW4El4EAAsEW0NBDF63vsccMTznnsr7HDVPbo3doUpaZKXF1YZiLxcB/IIAAAgjMITDe3iY9F8+LDl8ZunVrji3m/8oOOqxpZk3Qwewr85uxBQIIpI8AgUf63AuuBAEEQiBgD3PZYOp7uA0+7Glsj5r6HufMbDB7XqK+RwgeHZqIAAIIxC1gBx39V6946tVR9sp0nQ6Cjrjt2RABBNJLgMAjve4HV4MAAiERiA0+tMluhrlobw9dbzYPEHyE5LmhmQgggMB8An4NX1n5mz+1anQwfGU+cX5HAIF0FiDwSOe7w7UhgEDgBTT4+FiHubxUYUKPLiu4cNrop8HHoCwwO2vPERYEEEAAgXAJRHp1fDc9fOUnV43Pqa4R7dVRsmWblO/e6+oY7IQAAgikkwCBRzrdDa4FAQRCKbDBhB66avix11PwMSBH6m9Ee3sQfITycaLRCCAQMgE76Oi/2uB6+Eps0KE9OqjTEbKHiOYiEGABAo8A31yahgACmSUQG3zolbeZ2VhazOpkuWFmcbHW5kGCDydwbIsAAghkoIAWJG097m32Fep0ZOCN55IRQCBuAQKPuKnYEAEEEEiOgAYfOpuLzsbyx2/vybnGLscnjg0+dJzLggdTUlm81PFx2AEBBBBAIP0EHvR0Sfu3X8mwCTyGbnkZvvKqVO07YKaZfTH9GskVIYAAAj4IEHj4gMghEEAAAb8FNPTQRaeftWdzcRt8HDl2Q3KXPJF9W5bJtlUFfl8qx0MAAQQQSKJA/+kvZOLWTZlovi+PBgcdnzkyfOVVKdm8zQo6lpaWOj4GOyCAAAKZIkDgkSl3iutEAIFQCtjDXPS1tixPWs0QF6fBh/b20GVg9KE03BuS1zb/LO+8WhRKTxqNAAIIZKpAz8XvpMuEHSNXfnAVdGi7y155VWrf/5CgI1MfAq4bAQQcCxB4OCZjBwQQQCD5Ahp4LCvMNsNcJqyTOw09dKe7XWPW2tw7JVebRqyZYfa8xIwuyb+bnBEBBBCIX8AqSnrJzL5y+iTDV+JnY0sEEEDAEiDw4EFAAAEEMkRAh7fo+vHBjbLbBBXnr3c67u2hTb3VNmytN5sHTHmPBeZYFRkiwGUigAAC4RJo+rd/EZ19ZdgMYZns63Pc+JzqainbqdPMbp3u1bHM8THYAQEEEMhkAQKPTL57XDsCCIRSYGNdseiqvT68BB+NJvA4Ut8Ync2F4COUjxONRgCBNBToNcNXei5dkO5z37gKOrRJZTvN8JUPDhF0pOH95ZIQQCB5AgQeybPmTAgggICvArHBhx64tWdMWnudTWOroYeuN8x6zvQY0SEuBB++3iYOhgACCMQtEBm+ckE6vvxChn5yO/tKpFeHNfvKemZfiRufDRFAIJACBB6BvK00CgEEwiSgwYcOc+kz9T3+ePa+q2EuscGH2tWU5VpFUsPkSFsRQACBVApor46Wz44xfCWVN4FzI4BA4AQIPAJ3S2kQAgiEUUBDD5FiKTWFTXdtrJDzjV3W6tTCHuayrChbfrVnJb09nAKyPQIIIOBQQHt1NP3xD6ZHxw2z3nS4d2TzZTp85X0zfMX06MgqpU6HK0R2QgCBQAoQeATyttIoBBAIq4A9zGVjXUl0GlsNP5wsGnqIWXsHJ0xo0im7NzLMxYkf2yKAAALxCFjDV76/IANXr0jX2W/i2eUX20SKkr4qkeErG37xO18ggAACYRcg8Aj7E0D7EUAgkAIafCwryjKhxaTVPqehh+5kD3NpbDIBiFmo7WEx8B8IIICAZ4FeU5C01Qxf0R4dk329ro5XffAjKd+xk14drvTYCQEEwiJA4BGWO007EUAgdAJlZniLrodNfY/1lUvkyr1habg/5NjBHuZCbw/HdOyAD5p25QAAQABJREFUAAIIzBCwe3V0nD7pevhK3qbNkrtxs1S9tV+WrVw54/h8QAABBBCYKUDgMdODTwgggEDgBLS3R46UyerKHNmyMl8aWyfk0u0+R+2M7e3RZmaCqSnLM0NdKhwdg40RQACBsAqMd7RJ76WL0n+1QYZumV4dvc57dejwlaXrNkjhK7sla+UqWVRYGFZO2o0AAgjELUDgETcVGyKAAAKZLbC6MteEHrmybd0CWbRokZy/4ay2h7Zeg4/eoUlZVphlYRB6ZPYzwdUjgEDiBaLDV1wGHXqFy3a+YhUlHc3Jk0VFWqSaBQEEEEAgHgECj3iU2AYBBBAIkMC6mgI5fGijVZPj/HUzm4vD4KPHTH+r65FjjfKdKYiqs8IQfAToAaEpCCDgi4Ddq6P99Beuh69or44Vv/qtFK03PTvMOtnU5Mu1cRAEEEAgLAIEHmG507QTAQQQiBGwZ3PZsKLYCiw0uHAafDwd5tIvC8yxNfhgQQABBMIuMN7RLr1m9pV+M/uKTjXrdvjKspdfkZLN26TitTfCTkr7EUAAAdcCBB6u6dgRAQQQyHyBl1aWiK4agOjiNPTQfa6bWVyO1DeaKWy7rJ4eBB+qwoIAAmEUsIavfF7vOuhQMw06at8/JIUvbpCs0mVhZKTNCCCAgG8CBB6+UXIgBBBAIHMFNPT4+OAG1709NPTQtbGpn+Ajcx8DrhwBBFwK2L062nX2lZs3XB3FGr7y0fTwFRN2sCCAAAIIeBcg8PBuyBEQQACBQAjE9vbQXhpuhrnEBh+KQm+PQDwaNAIBBJ4hYAcdDF95BhBfI4AAAikWIPBI8Q3g9AgggEC6CcQGH0/MxX3nsKipticyzOWGte+uDRUEH+l2k7keBBDwLND7/UVp/eyYD8NXDpqCpBslaxnDVzzfFA6AAAIIzBIg8JgFwkcEEEAAgYiABh+HY4a5OA0+rpvhLdZ6f8A6YE1ZntQsy4UXAQQQyGiBSK+Oi2LNvuJ2+EpVtVWro+rtA1L04saM9uDiEUAAgXQWIPBI57vDtSGAAAIpFrB7e7w0XdS0vXdUWnvHHF2Vhh5H6m9IWVGWfLRnJb09HOmxMQIIpJNA8yf/amZfaXDdqyNnOugo2bKVXh3pdGO5FgQQCKwAgUdgby0NQwABBPwTsHt79AxNyCdnmxwPc9HQQ5pEegYnGebi323hSAggkCQBHb6ia9e3X7maZlYvMzL7CsNXknTLOA0CCCBgCRB48CAggAACCMQloKGHLmWF2fLqhnK5cKPbVfCh4Ufj9DAXiprGRc9GCCCQIgFr+Mrli9Jx6gsZ9DR8ZadUvf0Ow1dSdB85LQIIhFeAwCO8956WI4AAAq4E7GEum6YDEKe1PfSkP5rQ46gZ5qKhiYYnBB+ubgU7IYBAAgWaP/1XGbh6xQQdja56dUSGr+yUks3bpNBMM5u1rCyBV8uhEUAAAQTmEiDwmEuF7xBAAAEE5hWwh7m47e2hoYeu1+/3S3vfmFSX5hJ8zKvOBgggkGgB7dWhYUfXN16Gr+yU2vcOEXQk+mZxfAQQQGAeAQKPeYD4GQEEEEDg2QKxvT2qzQws7aagqdMeHxp6aG0QHSqjC709nu3NLwggkDgBe/iK9uroNGGHm8Xu1cHwFTd67IMAAgj4L0Dg4b8pR0QAAQRCJ6DBx7KibFOUdEKePHkiF252OzLoNvvpqsNcLpp9tdfIqxsqHB2DjRFAAAG3Ar2mTkfb5/UyeMPd8BU974oPfy3FZvYVnWaW4Stu7wT7IYAAAv4KEHj468nREEAAgdAKlJvAQ9fDhzZavTS+a+xyHHzYw1x+vGdmdTELoUdoHycajkBSBLRXR8uxf7OCDg073CzLduyU0pd3SuXrbxF0uAFkHwQQQCCBAgQeCcTl0AgggEAYBbSYqa7a60MXp709dB8NPo4ce1rUlOBDVVgQQMAvgcjwlUsycK1BOr/2MHzFhB3W8JUNG/26NI6DAAIIIOCjAIGHj5gcCgEEEEDgqYCGHocPbrR6aVy44a23hz2bC8HHU1/eIYCAOwGGr7hzYy8EEEAgEwUIPDLxrnHNCCCAQIYIbFplenvoasIPDSs8BR9mNheRBeY45RnSei4TAQTSSUB7dfT98L20nzphDWFxc23LdrwspTtekco3GL7ixo99EEAAgWQLEHgkW5zzIYAAAiEUiA0+tPmuhrmYwONIfaMVmmh4QvARwgeJJiPgQsAOOvqvNkwXJe1xfJScqioTdOyU6rffkaINLznenx0QQAABBFIjQOCRGnfOigACCIRSQIMPT8NcTOjx4/SqgDoVbo1ZWRBAAIG5BHovX4qZfcV50KHH1F4dNe8dMkEHs6/MZcx3CCCAQDoLEHik893h2hBAAIEACti9Peyipu29Y9LWN+aopRp6HDW9PcqKs+XD3Svp7eFIj40RCL7AeGeH9Jmww8vwFe3VsfzQr6weHfTqCP4zQwsRQCCYAgQewbyvtAoBBBBIe4HNprfHx6aoac/guHx6rsnxMJdrJvSQ+yI9AxNy8Wa3vPJiOcFH2t91LhCBxAu0HPuj9JvZV3Sa2cke5706rOEr23dKyZatplbHvsRfMGdAAAEEEEiYAIFHwmg5MAIIIIDAfAIaeoiUSFlRjrxiipFevNHtKvjQ8OPHe33W6ajtMZ86vyMQTAHt1aFhR+fXX7oKOlQlMnzloNWrI2tZWTChaBUCCCAQIgECjxDdbJqKAAIIpKuABh+6blpZal2im6KmGnroMBd6e6TrXea6EEiMgD18RXt1dH51xtVJGL7iio2dEEAAgbQXWDQxMTHjIicnJ0VXe5n9u/09r94FHj58KE+ePJlxIP2M+QyShH/gmU84cfQEWEcpkv4m9s/1pUuXpu2fM2sqs+XP962UTSvyTXDRI9eahx1Zaehh9/boMHVBtKipHiuZS6ZYJ9MkGeeampoS/XvVXvi71JZI/Gsqn/nhH69KpzXN7HVXvToWm14cRZu3SrEZvlIxPXwlnZ+dVFon/klK3zOoe6x9Oj8j6asY35VhHZ9TIraK/TtU/04NynO+aGhoaIbX8PCwjIyMRL+b/Xv0B954FtD/Qj9+/HjGcfRBw3wGScI/8MwnnDh6AqyjFEl/E/vn+oIFC5J+ficnXF7ygiwvKZfakkVSXrREugcfuAo+egYnzFCZbPnd3mrZXJe80COTrJ3cl3TfdnR0VMbHx6OXyd+lUYqEv0nFM/+gt0fGb1yX/rPfyMitm67amGumly3c+7rkr3tRdPhKJjwzqbB2hRuwnfj3S/JuKNbJs559pti/Q/Xv1Ez4M3F2G+b6vEjTm9hFPz948CD61ezfoz/wxrPAo0ePfnEM/Q7zX7Ak9Aue+YTyzjg41jM4kvph9p/rmfDnzLrqXCnJXyz9I5H/195pb48uE3joOjX1QL43x9pUV5CU4CMTrZP6MCboZOoe+/dqJjzjCaJI+mGT/cyPmaBj6NzXMnH3jjwcGHDcXu3VkWummC3ctVeyV62x9s+U5yXZ1o5xA7oD/35J3o3FOnnWs88U+3eo/lmTKX8uzm7H7M/U8JgtwmcEEEAAgbQRKM1fIrr+bm+VFVZcaxpx3NvjVseoWGt7ZOrbZPb2SBtILgSBAAg8NL06rLDjwjkr7HDaJDvoyDE9OjToWFysRZNZEEAAAQSCLLCouLh4RvsWLlwoutrL7N/t73n1LpCdnT3DWo+4ePFiwdy7rZMj8Mw70fK2Ldbe/LzsrV0T7aWgoEAKCwvtjxnxusv8XbVrk8ittlH5f0/dk4s/dTu+bg09/nCuQ340dUFeWV9uzQrj+CBx7JDp1nE0MS03yc/Pl5ycnOi18XdplCLhb5LxzPdd/l56Tp8wQcdtV706SrfvkMr970r26rUZHXQkwzrhD0wGnoB/vyTvpmGdPOvZZ4r9O1T/Tg3K36OL9B++sYvWlIitKzH799htee9NICsrS2aPpdfAA3Nvrk735pl3KuZ+e6zd23ndMy8vL3oI/UssU/+c2Wn+ztKiq6+8aKawvdntOPj4qX1UdG3ueyi3OidlpzmOHsvPJSjWfpok41jqrv9Hgr1k6jNuX38mvSbymbdmYPnhe+k2hUmHG687ZsmprBINO6pN2FG00aSmGb4k0jrDaRJ6+fz7JaG8Mw6O9QyOpH6I/TtU/6wJyt+jDGlJ6mPEyRBAAAEEvApsXl0q1mqmsXUbfFy7Z2ZzMevVe33W5fgdenhtI/sjgIBIS/0nMnDtigw0/uhqBhYNOmrePSjFJujIKiuDFAEEEEAghAIEHiG86TQZAQQQCIKAHXxsMsGHLm6GuWjocbT+hlz6qccMcymzenwEwYY2IJDJAhOdHdJy/FPpOHPKVdARtF4dmXwvuXYEEEAg1QIEHqm+A5wfAQQQQMCTwBbT4+PjgxtMWFEml272OA4+tJeHrtfuRnp7VC3LlerSXE/XxM4IIOBcQIOOvobL0n+1wYQdp50fwOwR6dXxwXSvDn+Hq7m6IHZCAAEEEEipAIFHSvk5OQIIIICAHwIaeui6eVWpdbj2vjHR1cmioccR09ujvDhbPtxdR28PJ3hsi4BHgT5Tp6PtxHHXw1e0V0ftBx9K8UubAlGrwyMnuyOAAAIITAsQePAoIIAAAggERsDu7dE9OCHHzjW56u0h90S6BybMvgxzCcyDQUPSVsDu1dF+8nMTdrgvSlq8eatUvbU/bdvJhSGAAAIIpEaAwCM17pwVAQQQQCBBAhp66FJelC0vm7ocl8wUtlqjw8kye5iLzubCggAC/gro8BWrV8d1LUrqfKrp0m1alNQMXzG9OrLK+O+ov3eHoyGAAALBECDwCMZ9pBUIIIAAArME7GEudgDiNPTQw9nDXHTfnRQ1nSXMRwTcCUR7dZipZgdM2OF0ya6sFA07dKrZ4pc2O92d7RFAAAEEQiRA4BGim01TEUAAgTAKaOBx+OBGE1iUe+rtcdUUNe3oH7d6jVDUNIxPEm32Q4BeHX4ocgwEEEAAgXgFCDzilWI7BBBAAIGMFYjt7aFhhRY0ddrjQ3t7dA+Oyw+3euQQRU0z9lngwlMjYE01+9kxGbx+jV4dqbkFnBUBBBAIpQCBRyhvO41GAAEEwimgwYfOwqJFSeWJyCUTXjhZusx+XQOt1v7a20OHuVQxha0TQrYNoUCrCTqsqWa/POWq9aXbtk/X6thMrQ5XguyEAAIIhFeAwCO8956WI4AAAqEUqCjOEV0PH9ooL5tipN/fNEVNHQYfV0xvjy7t7XG7N9LbwwQfLAggMFNAh6/0m7XDBB0TLoqSUqtjpiefEEAAAQScCxB4ODdjDwQQQACBAAjYw1y2Ts/q4jT0sHp7XGqRbtPTo8MMkdGeHtrjgwWBsAtYRUmv/CDWVLMuipKqX+0Hh6TETDWrRUmZgSXsTxTtRwABBNwLEHi4t2NPBBBAAIEACFhFTX3o7VFRlGNpLFsaABSagIBLAe3RMXrxvKnV8aPrXh3L3z8kVfsOEHS4vAfshgACCCDwVIDA46kF7xBAAAEEQipg9/bYsqrUmoVFC5p+72CYS6S2x4QcrW+UumWL5aXl+fLSivyQatLsMAo87OuVsZuNMvzdWRm/c9sxgTV8Zet2KdmyzQo7HB+AHRBAAAEEEJhDgMBjDhS+QgABBBAIp8DWNaWi65bVyywAJ6GH7nDFTF175a7IT22j1v57txRar/wHAkEWGP/phgye+0Ym7tySh/39jptKUVLHZOyAAAIIIBCnAIFHnFBshgACCCAQHgENPQ4f3GjV5HDa20OVbprA41/Odcid7gfy2pblVq+R8OjR0rAITHR1ihYm7T32R0+9Oqr3vyfFmzaHhY12IoAAAggkUYDAI4nYnAoBBBBAIHMEnvb2KLUu2mlvDw09dLV7e7xMQdPMuflc6bwCrZ/Xy8DVBhm4fk0murvn3X72BiVm+ErNu++boGOLZJeVz/6ZzwgggAACCPgiQODhCyMHQQABBBAIqsDWNctMb48NVi+N7x3W9lATHeZyxNT20MDk5XVl9PYI6oMSknZprw4NOzpOf+Eq6MiuqJRSE3ZUH3jXCjtCwkYzEUAAAQRSJEDgkSJ4TosAAgggkDkCGnpY6/QUtk57e0Rqe5j6Hnd6rUbT2yNz7j1XGhGwhq+YqWa1V0f76ZOuWOjV4YqNnRBAAAEEPAgQeHjAY1cEEEAAgXAJ0NsjXPeb1kYE+k3Q0XbiuOvhK/Tq4ElCAAEEEEiVAIFHquQ5LwIIIIBARgrYvT10Kltd3Pb2uKq9PRaINcwlIyG46MALaK8OK+w4+bkM/HjNVXtr3/tAis1Us8UvbZbs8gpXx2AnBBBAAAEE3AoQeLiVYz8EEEAAgVALbDPDXD42tT12mLocl019DqfBR4Op7XH0WKO1rx5D63uwIJAuAlbQ8cVnJui46rpWh4YdVW+/Q9CRLjeV60AAAQRCKEDgEcKbTpMRQAABBPwR0NBDV53RRRc3oYcGH1duT9f2IPTw58ZwFNcCXnt1RIavmB4dpldHtQk7WBBAAAEEEEilAIFHKvU5NwIIIIBAIARie3ucvdoi11tGHLWL3h6OuNg4QQJee3Xkrn9Rqt8xvTp2vkKvjgTdIw6LAAIIIOBMgMDDmRdbI4AAAgggMKeA3dujIveRyBOR663OQw+rt8edPi3tYQ2VmfNEfImAzwJWrw4z+0rbF1qr46rjoy8uLZWcdRukcPdeKdn5qmQXFTk+BjsggAACCCCQCAECj0SockwEEEAAgdAKvFibJ7/bWyUb2/LkVsekXLk34MiiwRQzPVJ/w9T26DWhxzKCD0d6bOxUQGdf6Tdhh9taHSVbt8nSbS9Lztr1srgkMrTL6TWwPQIIIIAAAokSIPBIlCzHRQABBBAIrYCGHrq2Dj6R2vICqzBpR/943B4aekTWZdY+WtSUBQE/BbRXh4Yd7adOuC5KWmLqdNQceE+G8wv8vDSOhQACCCCAgG8CBB6+UXIgBBBAAAEEZgpsqiuSNcvLZfvaZXLsfLNcvt0zc4N5PtHbYx4gfnYsYA9f0V4d7ae+cLy/7qC9OmreeV+KN22xanUMNzW5Og47IYAAAgggkGgBAo9EC3N8BBBAAIFQC1SW5EhlyQqpKDav3+XIDyb0cNvbo9P0EtluentUmWOyIOBUQEOONp1q9ppONdvldHfJrqgQu1dH8eatjvdnBwQQQAABBJItQOCRbHHOhwACCCAQSoFtppdHhQkqdtzR3h5NprdHZCraeDG0t0eXCTx+MPsd3LWC2h7xwrGdRHp1XJG2k5Gwww1JzbvvW2GH3avDzTHYBwEEEEAAgWQLEHgkW5zzIYAAAgiEVmBmb49m6ewfcxR8dA6MS+cF3c+80tsjtM+Rk4Z77dVRsmWrGcKyXar3v8tUs07g2RYBBBBAIC0ECDzS4jZwEQgggAACYRKwe3toaCH1jY5CD3WK7e1xaFedGeYSKW4aJkPa+nyBia4u6b9m6nSYISz9ZgiL08UavrJ5m1S/856UMHzFKR/bI4AAAgikiQCBR5rcCC4DAQQQQCBcApHeHqYWx8GNst0MU9HaHk6Gudi9PXSYy8H+FVZtDz0mCwJ+9OqwipKaoCO7vAJQBBBAAAEEMlaAwCNjbx0XjgACCCAQBAGdwUXXbbdNLw0XvT1+MLU9tKfINhOa0NsjCE+E+zbQq8O9HXsigAACCARTgMAjmPeVViGAAAIIZJiAhh5+9PbYboKT7WvLGOaSYfff6+XSq8OrIPsjgAACCARRgMAjiHeVNiGAAAIIZKRAbG+PJ8caRXtvOFl0e111iMzhBWaojIYoLIEW0Oll+69didTquHrFcVsjtTq2SvUBU6tjyzbH+7MDAggggAAC6SxA4JHOd4drQwABBBAIpYAGFYcPbbTqevxwKxJiOIHQ0OOICUy0mKnV24PgwwlfxmyrvTraT35uBR46nMXpojOwVL9jppulVodTOrZHAAEEEMgQAQKPDLlRXCYCCCCAQLgE7N4eP6yNhBeue3usMb09THhCb4/gPD9+9OqoMT06ik3QQa+O4DwXtAQBBBBA4JcCBB6/NOEbBBBAAAEE0kaA3h5pcyvS4kK89uqoMdPMFpuhKxp4sCCAAAIIIBB0AQKPoN9h2ocAAgggkPEC0d4eprfGETOTi9veHjtMbxGrMCpDXDLumdBeHQOmVkfbF59Jv4taHSWbt5geHSboMENYtG4HCwIIIIAAAmEQIPAIw12mjQgggAACgRDQmhyHZbq2hylM6jT4uGz20alvG8wsLttM6MEwl8x4LCJFSbVWR4M4rdWRXV5hgo4tVtDB8JXMuN9cJQIIIICAfwIEHv5ZciQEEEAAAQQSLmAVIjXBhxYzddPbQ0MPXXdoL4+D1PZI+A3zcAI/enVEipJuo1eHh/vArggggAACmStA4JG5944rRwABBBAIsQC9PYJ987306lCZ6gPv0qsj2I8IrUMAAQQQiEOAwCMOJDZBAAEEEEAgHQXs3h6Xb/XIk/ob0mCmo3WyxPb2WGB6e+gwF5bUC7SfOiFtJ467qtWhQ1jssCO7ojL1jeEKEEAAAQQQSKEAgUcK8Tk1AggggAACfgjsWFdmHeYHrethVjfBh9b20ONsW7OM4MOPm+LiGDqExQ47nNbq0NNp0FGihUnffd/F2dkFAQQQQACB4AkQeATvntIiBBBAAIEQCmhYoav29jjisbfHYXp7JP0J0qBDp5xtO/GZ43PTq8MxGTsggAACCIREgMAjJDeaZiKAAAIIhEOA3h6ZdZ+99uqwZmA58D69OjLrtnO1CCCAAAJJEiDwSBI0p0EAAQQQQCBZArG9PY6db5YrprZH58B43Kd/WtujTA4f2mANc4l7ZzaMW2Dg2lVpO/m5Va8j7p2mN8wuL5fiTdPTzW7d7nR3tkcAAQQQQCAUAgQeobjNNBIBBBBAIIwCGnxUluSauh49Uv9ds4vaHj0ix8QMlYnU9dD6HizeBazpZn80YccXn0n/lQbHB4wEHe9JyRadbpbCpI4B2QEBBBBAIDQCBB6hudU0FAEEEEAgjAJVpTlSVVpngo8ccdfbo0cum8Bkx9oyObR7hbz/6oowMvrWZrtXh9brmOjqdHRcenU44mJjBBBAAAEEhMCDhwABBBBAAIEQCNi9PbSo6fHvmqThbp+jVmvo0dk/Jl0DE7J1TSnDXBzpiVi9Oq5fi0w366pXx2apOWB6dZjhK/TqcIjP5ggggAACoRUg8AjtrafhCCCAAAJhE4j29jC9PurPN5naHn2Oant09I/L//npdXnZDJX5+CC1PeJ9fgbM8JV2U6ujzwQd9OqIV43tEEAAAQQQ8C5A4OHdkCMggAACCCCQUQIaWFSZ2h5ue3t8b3qJ6KK9Rujt8exbT6+OZ9vwCwIIIIAAAskQIPBIhjLnQAABBBBAIM0EYnt7aPBx5Xavo2EuGnroSm+PuW8svTrmduFbBBBAAAEEkilA4JFMbc6FAAIIIIBAmgloYKHr9z/1yJH6RrnisLaH3dvj5fWmt8fqUtPjI9wzuUz0dIuGHW0ndAaWHxzf7eJNm6Xa1OoopVaHYzt2QAABBBBAYLYAgcdsET4jgAACCCAQQgENLHTRAOPKnV5HwUdsb4/DprZHWEOPSK+OE6ZWxw/uanW8ZAqTvvuBVZg0hI8gTUYAAQQQQMB3AQIP30k5IAIIIIAAApkpoKGHrl57exzaXWfV9qgozslMCIdXTa8Oh2BsjgACCCCAQJIECDySBM1pEEAAAQQQyBQBr709OvvGZIcJTj54dUXge3t46dWhz0P12wfo1ZEp/8XgOhFAAAEEMk6AwCPjbhkXjAACCCCAQOIFvPT2aDfT17afa5KOvnE5fHCj1dsj8Vec3DNMaq2O69dMrY7j0tfgvFZHdnm5VO07ILXvH5LsisrkXjxnQwABBBBAICQCBB4hudE0EwEEEEAAATcCdm+PY+ebrLoeXQPjcR/GLmi60/T22LJ6WWCCDw077vyn/ydSq6OzM24Pe8Mq06ujZPNWK+ywv+MVAQQQQAABBPwXIPDw35QjIoAAAgggECgBDT10Glut7XH8QrOHgqaZ39uj48uT0n+1QVo/q3d8j+nV4ZiMHRBAAAEEEPAkQODhiY+dEUAAAQQQCIdAVWmufLQ31wQfuZ6mr83U3h7aq6P99Elp/fyYTNCrIxwPPa1EAAEEEMh4AQKPjL+FNAABBBBAAIHkCWhvjyfmdN//1C1X7/TJlXt9cZ/cnr5257oyOXxooxnmUhr3vqnc0OrVce2KtB4/5vgyssvKpeilTbLu3/83kl1Z5Xh/dkAAAQQQQAAB9wIEHu7t2BMBBBBAAIFQCmgvDV0vmSEuR481Ogo9FOzSrR7L7dCeOiv0SNfpa7VXh4YdLZ+569VRbIKO6gPvSenW7YQdofxvCo1GAAEEEEi1AIFHqu8A50cAAQQQQCBDBTT00MVNbw8NPTrMbC7aY0Snr0233h46A0v7qROeenXUvPuBlG7bkaF3l8tGAAEEEEAg8wUIPDL/HtICBBBAAAEEUiYQ7e1xs9vU9rghVx0McWnvG5P2s2Nm+toxa/radAg9ItPN/jg93exlx65Wr47971pBB0NYHPOxAwIIIIAAAr4KEHj4ysnBEEAAAQQQCKfAzhfLrYbr9LUaenQNTMQNoUNjdNm5vtzq6ZGq4MPu1dHXcNlxYdIsU6tDww56dcR929kQAQQQQACBhAsQeCScmBMggAACCCAQDgENPaqW5Uamr/2u2VFvDw09dNUeI4cPJregKb06wvF80koEEEAAgfAJEHiE757TYgQQQAABBBImUG2mra3W6WtLchwPcdGLSnZvD3p1JOxR4MAIIIAAAgikXIDAI+W3gAtAAAEEEEAgeAL2EJeLptfGtbt9rnp7vGKGuHx8cENCCppavToap2t1/OCiVsfGlyIzsJiipNTqCN7zS4sQQAABBIIhQOARjPtIKxBAAAEEEEg7AQ09dL3koqCpNubiT91Wm6zpa1eVSnlxti9tHDRBh87A0meCjvHODkfHzCork+KN07U6tr/saF82RgABBBBAAIHkChB4JNebsyGAAAIIIBA6AS+9PTT00NlctLbH+x6nr6VXR+gePRqMAAIIIBByAQKPkD8ANB8BBBBAAIFkCHjp7fF0+tpx10Nc6NWRjLvMORBAAAEEEEgvAQKP9LofXA0CCCCAAAKBFtDg44lp4afnmuRHnb52MP7pa+0hLq+YY2xeVSKbV5fOazXZ0yMDVq2OemsIy7w7zNqgSGt17H9XSs3wlZzKqlm/8hEBBBBAAAEE0lmAwCOd7w7XhgACCCCAQAAFNLDQ2VwumeEqxy80y7V7/XG3UkMPXbWg6WFT0PR5oYeXXh16QVVvvS01735ghR1xXyAbIoAAAggggEDaCBB4pM2t4EIQQAABBBAIj0D1MjN97bJVUmWCjyP1jY5CD1Wa3dtjtlzHmdPSdsJdrw4tTFr15ttSe/AjenXMhuUzAggggAACGSRA4JFBN4tLRQABBBBAIGgC2ttDF53J5aoZ4uK2t8feVQus4yyaGJclA31y++K3jmdg0QNor47izVtluQk7WBBAAAEEEEAgswUIPDL7/nH1CCCAAAIIZLyAhh66XtTpa4+Z3h734x/ioo3X3h4jI1lSNvWzrOpvleLOuzI+PubIJdKrY5/p1fErenU4kmNjBBBAAAEE0leAwCN97w1XhgACCCCAQKgE7N4eGnxcu2t6ezgIPm52TErbg2wZGC+UbY9ypU7iDzzswqT06gjV40ZjEUAAAQRCIEDgEYKbTBMRQAABBBDIFAEvvT1GlxTKj2YdWFwgbw9clLoH3c9ttvbqKNrwktS+p4VJdz53W35EAAEEEEAAgcwTIPDIvHvGFSOAAAIIIBB4AQ0+npj5az89f99MX9sv3Q6mr23PXSFfGqFV4y2yYqrTBB89v/Aq2rAxMt3sjp0MYfmFDl8ggAACCCAQDAECj2DcR1qBAAIIIIBA4ARe3VAuNWY2Fx3i8plOX+tgiEubCT10rRlrln0DF6KhR6RXx0apffeglJqwgwUBBBBAAAEEgitA4BHce0vLEEAAAQQQyHgBnb72N9PT12pvj1OX2xy1SUMPu7fH+vzHsv+3B6ygI6eyytFx2BgBBBBAAAEEMk+AwCPz7hlXjAACCCCAQOgEtLeHNF6Qgf7L0pZVKT058QcWdm+PnoJH8vKG12R5ZUno/GgwAggggAACYRRYGMZG02YEEEAAAQQQyByByd4e6fz6jEzW/2c5NHjeGqJSNt7puAE3hxfJ0fpG+YdTtx3VBHF8InZAAAEEEEAAgbQQoIdHWtwGLgIBBBBAAAEE5hIYvHFd2k9/IX2XL8l4R4e1ybqpdpGB7+T25HLT26PK9PaonGvXOb+7YOqB6NrWOyrvv7JCNq2it8ecUHyJAAIIIIBAAAQIPAJwE2kCAggggAACQRPQXh2DNxql7fNj0nv5+180T0MPXW8trTY1OnY5Cj30YH/45p60947JR3tWyts7an5xfL5AAAEEEEAAgcwXIPDI/HtICxBAAAEEEAiUgIYdd//xP87o1fGsBsb29vgpf62ML85/1qa/+F57emjooVPeblpZQm+PXwjxBQIIIIAAApktQOCR2fePq0cAAQQQQCBQAtqro8MMYWn59I9xt8vu7ZFVXii3F2dJ78TiuPdt6xuTv/vDVXn1xXI5fGijFXzEvTMbIoAAAggggEBaCywaHh6ecYEjIyMyOjoa/W7279EfeONZYHJyUp48eTLjOI8ePRLMZ5Ak/APPfMKJoyfAOkqR9Dexf64vXLhQdGVJjADW7lwfDQ7IxL270nnyczOE5ZKjgywuLpbRvAJZUTol8rhPXnicI11TBY6Oob09dNm1sULWVOXKWrOyxCfAMx+fkx9bYe2HovNj8O8X52Zu98DarZz3/fR/m9rL2NhYYP436aKBgQG7Xdar/o9tfdDsJS8vz37Lq88CExMT8vjx4xlHffDggcy+JzM24IPvAjzzvpM+84BYP5Mm4T8MDQ1Fz6F/7sz+syf6I288C2DtnFCDjuEL52T0xo/ysKfH0QGyV62Wglf3yOCjxzLU0SmFCwdlfd6Y7Ni0Vm53jFlrvAe0C5puqSuQ3+2tIvSIE45nPk4oHzbD2gdEF4fg3y8u0FzugrVLOB9205DDXvQ+BOV/kzKkxb6rvCKAAAIIIIBA0gVGLl+UwbNfy1jjdUfn1l4dWStXy//P3n3AR3He+R//YQuEhBodCUkUiSJjgzG9GXAF95qAA4HYl+KUSz0nl9z5f2l3ceLkLuWcbkPwGdux425wxYCpxmBMEWAJ1ED0IomOzX9+I6+8WpV9ZrVtZj+Tl6zd2Wdmnuc9E0n++ilZ4yZKp6Ih0mHTJhEr8NAtNemszJycK5vLauSZ1dWOQg89flN5fe/Xi63gY/TAztIl3XyIjB7PhgACCCCAAALxIZCUnJzcqCb6/vRpq0vox1vg5779fG+7QFJS07ypXbt2gnnbbZ2cgWfeiVbbymLdNr+2HN2hQ4eGw/U+8HOmgSPsL7A2I9WJSY+sWytHly+RMw57dXTs1k16TLuhPujo3sO+YPv27cX/96o+4yMGdZcO1vdNVvBRavX22FJ+2KxyVikNPfRr/7HTMqGoi1xkTWrK1rwAz3zzLpHYi3UkVIOfk79fghuFqwTW4ZJ0fh7/36H6O9UrfysmZWZmNtHwn1eiuc+bHMCOkAQ6duzYZBy9PmiYh8TZpoN45tvE5+hgrB1xha2wfzfojIwMfs6ETbbpibBuahK45+j2Yjn81ptywJqvw+mWNWiwZE+9UrpPvbrRoenp6ZKSktKwz/e7dOKwTJk4zAowrNBj/uJtjkIPPdkbGw9Yq7ictv8/Q+jRwNvoBc98I46IvsE6orytnpy/X1rlCeuHWIeV0/hk/r9D9Xeq7/eo8QnitGCSf8O0jtq7w7+HR+DncdoOV1ZLkzPt0eG/6T7M/UUi/5pnPvLGvitg7ZOI/ncNWH2bvubnjE8j/N+xbtlUe3Uc275N9ry2SA6udzYxqfbqyBpUJL2vnibdLhvZ5CL6X6L8/+t34DM+uqg+DHln237ZWnbYUfChPT2eWFouo/bVL19L8NGYn2e+sUck32EdSd2Wz83fLy3bhPsTrMMtan4+/9+h+js18Peo+Zniq2TTMRXxVT9qgwACCCCAAAIeENBeHdVWr46D69fJieo9jlqUafXqyJlypR10pGbnODrWv7CuwKJfa4v3yTyrt8dWB0Nc1m7bJ/o1enBPmTttMENc/GF5jQACCCCAQJwKEHjE6Y2hWggggAACCHhFQMOO0oWP2mGH0zb1HD9Rcq+Z3myvDqfn8pXX0EO3l1aXSXHZEWuejpO+j4J+19BDN0KPoFQUQAABBBBAIOYCBB4xvwVUAAEEEEAAAW8KnDp4UI7tKJaqVxc7Djt0CEvP8ZMk//qbpC29OlqS1dCjd/c0u7fHa+sqHff20PPqOS7q05neHi0hsx8BBBBAAIEYCxB4xPgGcHkEEEAAAQS8KBCOISwadkRy692tk9w6qb/od4a4RFKacyOAAAIIIBAbAQKP2LhzVQQQQAABBDwrsG/l21avDp2YdJ2jNmqvjsyBgyVXJyYdMcrRsW0p7Bvissaa26PYmtdja/kR49PpEBedfnwO83oYm1EQAQQQQACBaAkQeERLmusggAACCCDgcYFThw6Khh0VLz0nJ/Y4m5hUw45+t3/KmqtjVESGsASj19BDv+onNC12FHqs+XheDz2+iCEuwaj5HAEEEEAAgagJEHhEjZoLIYAAAggg4F0Be7nZpW9IxYvPO25k/SosV1jzddzs+NhwH+Dr7TFvsfPQQ4OPMdYqLvT2CPdd4XwIIIAAAgiEJkDgEZobRyGAAAIIIICAJaC9OjTscNMQlmA3zhd6hDLExdfbg9AjmDKfI4AAAgggEHkBAo/IG3MFBBBAAAEEPClwbMc22fPWm9ZcHe84HsKSOXCQ5Ey50pqrY6Q1hKV33Plo6KFfGnrMW1QsxRXm83r4Qo8xF+kQly72MJe4ayAVQgABBBBAIAEECDwS4CbTRAQQQAABBMItsG/VxxOTvutsYlKtR89xEyT3mulRnZg01PaPsUIP3V5aVSbL3jefl0RDD98Ql7nTiwg9bEX+gQACCCCAQHQFCDyi683VEEAAAQQQcLWAPYTF6tmxY/5fHffq0IlJNezIv+HmuOzV0dKN0dBDl67tnpUiW8sOh9Tb4/rxfeXyoTktXYL9CCCAAAIIIBABAQKPCKBySgQQQAABBLwooENYqpe+KQfeDW0IS/aUK6TPDbe4kia3e5p87bahIQ9x2X2wTg4ePckQF1fefSqNAAIIIOBWAQIPt9456o0AAggggEAUBfatWlE/MakVdjjZOnbtJjpfh1uGsARrmz3E5bzIi6vLZLmDIS5VB4/Lb/7xvujxc6cxxCWYM58jgAACCCAQDgECj3Aocg4EEEAAAQQ8KqBDWPZbYUf5i886HsKiQYf26uh+2ShJzYm/iUlDvWU6GWnv7tYQl8yOUlx+xNkQF2sSVN1uGNdXJjHEJdRbwHEIIIAAAggYCRB4GDFRCAEEEEAAgcQT8A1hKX/hOceNd9PEpI4bZx2gQ1z++fZhsmartYrLYoeruFihx+4Dx+UAQ1xCoecYBBBAAAEEjAUIPIypKIgAAggggEBiCJy2enUc+2C7VL2yyJ6vw0mrO3btKhkDBsnAOfd4qldHSwba20O3F1ftkuWbqlsq1mR/lTWnhw5xGWsNcZnDEJcmPuxAAAEEEEAgHAIEHuFQ5BwIIIAAAgh4RODYju0fT0y6NoQhLAMle/KV0n2Et4awBLu1viEu3TJTZFuFsyEuq/2GuExkiEswaj5HAAEEEEDAkQCBhyMuCiOAAAIIIOBdgf2rrYlJQ+jVoSI9xo6XvGumS7eRo70L1ErLdIjL1+8IbYiLhh5VOsTl2CkZnN/ZWsmlcytX4iMEEEAAAQQQMBUg8DCVohwCCCCAAAIeFfANYdk+7y+Oe3XoEJYeYydInxtvSYghLMEeAf8hLtrbQ0MMk02HuPz66Y0McTHBogwCCCCAAAKGAgQehlAUQwABBBBAwIsCOldH9dI35cC6dxyHHZkDrCEs1iosfW681Ys0IbfJN8RFJzR9bV2lbKs8YnyuhiEu4/vZvT26WSvBsCGAAAIIIIBAaAIEHqG5cRQCCCCAAAKuFjh96FD9xKSvvmyHHU4a45uYNNcawtI9QYewBPPSIS65k9Ps5WvnLdrmOPTYffC4jLEmNL1qZJ4dfAS7Hp8jgAACCCCAQFMBAo+mJuxBAAEEEEDA0wIadux65smPe3XsdtRWX6+O7iNGM4TFQG7sRb3sUi+uKpPtDoa4VB6oE/2qsr7mTi8i9DCwpggCCCCAAAKBAgQegSK8RwABBBBAwMMC9UNYlkj58886bmWPMeMk91rt1THG8bGJfICGHtrjgyEuifwU0HYEEEAAgVgIEHjEQp1rIoAAAgggEAOB/WtWWauw6BCWtY6unmxNTJpZOFAGfe7z9OpwJPdJ4YYhLt06ybzFIQ5xsYKTq0bk0tvjE1ZeIYAAAggg0KoAgUerPHyIAAIIIICA+wVOH9b5OnbI9kf+bE1MGsIQlslX2HN1pOb0dj9GjFswdsgnQ1x0MtODhqu42ENclpbUD3GZNpjQI8b3kcsjgAACCLhDgMDDHfeJWiKAAAIIIBCSgG8Ii/bqcBJ2+Hp1MIQlJPZWD9LQI7dHmqzeuldeX1flbEJT6xjdbhzXVwbldxZWcWmVmg8RQAABBBJcgMAjwR8Amo8AAggg4F0B7dVRuvDRkIaw9Lv1DnuuDnp1ROb50CEud0wulNxuac6HuFihx25rMtMxDHGJzM3hrAgggAACnhEg8PDMraQhCCCAAAII1Av4hrCEMl9H5oABkm0NYelz021wRkFAe3uct66jvT1WbKqWgzWnjK7qG+Kiwcdca4iL9vZgQwABBBBAAIHGAgQejT14hwACCCCAgKsFNOwoe+Yp2b9ujZzYbT5fR8MQlmusVVhGsQpLNB+CcVbooV/a6+ONdyutIS5HjS+/6uMhLhqcTLg4myEuxnIURAABBBBIBAECj0S4y7QRAQQQQCAhBHQIy95lS6TsuX84aq+GHQxhcUQWkcJ3TrGGuFihx/zFxY5DDw0+qvbX2au40NsjIreHkyKAAAIIuFCAwMOFN40qI4AAAgggECiwf+3HS86+42zJ2YxChrAEWsbyvfb00G3Vlr2ycrP5EBc95u9+q7gQeqgIGwIIIIBAogsQeCT6E0D7EUAAAQRcLaBDWPavXS3lzz0txx0MYdFG9xg9VnKvvY4hLHH2BPiGuORZK7m8bg1x2R7CEBc9x3iGuMTZnaU6CCCAAALRFiDwiLY410MAAQQQQCBMAjUlO6R6aWhDWDTs6HvzbZKakxum2nCacAv4hrjMs4a4OA097CEu1oSmV16Wy4Sm4b4xnA8BBBBAwDUCBB6uuVVUFAEEEEAAgU8Eako+kBJdcvadNZ/sNHjlG8KiYQdb/Au0ZYjLk2+VSKU1rweruMT/faaGCCCAAAKRESDwiIwrZ0UAAQQQQCAiAvaSs1bYYS85G0LYUThzljWEZWxE6sZJIyPgG+KSaw1xeWOdNcSlytkqLu2sao272BriMiRbumZ2jEwlOSsCCCCAAAJxKEDgEYc3hSohgAACCCDQnIC95OyzT1u9OlY7mq8juUsX0Z4defZ8HYQdzdm6Yd+nrFVc8qxVXOYtsoa4OAg9VloruOhX5RRriMuIPBmUl+WG5lJHBBBAAAEE2ixA4NFmQk6AAAIIIIBA5AV0CEu1LjlrBR5ONg07+t56h3QfOUY69Wa+Did28VjWN8RlpbWKy46KI46CDx3iokvXzpleROgRjzeXOiGAAAIIhF2AwCPspJwQAQQQQACB8AroPB2Vi18KYb6OQsm+/AprctLbw1shzhZTAd8QF126NpTeHlp5HeIyMK8zwUdM7yQXRwABBBCItACBR6SFOT8CCCCAAAIhCugQFg07tFfH8d1Vjs7SfdSY+iEs1mosbN4U0ODj/HmR+bqKSwhDXMZbx8+dVmQFHwxx8eYTQqsQQAABBAg8eAYQQAABBBCIQ4G2DGHRsKPvLXcwhCUO72u4qzTe6qmh26ot1bKj8qiz4MPqIaIboYfNwD8QQAABBDwoQODhwZtKkxBAAAEE3C3Q5iEstzCExd1PgLPaa+ihXys373Xe2+Pj0OPG8f3snh5dM1jFxZk+pRFAAAEE4lmAwCOe7w51QwABBBBIKIHThw9LTekHsv3hP4UwhGW0NYTleunOEJaEemb8G+vr7eF4iIsVelRak5nq8VdelscQF39UXiOAAAIIuFqAwMPVt4/KI4AAAgh4RUCDjuplb8mBtbrkbJVxs+wlZwsKZdDdX2QIi7GadwvWhx7nxV7FxRrissNwbo/KA3XyxJISO/hgiIt3nw9ahgACCCSaAIFHot1x2osAAgggEHcCGnaULFxghR1rHNUtwwo6sidPle6jxhJ2OJLzduHxF2dbvTWyrSEu1TJv8Tbj0ENVNCjRjdDDZuAfCCCAAAIuFyDwcPkNpPoIIIAAAu4V8A1hqXzFWnI2hLCjcOZshrC49/ZHvOYaeugWaujBvB4Rv0VcAAEEEEAgwgIEHhEG5vQIIIAAAgg0J3D6yGEpf+5p2R/KEJb+hZI77TrCjuZg2ddIQEMPa+Vau7fHB1XHjHt7aE+PKmuYy/gh2XLFZbnM69FIlTcIIIAAAm4RIPBwy52inggggAACnhGoKS2RvcuWyK5nnnLUJp2vo+/Nt9tBR6feuY6OpXDiCkywQg/9WmENcZnvYIhLhTWRacX+D6x5PWplzrQiQo/EfYRoOQIIIOBaAQIP1946Ko4AAggg4EaBA+vWStXil+yeHU7qb8/XcflU6XvrHU4OoywCDQIaeujmJPTQ8is+nteD0EM12BBAAAEE3CRA4OGmu0VdEUAAAQRcK6BDWLRnx/aH/yjHq6octaP7yFGSay0522PMOEfHURiBQAFf6PHCyjJZvbV+gtLAMs2994UeN07oJwNys6RrRsfmirEPAQQQQACBuBIg8Iir20FlEEAAAQS8KGAPYVn+ltWrY5WjsMNecrZ/gQy6R5eczfMiDW2KgYCGHnk90qVLerLovB4f7D5qVAsNPXT5Wp0X5EprXg8NPtgQQAABBBCIZwECj3i+O9QNAQQQQMD1Ahp2lFpLzurkpE62jIICybaGsHQfrUvOEnY4saNscIH8Hmly38zLZMWm+qVrTUMPe16PN3Vejzpr6drBhB7BqSmBAAIIIBBDAQKPGOJzaQQQQAAB7wqcqzkmR3aVytG3l4YUdhTMmM0QFu8+HnHTsgmXfLJ0rWnooZXXCVB109Cjg/2KfyCAAAIIIBB/AgQe8XdPqBECCCCAgMsF7LBjyetSu2mjnNlnPk9Ccucukm4NYcmbxnwdLn8EXFV9X+jxwspd1vCWY3Ko5pRR/X2hx5jCVOnTI1WyOrU3Oo5CCCCAAAIIREuAwCNa0lwHAQQQQCAhBE5VVUjtu+/IoddfcdReDTv63Hyr9Bg9TjrlMoTFER6F2yygoUdezzRZuWmvvLG+ynxeD6unx87dHeWygkwZM6izDM3MbHNdOAECCCCAAALhEiDwCJck50EAAQQQSHiBgxp0LHpBat/f6Mgiw+rV0evyKdLvtk85Oo7CCIRTIN+ayDT/ynRrQtM0mbd4m3HoUX3klLy07pRUHzkt6enpMjyLyUzDeV84FwIIIIBA6AIEHqHbcSQCCCCAAAK2gC45q2HHrn886WgVFj2424hRDGHhOYorAd8QFyehhzZgfelRaZ+0S9LS0pjMNK7uKJVBAAEEEleAwCNx7z0tRwABBBAIg0DtzlKptpac3fX0k47Olty5sx12aK8OhrA4oqNwFAR8ocfz1rweJdbStYdqzeb1WLP9oCS13yY3Tegnhb0zpWtGxyjUlksggAACCCDQvACBR/Mu7EUAAQQQQCCogIYdJbrk7JpVQcv6F7CHsEyyhrDczhAWfxdex5eAPa+HNbxFJyd9057X45hRBbW8Llurx185PFcKc5nXwwiOQggggAACYRcg8Ag7KSdEAAEEEPC6gA5h0bCjcvFLIYUdBTNnWUvOjvc6E+3zgEB+T2teD+srz5rfY/7iYnsVF5NmVeyvlYo3aqVyX621dG0RoYcJGmUQQAABBMIuQOARdlJOiAACCCDgZQENO8qff8YOOo5XVRo3VYewpPfzLTlL2GEMR8G4EJho9dbQzUnooeXftnp76EboYTPwDwQQQACBKAsQeEQZnMshgAACCLhXoHaXNV/HstDm6+hzk7XkrNWrg/k63Hv/E73mvtDj+RW7pHT3UWtej9NGJL7QY+LQHBk9uId0YV4PIzcKIYAAAgi0XYDAo+2GnAEBBBBAIAEEDq5fJ5WLXnQ8hCW9X3/J1iVnb/90AijRRK8LaOiR//G8Hm+8WyUle8zm9dDQQ7/uunKgXHGZNa+HNaEpGwIIIIAAApEWIPCItDDnRwABBBBwtYA9X8eunbLtL3+wlpw1H8Kije48bLj0vf4m6TGWISyufgiofCMB/3k95i0qNg499CSPvbFDKnRej+nWvB6EHo1ceYMAAgggEH4BAo/wm3JGBBBAAAGPCJw+ckQqXnhW9q1e6SjsSMrIkE5FQ6TvHTOkx6DBHtGgGQg0FvANcfnz8xul/MDJxh+28s43xIXQoxUkPkIAAQQQCIsAgUdYGDkJAggggIDXBHS+jr3Ll8rOp55w1LSOubmSftko6Xr1dOmQSbd9R3gUdp2Ahh4H9h+QN98/IBVW6HHsxFmjNmjo0a6dyMRLcmQU83oYmVEIAQQQQMC5AIGHczOOQAABBBDwuICGHSULH5X9Vs8OJ1u3y0ZIxxFjJG3opU4OoywCrha4rDBTsrsky7slR2VdSY3s2ldn1J7lm6pFvz5z1UCZOpx5PYzQKIQAAggg4EiAwMMRF4URQAABBLwucHDDu/WTkzoIO+qXnO0vg//pXjn44UdeJ6J9CDQRyO7SUW4Y3UsK87rK35dVOJrX4/9er5/XY8405vVoAssOBBBAAIE2CRB4tImPgxFAAAEEvCJw5ugR0bBj51OPy/FK88lJ0/v1k16TpkjPsRPsJWcPlpd7hYR2IOBYYMzgbtIptZPMW+xsMlPt6aEboYdjcg5AAAEEEGhFgMCjFRw+QgABBBBIDIFaaxWWvW9b83X8/XFHDdawo3DmbGsVlgmOjqMwAl4WmDg0W85b/3t+xS4ptZatPVx72qi59aFHO5lkHT9ycE/pkp5sdByFEEAAAQQQaEmAwKMlGfYjgAACCCSEgIYdpQsX2CuxOGlwt+EjJG/69YQdTtAomzACk4bmiC5f+/amPfLm+t128GHS+OVWef3SeT2usOb1KGDpWhM2yiCAAAIItCBA4NECDLsRQAABBLwvEErYYc/X0dear+Pz99pDWLyvRAsRCE2gjxV49Ok5SPJ7pFtDXLYZhx56tfp5Pepk7rTBhB6h8XMUAggggIAlQODBY4AAAgggkJACh95bb01O+oKjnh0aduTfcIv0HDeesCMhnxoaHYqA9vbQzWnooT09dCP0sBn4BwIIIIBACAIEHiGgcQgCCCCAgHsF7MlJrbBj598XOpuctG/95KT975zh3sZTcwRiJOALPZa/v0fWbd/vYF6P+tCDeT1idOO4LAIIIOByAQIPl99Aqo8AAgggYC5QW2ZNTro8hMlJrbCjwJqctOc4Jic116YkAo0FNPTQr/97bbu8ucH5vB6zrhokUy/rLdkySq0AAEAASURBVAU5mY1PzDsEEEAAAQRaELighf3sRgABBBBAwFMCtWXWihELH3W8EkvXS4dbYccswg5PPQ00JpYCn7l6UP0wFYfBxaOvb5d5i5zNBRLLdnJtBBBAAIHYC9DDI/b3gBoggAACCERYoD7ssFZiWbXC+ErJWVmSZvXsKPr8l6VTXr7xcRREAIHgAvYQl/M6r0exlFbXBD/g4xI6r0e7diJzdDJTh4GJ8UUoiAACCCDgGQECD8/cShqCAAIIIBAooPN1aNhRuehFx2FH/o3W5KRjJxB2BKLyHoEwCUwaVj+Z6TJrXo93d5jP66HlddPQZOSgHtI5PTlMNeI0CCCAAAJeEyDw8NodpT0IIIAAAraAhh3lLz5nBR1vhzA56WTpf+dMJBFAIMICGnro16PWvB5L1lcZ9/bQ0EO/ZlnDY6YOZ16PCN8mTo8AAgi4VoDAw7W3joojgAACCLQkoL069r5tTU765MKWijS7P71vXymYYc3XMX5is5+zEwEEIiOgwUWfHumOh7hoUFKxr5YhLpG5LZwVAQQQcL0AgYfrbyENQAABBBDwFwhlvg49XicnzZt2A2GHPyavEYiigPb0sKb1sEOPnQ7m9fANcZk7rUj652REscZcCgEEEEAg3gUIPOL9DlE/BBBAAAFjgUMbN0jlyy84nq+DyUmNiSmIQEQFLveb12P9dmtej7rTRtfzhR43T+wn/bMzmdfDSI1CCCCAgPcFCDy8f49pIQIIIOB5AXty0vIyKf7TQ9Z8HRXG7dWVWPJvsCYnHcfkpMZoFEQgwgIaeujXo69ulzc3VIlpbw8NPXR4i05metvlBYQeEb5PnB4BBBBwgwCBhxvuEnVEAAEEEGhR4MzRo1Lx0vOyb6VOTmoedqT16SvZk6zJST/F5KQt4vIBAjEUmHXNIMnvWT+vh2noUWYFHmXWvB66TR2eyxCXGN4/Lo0AAgjEgwCBRzzcBeqAAAIIIBCSQJ1OTrpimZQ+8Zij4zXsKJw5m/k6HKlRGIHoC/iGuMxbXGzc00NruaBhMlPm9Yj+XeOKCCCAQPwIEHjEz72gJggggAACDgQ07Ch5fIHVs2OFg6OsyUmHXSp5028k7HCkRmEEYifgCz2Wbdwt7+44IEcM5/VYag1x0W0Ok5nG7uZxZQQQQCDGAknHjx9vVIUTJ07IyZMnG/YFft7wAS/aLHDmzBk5f17nI/9kO3funGD+iUc0XvHMR0O5/hpYR8868Er+P9fbt28v+uXm7fj2Ytnz6suOwo6k9HRJzukt+Z+ZK53y8iP2s9Zr1m55TtT99OlPJrjkd2n07lw0nvkRhZmiXwuseT1WbN4vlYc++Vu1tZb6Qo8bxvWRi/LTWyvqis+iYe0KiChXkr9fogeOdfSsA6/k/ztUf9Z45fdo0sGDBxu1taamRmpraxv2paSkNLzmRXgF9CH66KOPGp1UQ5DAe9KoAG/CLsAzH3bSFk+IdYs0Ef/g8OHDDdc4e/as6Jcbtw9ra+R09R7Z+/eFcmZvtXETNOzIunyqZFw6Qk6mpMrJgN99xicyKOgVa4OmxlWRo9ZcLnV1dQ114ndpA0XEX0TzmZ9+WVfpnn6hPLuq2lHoUVJ1WGZNzZPcbimSkereDs7RtI74g+OiC/D3S/RuFtbRsw68kv/vUP2d6pXfo+79iR94h3iPAAIIIOBpAQ07jixbIjXvrXcUdiTn5Ej68JHSbdoNnvahcQgkisDIAVl2U52EHrsPn5JHl1SKHnvVpT1cHXokyn2mnQgggEA4BJICuzXr+6SkT3KQwM/DcVHOUS9w4YUXNqFo166d67uaN2lUnO/gmY/eDcI6etaBVwr8ue62n+0nqyrl6Lo1cnDxS4FNa/V9al6e9Lj+Fkm/9LJWy4XzQ7dbh9MimudSd//fq257xqNpFe5rxeKZH3dRd/vvpTc2HpCNOz/pwdZa2zT02L1mr11k9MDO0i87o7XicflZLKzjEiLKleLvl+iBYx0968Ar+f8O1Z81Xvk9mpSVVZ+S+xqs/8LtvwV+7v8Zr9sm0LFjR7ngggsanUQfLswbkUT8Dc98xIkbLoB1A0XUX2gXUd+WmZkp+uWWrbZ8lxyx5us4tHa1oyp3GTpMsq+eJl1GjXV0XFsLu9m6rW2P5fFpaWniPwyX36XRuxuxeuavGpUlRf17yuNLdsp6B5OZPmeFHnsOn5Y512Zay9a652eh3tFYWUfvaYrPK/H3S/TuC9bRsw68kv/vUP2d6pXfo0mpqamN2qpzSOiXbwv83Lef720X6NChgwT+n1qTNMzbbuvkDDzzTrTaVhbrtvm15Wj/X2L62i0/Zw6//55Uv/yCo7CjgxXkd7lkmBTM+Iyk5fVpC1tIx7rVOqTGxtFB6p6cnNxQI7c84w0VdvGLWD7zA6y/Y//9s13lb69skyUbdsuuvZ+Eu62RvvPBEevnYIXMtVZwcVNPj1hat+bp9c/4+yV6dxjr6FkHXsn/d6j+rPHK79FPxq4Etpj3CCCAAAIIxEjgzDFrAsryMin+0/9KXUWFcS3S+vSRXhMnS8GnP2N8DAURQMD9Ap+9drD06Zku8xZvMw49lm6sX7b2lon9ZfiA7u5HoAUIIIAAAk0ECDyakLADAQQQQCCWAhp2VLz0vLXk7HLHYUfhjNnSc8KkWFafayOAQIwEJl/a276y09CjfG+tfP2OYdK3V4Z0Tv+kl1CMmsFlEUAAAQTCKNB4AokwnphTIYAAAggg4FSgrqLMDjtKH/8/Z2FHfh8h7HCqTXkEvCegocfcaYOlnxVemG5l+2rl109tlGeW75QjtadND6McAggggIALBOjh4YKbRBURQACBRBDQsKNk4QLZt+JtR83VyUnzp99Izw5HahRGwLsCvp4ez769SzaUHDBqqIYeZa9us+ZWE5lihSZumtfDqIEUQgABBBJUgMAjQW88zUYAAQTiSeDwpo1S8bI1jMVB2BHryUnjyY+6IIBAYwENPfpYvTzmv1Is731wUI7UmfXcmG9NfqpDXOZoLxEXLlvbWIF3CCCAAAIEHjwDCCCAAAIxE7AnJ60ol+I//s7xEJZeEy+3VmKZFbO6c2EEEIhvgb690uX/zRlthR7b5C0HK7i8tXG33TBCj/i+v9QOAQQQMBEg8DBRogwCCCCAQNgF7MlJrSVn961Y5jjsKJw5yxrCcnnY68QJEUDAewJzrBVc+jpcwcUXetw8sR8ruHjvkaBFCCCQQAIEHgl0s2kqAgggEC8CdVavjr1W0FG68FFHVUrTyUkJOxyZURgBBER0iMt5C2K+g2VrNfQo31fTsIJLVhoruPAsIYAAAm4TIPBw2x2jvggggIDLBTTsKLUmJ927YrlxSzpkZoqGHfnX6eSk9OwwhqMgAgg0COhkpLo5CT12WfN56Aouk4f1llsm9RdCjwZOXiCAAAKuECDwcMVtopIIIICANwR0ctJKaxiL07Aj//qbpOf4SXbo4Q0JWoEAArEQ8IUez72901rB5aBRFTT02LV3m112yvDe0tfBkrdGF6AQAggggEDEBAg8IkbLiRFAAAEEfAL25KSVFdbkpP9rzddR7tsd9Htafr7do4PJSYNSUQABBAwFNPTQ0GL+YmsFFyv0MF3BZZ41+WmZFX7MnW7NCULoYahNMQQQQCC2AgQesfXn6ggggIDnBTTs8PXqcBp2FMyYLboaCxsCCCAQTgF7BZe5o2WeFXroCi5l+2qNTu+bzHTu9CIr9Eg3OoZCCCCAAAKxEyDwiJ09V0YAAQQ8L6ABh67CUuJwctIuFw+VPGu+DsIOzz8iNBCBmArMnabBRYbMW1TsOPTQOT0uLewW0/pzcQQQQACB1gUIPFr34VMEEEAAgRAF6iqtyUkff1T2vr3M+Az25KR5+VL0pa8yX4exGgURQKAtAr55PZyGHvUruFxq9/RgMtO23AGORQABBCIncEHkTs2ZEUAAAQQSVcAOO6xeHU7DDu3VUfSlrxF2JOqDQ7sRiJGAhh52b4+e5sNUfCu4PPf2LjladzpGNeeyCCCAAAKtCdDDozUdPkMAAQQQcCwQStiRZvXq6GnN1VE4c7bj63EAAgggEA4BXYFFt2esFVw2lpqu4FIjuxbX2MdNtidDNQ9M7IP4BwIIIIBARAUIPCLKy8kRQACBxBI4vPn9+glKHQxj0bCjYOYsa76OyYmFRWsRQCDuBOxlZ7PT5RFrTo+NJYfk6HGznhuPWJOflu2tkTn2nCCEHnF3Y6kQAggkrABDWhL21tNwBBBAILwCR7ZskuI//M7RMJbOQy4h7AjvbeBsCCDQRgGdxPSHnxsjt0zsJ30dDHFZ8t5ue6lbXbqWDQEEEEAgPgTo4REf94FaIIAAAq4VOHPsmByvqpCtv/+tOFl2VsOOi+5lvg7X3ngqjoDHBXTp2T5W+DFfe28YLluroYduuoLLsAJWcPH4I0LzEEDABQIEHi64SVQRAQQQiFcBDTsqF71g9+owDTt0JZZOufmEHfF6U6kXAgg0CEz9eF4Pp6GH9vL4xp3DCD0aJHmBAAIIxEaAwCM27lwVAQQQcL2AL+woeWyBcVs07MibfoM9X0dafh/j4yiIAAIIxEoglNBjlzWfx//8faN8zuolMrSgq7BsbazuHtdFAIFEF2AOj0R/Amg/AgggEILA8coKqVz8ooQSdhTe9VmWnQ3BnEMQQCB2Ahp66ISkw/qbD1PR0OP+R9bIcyt2STnzesTu5nFlBBBIaAF6eCT07afxCCCAgHMBDTtKFi5wNDlpWl6e9JxgLTtrhR1sCCCAgBsFNPTo26t+BZf3rWVrjx4/Y9QMXfGlrLpG7DlBHEyCanRyCiGAAAIItCpAD49WefgQAQQQQMBfINSwo2DGbMIOf0heI4CAKwX6ZWfIj+4eIzdP7C99epgvP6uTmc6zgo9yw8lPXYlDpRFAAIE4FCDwiMObQpUQQACBeBRoS9jRa9LkeGwSdUIAAQRCEtC5OeweG4QeIflxEAIIIBAtAYa0REua6yCAAAIuFjiydbNUvPS8o2EsnXLzpGDGLCHscPGNp+oIINCigG8yU7vnxv7aFsv5f+BbtvZWa9naoSxb60/DawQQQCAiAgQeEWHlpAgggIA3BM7UHJPjVZWy9fe/kbrycuNGdb5oiORff5MVdkwxPoaCCCCAgNsE7NDj/HmZt3iblDsIPXTZ2ruvs1ZwsSZBzUzr4LZmU18EEEDANQIEHq65VVQUAQQQiK6Ahh2Vi160enUsNQ47OmRmSKfeeXLRvf8saX36RrfCXA0BBBCIgcDUy3Ltqz7z9k55f+choxroCi7//vAaudsaGjPl0t6Sz2SmRm4UQgABBJwKEHg4FaM8AgggkAACGnZULX5JSv7vb8at7ZCRIbnXXi/ZVq8Owg5jNgoigIAHBDT06GtNaPrwy8Wyaaf5Ci4P6wouVvgx11ryltDDAw8CTUAAgbgTYNLSuLslVAgBBBCIrYAOYdGw44NH5xtXxA47pl0vA2bNJewwVqMgAgh4SUBXcPnxPWPkxgn9JN/BZKZvbrBWcLGGxFSwgouXHgfaggACcSJAD484uRFUAwEEEIgHAQ07ShYukL3LlxpXp1NurvQcP8kOO4wPoiACCCDgUYF7rrtI+vXKqA8xDOf1eHNDla0xd9pgenp49LmgWQggEBsBAo/YuHNVBBBAIO4EQg07CmfOZnLSuLubVAgBBGIpcMXH83rYPTcIPWJ5K7g2AggkuACBR4I/ADQfAQQQUAENO0pD6NlRMIOwgycIAQQQaE6gLaGHLlt7Sf+uzZ2WfQgggAACDgSYw8MBFkURQAABLwocLd5ihx3VDoexaNiRffkUL5LQJgQQQCAsAhp66DCVS/qZhxc6vOW///6ebN5ltuJLWCrKSRBAAAGPChB4ePTG0iwEEEDAREDDji0P/UachB1ZRRcJYYeJLmUQQAABEQ09vvWpS2XixdmS2amDEcnO6hr51ZPvyYpN1XLs+BmjYyiEAAIIINBUgMCjqQl7EEAAAc8LnK2pEV/YUVdeZtxeDTuGfPnr9OwwFqMgAgggIKIruPzkn8bKTeP7OQo9fvDX1fL8il2EHjxECCCAQIgCzOERIhyHIYAAAm4VOFtbI5WrV0j1srfENOzQZWdTe+faYUdan75ubTr1RgABBGIqcM/1F9nXX7pxt1TsrzOqy19f3mqXu8la7pYNAQQQQMCZAIGHMy9KI4AAAq4W+PB4nexbu1p2/+NJ43Zo2JF77XVWr46pQthhzEZBBBBAoFkBDT36WsvWzl9cLBUHzEOPdu1ECru3k+zOyc2el50IIIAAAk0FCDyamrAHAQQQ8KTAmf17pfa99XLghWeN2+cLOwbM/pzxMRREAAEEEGhd4MoRuXYBJ6HHX17aKmMHdZZbxuUQerTOy6cIIIBAgwCBRwMFLxBAAAHvCmjYcfDlF6Tm3XeMG9nJGsLSc/xEIewwJqMgAgggYCwQSuixevsR+/waemRmGl+KgggggEDCChB4JOytp+EIIJAoAsd3V8nBRS86DDt6WyuxzJLsyVMThYl2IoAAAlEXaEvoMTs9TbKysqJeZy6IAAIIuEmAwMNNd4u6IoAAAg4FNOwoXbhAatatNT6yU28NO2YTdhiLURABBBAIXcAXesyz5vSoNJzTQ3t6dOhQJp9Pz5C8HmmhX5wjEUAAAY8LsCytx28wzUMAgcQVOLptqx126Gosphthh6kU5RBAAIHwCWjoMXdakeR1Nw8vlm3aJ3ZIYrjaS/hqy5kQQAAB9wjQw8M994qaIoAAAsYCR7cXy5aHfi11ZWXGx2QNLpL862+mZ4exGAURQACB8An4enr8Y3mpbCk7bHTiN9ZX2eXssISeHkZmFEIAgcQSIPBIrPtNaxFAwOMCZ2tr5Oi2Ytmx4GHHYceQL39d0vr287gQzUMAAQTiV0BDj37ZGfLLJzc4Cj3aWU267fICuahvl/htHDVDAAEEYiDAkJYYoHNJBBBAIBICGnZUvvKyrP/x/cZhR4eMdOk+aowQdkTijnBOBBBAwLlA/5wM+fanhssQK7zITO1gdILXrZ4eDz6xQbYa9gwxOimFEEAAAQ8IEHh44CbSBAQQQODEnio77Pjgb48YY2jYkXvNdXLZv/+Inh3GahREAAEEIi/gCz1uGN/XOPTYWV1D6BH5W8MVEEDAZQIMaXHZDaO6CCCAQKDAiT27pWTho1K9dEngRy2+T83pLT3HT5QBn727xTJ8gAACCCAQOwENPfrnDLEr8OLKMjl24kzQyvhCj8/fMMTuIZLRyayHSNATUwABBBBwqQA9PFx646g2AgggoAL1YccCx2FH4cxZMpCwg4cIAQQQiHsBDS+0p0eu4QouGnr8659XyYuryqTmePCQJO4BqCACCCDQBgECjzbgcSgCCCAQS4FQwo4OPXpInztmWCuxXBHLqnNtBBBAAAEHAhp6zJ02WHplJRsf9acXtxB6GGtREAEEvCrAkBav3lnahQACnhbQZWcrXnzOUc8ODTu6Tb9RMkaO9rQNjUMAAQS8KHDViDw5ePCQPLtqj+w9etqoiRp66Hb5sBzjHiJGJ6YQAggg4BIBAg+X3CiqiQACCPgEju3YJlv/99dSW7bLtyvo9xRrudnOVq+OjJFjgpalAAIIIIBAfAqMG9zZrpjT0GPnnmMyd3oRoUd83lZqhQACERQg8IggLqdGAAEEwi2gYceW3/2Po7Ajc9Bg6XLbpyXZmqiUDQEEEEDA3QK+0OP5Nftkz+ETRo3RZWulXTt7WIzpXCBGJ6YQAgggEOcCBB5xfoOoHgIIIKACZ2tr5ET1HkdhR/v0dNHVWIZ85RtyuB1TNvEkIYAAAl4R0NAjNTVVnlxaLlUH64ya9fq7lXY5nQuE0MOIjEIIIOABAQIPD9xEmoAAAt4W0LCj6tVF9nwdpsNYNOzIvWa6PTlpujWc5XB5ubeRaB0CCCCQYAKXX9JDUlNSZN7ibYQeCXbvaS4CCJgLEHiYW1ESAQQQiLrA2dpaK+xYLDvmP2x8bV/YMXDOPcbHUBABBBBAwH0CV43MsytN6OG+e0eNEUAgOgIEHtFx5ioIIICAY4H6sGORFXb81fjY1Jwc6TluohB2GJNREAEEEHC1gIYe560W/GNZqRRXHDFqiw5vaWeV1OEtvbunGR1DIQQQQMCNAgQebrxr1BkBBDwvEGrYUThjlmRPudLzPjQQAQQQQOATgaut0KN/ToY8+PgG49DjtY/n9Ljt8gIp6lO/+ssnZ+QVAggg4A0BZrHzxn2kFQgg4CEBO+x4zWHPjuwcIezw0ENAUxBAAAGHAgU5mfKdGcNlTFFPyUjtYHS0hh4PPr5eisvNeoYYnZRCCCCAQBwJEHjE0c2gKggggEBD2DHPwTAWDTtm0rODpwcBBBBIdAENPR744ni5fmwf49CjtLpGHnxivWwj9Ej0x4f2I+BJAQIPT95WGoUAAm4UIOxw412jzggggED8CXzxpoudhR57auQXVuixtnif1Jw4E38NokYIIIBAiAIEHiHCcRgCCCAQTgHCjnBqci4EEEAAAV/o0btbJyOMUiv0uO+PK+WlVeWEHkZiFEIAATcIEHi44S5RRwQQ8LTAieo9UvWatfSso2Es2VLAMBZPPxc0DgEEEGirgIYec6cViWnoodf74wubCT3aCs/xCCAQNwKs0hI3t4KKIIBAIgpo2FG6cIHseetN4+anZmvYMVtyWI3F2IyCCCCAQKIK6Aouum7tvMXFsvvQcSMGDT3aWevWThqa4ygsMTo5hRBAAIEoCtDDI4rYXAoBBBDwFwgl7MgcMJCwwx+R1wgggAACQQWuHpVX39Ojq9nwFj3hH57fLPMWWSHJQbOQJGglKIAAAgjEQIAeHjFA55IIIIBAqGHHkK99U9L79gcQAQQQQAABRwIaeujmpKeHLlur29zpzobF2AfxDwQQQCAOBOjhEQc3gSoggEBiCZzYWy2ljz/qaBiL9uwg7Eis54TWIoAAAuEWCKWnh4Ye9PQI953gfAggEC2BiPfwOHHihBw7dkz0+/Hjx+X06dPSvn17SUlJkdTUVOnRo4ckJydHq732dc6dOydnzrR9yS1th36xIYAAAqYCdtihc3YsecP0ECHsMKaiIAIIIIBAEAENPc5b/5u/eJvxnB4aeuicHjoBao7hqi9BqsHHCCCAQFQEIhZ4aLCxc+dOWbNmjRQXF8uePdYqBFVVcvDgQcnMzLSDjtzcXJkwYYIMGjRIBg8eLB07doxKo0tLS2XlypVtvpbWedy4cW0+DydAAIHEECDsSIz7TCsRQACBeBe4ZlS+XcV/LNsp2yqPGFX31XUfD28h9DDyohACCMSHQEQCj3379smbb74pjz32mLz44outtvS3v/2tHXp89atflSuuuMIOQlo9IAwfPv300/KDH/ygzWeaPXs2gUebFTkBAokhQNiRGPeZViKAAAJuEdDQo6B3pvxi4QZCD7fcNOqJAAKOBcI+h8eRI0fkd7/7ndx1111Bww5fbVesWCH33HOPPPTQQ3L48GHf7oh9X7duXVjOff68tcYXGwIIIBBEIJSwI6NwgAz5KhOUBqHlYwQQQACBNggU5GTKv8wcLoPzOhufRXt66MSn2yvMeoYYn5iCCCCAQAQEwhp46Bwd8+fPl5/85CdNqqrzdegQlgEDBkjPnj3lwgsvbFRG5/j44Q9/KI888oicPHmy0WfhfPPRRx/J+vXrw3lKzoUAAgi0KBBq2HHx174l6f1YjaVFWD5AAAEEEAiLgB16zBguIwf2kIwUs7npNPT4xeMbZHvl0bDUgZMggAACkRII65CW119/vdmhIjpHh851MXz4cDvs+OCDD2Tt2rXy3nvvSWVl/XhAXwPvv/9+GTp0qFx99dW+XWH9rj1IysvLG50zIyMjpKE0vXr1anQe3iCAAAL+Ak7DjvZpaZLSK1sIO/wVeY0AAgggEGkBHdry4JcnyO+f2yyLVpdJzcmzQS9ZsueYNRxmvdVD5DIZlJcVtDwFEEAAgVgIhC3wqKurkwceeMBejcW/IRdffLH8+Mc/lltuucV/t3z44Yfy+9//Xn75y19KWVlZw2fa0+NnP/uZHZCkWX/8h3vbunVrk1NOnDhRPvOZzzTZH2yH9lZhQwABBJoTOKlLzzpYjUXDjt5XXSs5U6+iZ0dzoOxDAAEEEIi4wL03X2xfg9Aj4tRcAAEEoiQQtsBDJyldtWpVo2rn5OTIb37zG5k6dWqj/fpGh7R85StfsZem/f73vy860alv03MtW7ZMrrvuOt+usH1///33m5zr1ltvteccafIBOxBAAIEQBDTsKAkh7Bh09xdCuBqHIIAAAgggED6B+tDjvCzfWC17Dh8PemJfT48f3TNGcrp2ClqeAggggEA0BcIyh4f21vj1r3/dpN733ntvs2GHr2A7a0Hvu+++2/7y7fN9//Of/yyRmBRUh9EEbpdeemngLt4jgAACIQkQdoTExkEIIIAAAnEkcO/Nl8jc6YMlp4tZgKGhx/xF22TPoeABSRw1k6oggEACCIQl8PAtQ+vvpfNiaJhhsn3xi18ULe+/vfrqq3Lo0CH/XW1+rQGKzh3iv6WkpMjgwYP9d/EaAQQQCEmAsCMkNg5CAAEEEIhDAV221kno8cq6CkKPOLyPVAmBRBcIS+DR3Kon48ePFx3SYrL16dPHnrPDv6zO5fH222/772rza11FZtOmTY3Oo2FHJOYKaXQR3iCAgOcFTu7bKyWPPyp7lrxh1FbfnB0MYzHiohACCCCAQAwECD1igM4lEUAgrAJhCTzWrFnTpFJOV1lpbp6PdevWNTlvW3aUlJQ0OXzMmDFN9rEDAQQQcCJghx06Z8ebrxsdRthhxEQhBBBAAIE4ENDQY860wZLdJdWoNr6eHtUMbzHyohACCERWICyTlq5cubJJLUeNGtVkX2s7Ro4c2eTjLVu2NNnXlh2BvTv0XCNGjLBPeezYMdGVZrQXiH599NFHds+P9PR06dSpk/1aJ1plQwABBPwFakpLpPyFZwg7/FF4jQACCCDgKYFrR+fb7Zm3uFiqD58I2jYNPXTTITHZTGQa1IsCCCAQOYGwBB7NDWnRYSpOtvz8+h+k/sc0t6KK/+dOX2/cuLHJIX379pV3333XXmGmtLTUXiK3vLxczp49K/3795fCwkLp16+faDmd3DQ3N7fJOdiBAAKJKaBhx+bf/FJqd+00AqBnhxEThRBAAAEE4lCA0CMObwpVQgCBoAJtDjx0hZajR482ulCHDh2kZ8+ejfYFe9OrV68mRXbu3Gn3tLjggrCMvJHmhsisWLFCnnrqKdm8eXOT6wfu+/rXvy6f/exn5aKLLpKOHTs2Kc8OBBBIHIGanc7CjhTrZ2LPsROEOTsS5xmhpQgggIDXBAg9vHZHaQ8C3hdoc5Kgk4sGbt26dZPk5OTA3a2+16EjGpQEbqdOnQrcFdL7M2fOSHM9PP7jP/6j2bCjuYvo0rv/9E//JM8884zU1NQ0V4R9CCCQAAJ22PFr854dGnYUzpwtg+75YgLo0EQEEEAAAS8LaOgxd1qRozk95i3eJtWHmv47g5edaBsCCMSHQJsDj9ra2iYtyczMbLLPZEfXrl2bFGsuUGlSyGBHVVVVk54ogYdlZWVJdna29OjRQ1JTm5+YacOGDXLXXXfJ008/bfc+CTwH7xFAwNsCoYYdOVdc7W0YWocAAgggkDACjkOPdyrEnv+D0CNhnhEaikC8CLR5SEtzgYdO8hnK1txx4Qo8mpuw1FdHnW9E5+YYPXq0HXhorxJd0aWsrEx27dollZWVvqIN3++//34ZO3asFBUVNezjBQIIeFuAsMPb95fWIYAAAgiYCzge3mKFHrrZvUO6Nv8fFs2vTkkEEEDATKDNgcfp06ebXCnU1UyamxcjXENaWpoAddCgQfLtb39bbrvtNgnsYaJhyyOPPCJ//etfRY/X+Up8m/YY+clPfiJ/+MMfRIfjsCGAgLcFanaWOpqg1B7GMmO20LPD288FrUMAAQQSWYDQI5HvPm1HwB0CbR7SkpTUNDM5efJkSK1v7ly6PGw4Np1YVVeC6d69u73MrIYyQ4YMkQcffFA+//nPNwk79Jo6rOUrX/mKzJs3T4YPH96kGo899pgsW7asyX52IICAtwTqw44HpdaaSNlkawg7rmQYi4kXZRBAAAEE3CugocccJ3N6WD095lvL2+41WN7WvSrUHAEE4kWgaVrhsGbnzp1rckRzQ1OaFGpmR3O9OUI9V+DptQfHwIEDZffu3fYQlf3798t9990nkydPDiza5P3QoUPlgQcekDvuuEOOHDnS6PMnnnhCrr/++kb7eIMAAt4QOHe8TjTs2PbXPxB2eOOW0goEEEAAgQgITLNCD900yKg2CDIW+4a3TC+SXl0Y3hKBW8IpEUDgY4GkwDk46urq5Pjx4w1A/p9rr4iUlBRp165dw+dpaWkNr30vmuvhocGIBhrnz5+3j9fzBA59ae64wOEieryW8x9e4ruu77v2FNHhMf71nDBhguhXsE3Pr5v/sfp+6tSpcuutt8rDDz+sbxs2ncQ0cDOpox6jw4F81/OdQ9/7m/v28z1yAq0985G7amKe2U3WF5w7KweXL5Vtf/mD8c260Jr4uOf1N0v66LFx9/9j/5/r+rM38OevcSMpGFQA66BEESmgw1D9/8MJv0sjwtzsSXnmm2WJyM54tp5Q1Nn63Zdrhx51Zy8M2n7/0KNT+0+GjQc9MAYF3PT3Swx4wnpJrMPK6ehk/r9D9WeNV36PJr377ruNIAIfMu0J4dsyMjLk4osvbrR8bHOrmfj/MPYde+zYMSkuLhYNPnT5WR1OEriai5YJ3AJ7eGhIsGXLlkahTOAxGpIMHjzYHroS+FlL73XojA570bpr2KHX1VVbfMGHfr/nnnuaBB6bN2+2AxgNcHzb2bNnZdu2bUGXrtV5QLSs/6bXD7wn/p/zOvwCrT3z4b9aYp/RLdYadqRVlsuBZ/5ufMPO6cpOI8ZIdVZXqQ74uWp8kggW3LdvX8PZ9edbc2F1QwFetEkA6zbxhXzwjh07pLy8vOF4fpc2UET8Bc98xIkbLhDv1t2tnOPi7idk84FUcRJ6XNLjhMRz6OGWv18aHhQXv8A6djfP/3eodh4I19QSsWtR/ZWT9A8E/03/C4l/Twv/EEIn9dRhIRpY+LbAQEL3HzhwwAa64IJPpgjRoEJXPNFz6x/aAwYM8J3C/n7mzJkmy8bqddq3b9+onJ5npzWO3r9ejQpYb/T8vrk6Aj9r6b3+n2v58uWiAY+GGzk5OTJlypRGy9MWFhY2e7iu5uK/Wosev3fvXtFAo7VNnQKHBOm+wHvS2jn4rO0CrT3zbT87Z/AXcIP1BVYImVZVLp23bPSvequvNew4NqBI6lKsHm8BP1NbPTCKHx46dKjhahrQNhdWNxTgRZsEsG4TX8gH6x9q/v8yyO/SkCkdH8gz75gs5APcYN0/q755TkKPHZmn5GIr9EiL054ebvj7JeSHKs4OxDp2N8T/d2hzi4nErmZtu/IniYTBebQ3ggYT/pv+0Rz4Xwq1p0RgF5jk5OSGLtTalVrf+2/+PUl8+3v27Ol72fBdA4/AkKDhQ+uFDmfp16+fvbys//5gr7W+GnrokBJNs/QXSk1NTaPDNERprht4dXV1o3IaePiHPY0+5A0CCMStQJvCjry+cdsuKoYAAggggEA0BfpnWQGG1dPDNMDYeayjbN5v1iskmu3gWggg4H6BpOzs7Eat0CEV/kNSevTo0fB54LwY+oEGADqp58qVKxvK6YvKyspGQ1b0vyhqrwkNFnQoi38vES1fUVGh3xptBQUFjd7rGw0SunXrJjq8prlNAxgdLhPYM8RXVgMNDUw0lPBfFUbbqdfTHha6af0Cww0NQjSo0eTRfwscmqPn7tKlS5PhKv7H6GttQ2AwosaB9yTwON6HV6C1Zz68V+Js8Wx9zvrZd3rjekc9O1KsnxsfXjZaPrLCjnhfnNr/55n2zGuudx5PaHgEsA6Po9Oz6M8X/Q8uvo3fpT6JyH+P9DOvf1ex1Qv4/+3a3H90jCcn689+yTmSLCt3fiR7jzT+27m5emroodu4/hdIdtdOzRWJ2T79j6L+f//7//tRzCrl0QtjHbsb6//vtPrv2/rv7l7Ykm688cZG7dA/FvyHi/Tp06fR5829aS7w0Pk6dL4P36Y/lHWISEvb1q1bm3w0fvz4JvsU/9prr22yv7UdurJKaWmpPZmZ9lDR0EUDiUmTJjUcpgHJ2LFjG94390J7ffj/sNMy+ktee5T4b7pv9OjR/ruafa3dbRctWtToM/0DLfCeNCrAm7ALhPLMh70SCXLCeLXWsGP3m6/KNgfDWDTsKJg5W3pfeY0r7p7/uEz9haZzFLFFRgDryLgGO6vO2eEf5PG7NJhY+D7nmQ+fZbAzudF64Jpy+d0zm6TuVON565prq4YeA9vny43j42v1lnj9+6U5Q7fvwzp2d3DPnj0NFx8xYoTolxe2Ni9LqwiXXHJJEwudD+POO+9ssr+lHUuXLm3ykUlo0OSgZnasXbtWvvSlL9nzc/gCi0svvVTeeeedRr08mjm00S6diDRw02EuGp6wIYCAOwUawo4/m6/G4raww513hlojgAACCHhBYNqYPlKy+5gsXlthFHpoOd3mTouv0MML94I2IJCIAo7m8GgJSHtG+Hdn1HJvvPGGPSdGS8f479ceJYGBh55PQ4lwbLpqS5k1sagv7NBzvvfee/awG9Pz6zCYl156qUnxcNWxyYnZgQACURHYv2albCPsiIo1F0EAAQQQSEyBr942VKaNzpe0jo0XI2hJQ0OPeYuLZe/h4ENhWjoH+xFAAAEVCEvgMWzYsCbDOnSIioYewTadU+PZZ59tEj7oajD5+fnBDjf6XEOJ5rpvP/nkk61OgOp/cm3P7373O/9d9uurrrqqyT52IICAOwRqy3ZK+fPPGFfW7tkxY5ZrhrEYN4yCCCCAAAIIRFiA0CPCwJweAQSaFQhL4KG9MebMmdPkAj//+c9Fh4FoqNHcppOAbtq0SX71q181+fhb3/qWPbFokw8+3qHzcOzevbvRl2/C0cBjdP6QK664InC3/PKXv5QNGza0WD/fATqe6ac//WmjHiL6mQYys2fP9hXjOwIIuEhAw47N//Og1OwsNap1et9+UqBhx1XO5hAyOjmFEEAAAQQQSAABDT2uddjTY/7ibbKPnh4J8HTQRAQiIxCWOTy0anfccYfdA8J//V5dueWb3/ym/OIXvxDtseG/MosuL7t582b78/fff79R63Jzc4PO/7Fs2TJZvHhxo+N0ws/vf//7jfb53tx22212ef9hLRqQfPe737XrN3jw4EaTnelxOsGpTiz6l7/8RbQ3iP+mIc/3vvc9YZZmfxVeI+AOgVDCjku+8S+S3r/pylHuaDG1RAABBBBAID4EvmaFHrq9Yjinx6K15Xb5udMGS88uqfZr/oEAAgiYCoQt8NDA4Mtf/rL86Ec/kg8//LDh+hpKnDp1Sr7xjW9I7969RefTqKmpsYewPPDAA6ITivpv2hvjO9/5TqMlbf0/971esmRJkyEmGpS0FHjcfvvt9tCZp556yncK+7ueZ9asWXLffffZy+umpaXZ+7WO2oNEw5rAJXe1gA6ToXeHTcU/EHCVwMn9+xz17NBhLIQdrrrFVBYBBBBAIM4FCD3i/AZRPQQ8JBC2wENNvvrVr8rLL78sa9asaUT01ltviX717dvX7umhS9ZWVlY2KqNvdGnYG264Qe6+++4mn7V1R8eOHe0hLFu2bBG9vv+mw270mgUFBTJgwAB7iIvO2dFcHfU47a2iQYgvHPE/F68RQCB+BU4d2C+ljz9qPIwlpbu19Kw1jIWeHfF7T6kZAggggIA7BQg93HnfqDUCbhMIa+Chy7P+/ve/l7lz59qhwtmzjdfb1pVS9Ku5LSUlRcaPHy+//e1v7V4gzZVp6z6dc+Ohhx6yh9GUlpaKzgPiv+k+/WppS05OlsLCQnnwwQdl6tSpLRVjPwIIxKGAhh0lCxfI7tdfNaqdHXbMZM4OIywKIYAAAgggEIJAyKHHdGt4S2eGt4RAziEIJJxAWCYt9VcbPny4zJ8/X66++mrRISaBy9X6l9XX2qtDe0zccsst8qc//cl4TozmztvcvsDrTZkyRR577DG56667ZNCgQfb1A8sEvtfeIX369JFp06bZ83nodzYEEHCPAGGHe+4VNUUAAQQQSCwBDT2cTGSqc3rMW2RNZHqEJWsT60mhtQiEJhDWHh6+Kuj8FjrJ59/+9jd55plnZO/evXLy5El7EtB27drJBRdcIBoi6FdOTo4998e1114bNBzxnV+/a0gyceJE/132kJlGO1p4U1RUZPdEee211+x5QPbv32/PM6J11MlUddM6ahjTqVMne5jL9OnT5dOf/rRoTxQ2BBBwj4DTsKNj9+5SQM8O99xgaooAAggg4HoBenq4/hbSAATiViAigYe2VoOCe++9V77whS/YS8+Wl5fLkSNH7FAjKSnJ7v2hk5jm5eUZ9bIIFLznnntEv0LdNHi55ppr7K+jR4/aE5TqnB0azuhnOnxFh+jovB76xYYAAu4TCCXsKJw5m6Vn3XerqTECCCCAgMsFNPQ4f/68vPpOpdSdajwsvrmmaU+PdtYHc6YXWcNb+A+SzRmxDwEERCIWePhwdZiJ9vjQr3jdsrKyRL+GDBkSr1WkXggg4FCAsMMhGMURQAABBBCIscA/3z7MroFp6PHyx0vWEnrE+MZxeQTiWCDsc3jEcVupGgIIJIgAYUeC3GiaiQACCCDgOQENPa4ZlSdpHdsbtU1Dj/mLiq05PU4alacQAggklgCBR2Ldb1qLgOcFTh04YK3G8qjxaiw6Z0ehtfRs76uu9bwNDUQAAQQQQMANAoQebrhL1BEBdwgQeLjjPlFLBBAwEKgPO3Tp2VcMSltj+jql1ocdV7PykhEYhRBAAAEEEIiSgC/06OSkp8fiYtlPT48o3SEug4A7BAg83HGfqCUCCAQROHfiuNWzw1nYkTP1KulN2BFElo8RQAABBBCIjYCGHtdaw1uMQ4811pK1hB6xuVlcFYE4FSDwiNMbQ7UQQMBcQMOOPUted9SzQ8OOoi98xfwilEQAAQQQQACBqAsQekSdnAsi4CkBAg9P3U4ag0DiCZw7ccIKO96Q4j8+ZNT4pNRUyZlC2GGERSEEEEAAAQTiQIDQIw5uAlVAwKUCBB4uvXFUGwEEROrDjtetsON/jTnsnh1fpGeHMRgFEUAAAQQQiAMBe06PkTq8JcmoNi9/PLzl+KlzRuUphAAC3hQg8PDmfaVVCCSEgA5jcRJ2pOX3kSLCjoR4NmgkAggggID3BL5+h7Vk7ch8R6HHq+9UCKGH954FWoSAqQCBh6kU5RBAIK4E6irKHYcdl3zzvrhqA5VBAAEEEEAAAWcCTkOPXz+9UQg9nBlTGgEvCRB4eOlu0hYEEkRAw45N//1z49am5eeLhh0ZBYXGx1AQAQQQQAABBOJTIJTQY8Wm6vhsDLVCAIGIChB4RJSXkyOAQLgFfGFHTWmJ0anrw47vEnYYaVEIAQQQQAABdwg4DT2eWloiZXtr3dE4aokAAmETIPAIGyUnQgCBSAs4DTs6dutm9ewg7Ij0feH8CCCAAAIIxEJAQ48JF2cbXXpH1VH5z0fXEXoYaVEIAe8IEHh4517SEgQ8LXDq4EF7GItpzw4NOwpmzKJnh6efChqHAAIIIJDoAndMKZS+PdONGHyhx4GjJ43KUwgBBNwvQODh/ntICxDwvICGHaULF4jTsCP3mumet6GBCCCAAAIIJLLAwNws+f6skY5Cj3mLtwmhRyI/NbQ9kQQIPBLpbtNWBFwo4As7ql5bbFR7X88Owg4jLgohgAACCCDgeoGBefWhR/fMFKO2vLS6TAg9jKgohIDrBQg8XH8LaQAC3hUg7PDuvaVlCCCAAAIIhFNAQ4+50wYLoUc4VTkXAu4XIPBw/z2kBQh4UuDUIWsYy+MLxLhnR9eu9pwd9Ozw5ONAoxBAAAEEEAgqcP24voQeQZUogEBiCRB4JNb9prUIuELADjusOTuqXjUcxqJhx8zZQtjhittLJRFAAAEEEIiYQKihx4lT5yJWJ06MAAKxEyDwiJ09V0YAgWYECDuaQWEXAggggAACCBgLhBJ6vLauUgg9jIkpiIBrBAg8XHOrqCgC3hcg7PD+PaaFCCCAAAIIREPAF3p0Sk4yutx/P/WeaOjBhgAC3hIg8PDW/aQ1CLhW4LTO2eFgGEtSagrDWFx7t6k4AggggAACkRfQ0OPqkXniJPQo31cb+YpxBQQQiJoAgUfUqLkQAgi0JHDu5AkpcRh2ZE++kjk7WgJlPwIIIIAAAgjYAt+481K5ykHo8Z8L1kkFoQdPDwKeESDw8MytpCEIuFNAw47qt940nqBUe3Zo2HHRvV9zZ4OpNQIIIIAAAghEVeCbVugx/uJso2turzoqPyX0MLKiEAJuECDwcMNdoo4IeFTAF3Zs/f1vjVpI2GHERCEEEEAAAQQQCBC4c0qh9OmRHrC3+be+0OPgsZPNF2AvAgi4RoDAwzW3iooi4C2Bj06dkuqlS8Q07NDWZ0++gp4d3noMaA0CCCCAAAJRERiYlyU/mD1S8h2EHvMWbRNCj6jcHi6CQMQECDwiRsuJEUCgNYGad9fI1od+01qRRp91ys21wo5/brSPNwgggAACCCCAgKmAhh7/ZoUe3TI6Gh3y4uoy0dDjcO1po/IUQgCB+BMg8Ii/e0KNEPC8wJl9e2Xv4/9n3E4NO4Z++3vG5SmIAAIIIIAAAgg0J6Chx9xpRY5CjyfeKpMjdWebOx37EEAgzgUIPOL8BlE9BLwmcO7YUdkz/y/GzerU2wo7vvU9ySgYYHwMBRFAAAEEEEAAgZYEbhjf11Ho8cq7e+TZ1dVy6sxHLZ2S/QggEKcCBB5xemOoFgJeFNCw4+CiF+RUZYVR8+yww+rZkVFI2GEERiEEEEAAAQQQMBJwGnq8temgrNp2mNDDSJdCCMSPQFL8VIWaIICAlwVOHz4k+158Vo6uWG7UzOQuXexhLIQdRlwUQgABBBBAAAGHAhp66PbQc5vkxOlz9uvW/jHvjfr/YJOXnyepyfxrVGtWfIZAvAjQwyNe7gT1QMDDAhp2lCxcIFWvLDJqpYYdhTNn07PDSItCCCCAAAIIIBCqgIYeV40wDzA09Fi5uTrUy3EcAghEWYDAI8rgXA6BRBP48ORJKV34qMOwY5bkXntdolHRXgQQQAABBBCIgcC3PnWpo9Dj72+VSOX+uhjUlEsigIBTAQIPp2KURwABRwLVy5ZI5SsvGx1T37NDw47rjcpTCAEEEEAAAQQQCIeAhh7jh/QyOtX2yqPykwXvEHoYaVEIgdgKEHjE1p+rI+BpgeO7q2TL//7aqI2EHUZMFEIAAQQQQACBCAncOXWA5HVPMzq7L/Q4VHPKqDyFEEAgNgIEHrFx56oIeF5A5+14/5c/M2pnUkqKNWcHPTuMsCiEAAIIIIAAAhERGJSXJf/22VGOQo95i4qF0CMit4OTIhAWAQKPsDByEgQQ8Bc4feSwPW9HTckH/rtbfN3r8ikMY2lRhw8QQAABBBBAIFoCvtCja0ZHo0u+sKpMCD2MqCiEQEwECDxiws5FEfCugB12PLbAeN6O1JzeMuQr3/AuCC1DAAEEEEAAAVcJaOgx99rBQujhqttGZRFoVoDAo1kWdiKAQCgCoYQdw77zr6FcimMQQAABBBBAAIGICdw4oR+hR8R0OTEC0RMg8IieNVdCwNMC9vKzDnp2JGVmioYdGYUDPO1C4xBAAAEEEEDAnQK+0KNLWgejBviGt5w8fc6oPIUQQCDyAgQekTfmCgh4XuDDUyelevlbxsNYkjIypNv0Gwk7PP9k0EAEEEAAAQTcLaChx4wp/SQrtb1RQzT0eGN9lRB6GHFRCIGICxB4RJyYCyDgfYH9a9fIlt/9j1FD7bDjupska8LlRuUphAACCCCAAAIIxFLgmpE5csu4bOnY3uxfnR58YoMdesSyzlwbAQTqBcz+X4sWAggg0ILAiT27pezZp1r4tPHuC5KTpRthR2MU3iGAAAIIIIBA3AtMHdpNxg7q7Cj0qDpQF/ftooIIeF2AwMPrd5j2IRBBAZ2k9P1f/kxMlp+9MKWjZI0aS8+OCN4PTo0AAggggAACkRP43NV97NAjtUOS0UV+8rd3hNDDiIpCCERMgMAjYrScGAFvC9grsix8VI59sMOoodmTpsiAL3zZqCyFEEAAAQQQQACBeBSwQ48hvYyqtq3yqGjosfvgcaPyFEIAgfALEHiE35QzIuB5AV/YUbn4JaO2pmbnyJCvftOoLIUQQAABBBBAAIF4Fvj01ELp3a2TURU19Pjx/LVyuOaUUXkKIYBAeAUIPMLrydkQ8LyA07AjuXNnGfYv/+p5FxqIAAIIIIAAAokhMCi/s9z/2VGOQo95i7cReiTG40Er40yAwCPObgjVQSCeBT48dUpKH39UTHt2aNhRMGOWtfzswHhuFnVDAAEEEEAAAQQcCfhCjy7pHY2Oe37lLtHQg+VqjbgohEDYBAg8wkbJiRDwvkD18rekcpHZMBZf2JE3/Qbvw9BCBBBAAAEEEEg4AQ095k4bLF3Sk43arqHHmxuqCD2MtCiEQHgECDzC48hZEPC8wIm9e2TLb//bqJ2EHUZMFEIAAQQQQAABlwvcNKGfFXoUGYcev3h8g6zastflrab6CLhHgMDDPfeKmiIQM4EzR4/I+7/4L6PrX9ixoz2MhZ4dRlwUQgABBBBAAAGXCzgNPZ5cUiJ7WLnF5Xed6rtFgMDDLXeKeiIQIwENO0oWLjBefrbXpMlC2BGjm8VlEUAAAQQQQCAmAr7QI6VDUtDrb6s8Ij+a/44crj0dtCwFEECgbQIEHm3z42gEPC3gCztM5+1I7ZUtF3/tW542oXEIIIAAAggggEBzAhp6TB3eW0xDj/mLiuUIoUdzlOxDIGwCBB5ho+RECHhLwGnY0SErS4b+y/e9hUBrEEAAAQQQQAABBwL3zbxMxg3paXTEc7pyixV6nDxzzqg8hRBAwLkAgYdzM45AwPMCuvysDmMx7dmhYUfhzNmSOYDlZz3/cNBABBBAAAEEEGhV4FNTB0hO106tlvF9qKHHkvW7CT18IHxHIMwCBB5hBuV0CHhBYO/bS52FHTNmMW+HF248bUAAAQQQQACBNgsMtparvX/OKOmcZrZc7c8fXy+rt+xr83U5AQIINBUg8Ghqwh4EElrg5L69svk3vzIysHt2aNhx3Y1G5SmEAAIIIIAAAggkgoCGHrpcrWno8cSSD5jPIxEeDNoYdQECj6iTc0EE4lfgzNGjsvHnPzWqoC4/W0jYYWRFIQQQQAABBBBIPIGbJ/azQ4+UDhcGbfy2iiMybzGTmAaFogACDgUIPByCURwBrwqcOXZUSh53sPzsxMvp2eHVh4F2IYAAAggggEBYBDT0mDo81+hcz62wJjG1Qo9TZz40Kk8hBBAILkDgEdyIEgh4XsAOO3SS0pdfNGprSs9ecvE/f9uoLIUQQAABBBBAAIFEFtCVW7K7pBoRaOixZEMVoYeRFoUQCC5A4BHciBIIeFoglLBj2H0sP+vph4LGIYAAAggggEBYBf7f3NHG83k8sHC9rNqyN6zX52QIJKoAgUei3nnajYAl0LD8rGHPjg5ZmaJhR+aAQfghgAACCCCAAAIIGAroJKZzpg02Dj10EtPqQycMz04xBBBoSYDAoyUZ9iPgcYEPT5+SvSuWGQ9j6ZCZKQXWJKWEHR5/MGgeAggggAACCERE4JaJ/e3Qw3QS0x9ebNMCAABAAElEQVTOX8vKLRG5E5w0kQQIPBLpbtNWBPwEDryzVjb/+pd+e1p+aYcdM2dJ/nU3tVyITxBAAAEEEEAAAQRaFdDQY8qlvaWj4cot8xdvk6N1p1s9Jx8igEDLAgQeLdvwCQKeFdB5O8qe/btR+y7smCwFhB1GVhRCAAEEEEAAAQSCCXz3rhEy7qJewYrZnz+7YqfMW7SNSUyNtCiEQFMBAo+mJuxBwNMCGnaUWiuyHNuxI2g7NezoNWEyPTuCSlEAAQQQQAABBBAwF/j0FQOMV27R0OMtVm4xx6UkAn4CBB5+GLxEwOsCZ44ds8KOR6XCcJLS7iNGy8VfZ/lZrz8XtA8BBBBAAAEEoiugk5jqyi1ZaclGF/6ZtXLL6q2s3GKERSEE/AQIPPwweImA1wW0Z0fFyy8YNTOlRw/pe9udRmUphAACCCCAAAIIIOBMQEOPudcOlqxOHYwOfOLND2TvYVZuMcKiEAIfCxB48CggkCACJ/fvMw47dJLSYd/9N1ZkSZBng2YigAACCCCAQGwEbpnUX+ZOK5KO7S8MWoHiiiPyw3lrmcQ0qBQFEPhEgMDjEwteIeBZAR3KsvHnPzVqH8vPGjFRCAEEEEAAAQQQCIuAhh5ThlsrtxiGHvNYuSUs7pwkMQQIPBLjPtPKBBY4U2PN2/G4TlK6PahCh4wMKZhhLT97PcvPBsWiAAIIIIAAAgggECaB71krt4w1Xbnl7Z2iy9WeOvNhmK7OaRDwrgCBh3fvLS1DQD48fdpekaXipeDzdlyYrMvPzibs4LlBAAEEEEAAAQRiIKArt5jO5/GMFXosfW93DGrJJRFwlwCBh7vuF7VFwJHAvhXLxCTs0JN2GzmasMORLoURQAABBBBAAIHwCRT16SxzrPk8TEOP/3rsXdl3hElMw3cHOJMXBQg8vHhXaRMClsCpA/tl0/88aGShQ1n63cqKLEZYFEIAAQQQQAABBCIkcKs1n4eT0OM/Hlkrx+rORKg2nBYB9wskffTRR41aoe/99/m/blSQN20WOH/+fLPnwLxZlojt9OIzf7a2Rt574CdGZu3T06Xvp+6S9MIBjf6/b3Sww0JetHZIELPi/j9XAu9DzCrl0QtjHZsbG/hc+9+H2NQoca7qbx14HxJHITotxTo6zoFXCXyu/e9DYNlwvL95Ql/58MMP5c8vbpXT5xr/u1rg+XXllnmLi2Xu9CJJT0kK/Nh176Nt7TqgCFbY/7kOvA8RvGzET5109OjRRhepqakR/fJtgZ/79vO97QInT55s8i+Y+nBh3nZbJ2fw2jP/YV2d7HnuKaNJSi9MS5Psm2+XzImTo/Lcec3ayXMW67L+P9fbtWsX6+p4+vpYx+b21tbWiv5e9W38LvVJRP47z3zkjX1XwNonEd3v6u5vH42fL1cM7SprtmTIOx80/ne15lqu83no9qlJvSW5vbs78MfCujnTRNzn/ztUf6dG4zmPhnOSNsZ/0/fHjx9v2BX4ecMHvGizwGlrQsnAXh6nTp0SzNtM6+gEXnrmz585I/ufe1qOLFtiZNBt+o2SOmZ81J45L1kbAcdRIf+f6xdccIEQekTu5mAdOdvWznzixAnR36G+jd+lPonIf+eZj7yx7wpY+ySi+z1Wf79cN7KX7Nx7Qg7VBh+yoqFH904fyaiBWdIhyb2hR6yso/tExefV/H+H6u9Ur/wede//G+LzOaFWCMRUoHbjeuOwo33nztL58qkxrS8XRwABBBBAAAEEEGheoH+vVPnqDf0lvaPZUJU/vVImG3d90lO/+bOyF4HEEkhq3759oxYnJSWJfvm2wM99+/nedoELL7ywyUn0v7pi3oQloju88syfqTkme/72sJGVTlKa/6WvRf1Z84q1EXKcFfL/ua6v+TkTuRuEdeRsWzuzuvv/XuUZb00rvJ/xzIfXs7WzYd2aTuQ+U3d/+2j+fBmUlyl3Xp4vT6+okmPHg/f0ePmdvVKY3Ul6dE6NHEgEzxxL6wg2yxWn9v8dqvchms95JIGScnJyGp0/NTVV9Mu3BX7u28/3tgtkWP/S6f9g6RlTUlIE87bbOjmDF575s9bY0pIXnjFqtoYdBTNmSf64CUblw1nIC9bh9Ijmuc6ePdtwuczMTMnKymp4z4vwCmAdXk/Ts1VXVzd6rvldairX9nI88203ND0D1qZS4S0X679fPmv9+1p6Wrr88YXNcursh602bue+E/LHV6rkZ18cL5mdOrRaNh4/jLV1PJpEq07+fxt2797dM/9OypCWaD1BXAeBCAnYYcfCBVLx0vNBr3BhcnJ92HHDzUHLUgABBBBAAAEEEEAgPgRuvby/XD4sRzq2b9pDPLCG9soti4qNeoQEHst7BLwmQODhtTtKexJOoORxs7BDYXqOnyj5hB0J94zQYAQQQAABBBBwv8D3Z42UMRf1NGqITmI6zwo9TgfpEWJ0Mgoh4GIBAg8X3zyqjsCpgwek4sXgPTtUqn1GulzyzftAQwABBBBAAAEEEHCpwIwrBkqPrBSj2mvosXTjHkIPIy0KeVWAwMOrd5Z2eV7gbG2NvPezHxu1U8OOwhmzjcpSCAEEEEAAAQQQQCA+BYr6dJYffm6MZKaazc/xn4+uk9Vb98VnY6gVAlEQIPCIAjKXQCDcAhp2lFjzdhzbsT3oqX1hB0NZglJRAAEEEEAAAQQQiHsBDT3mTBtsHHo88eYOqTFY4SXuG04FEQhBgMAjBDQOQSCWAh+dOW2HHSZDWS5M7mD17LBWZGHejljeMq6NAAIIIIAAAgiEVeC2ywvs0CPZYBLTreVHZN5i5vMI6w3gZK4RIPBwza2iogjUC+xb+bbxvB3dRoy2wo5boEMAAQQQQAABBBDwmICGHrpyi8n2j+U7ZRnzeZhQUcZjAgQeHruhNMfbAjqU5f1f/dyoke3T06XfbXcalaUQAggggAACCCCAgPsEfmCt3NI902wS059a83msYT4P991katwmAQKPNvFxMALREzhbW2sNZXnU6IIadhRYQ1kyBw42Kk8hBBBAAAEEEEAAAXcK/OjuMZJhOInp48zn4c6bTK1DFiDwCJmOAxGInkB92LHAGsryXNCL6rwdGnb0uZGhLEGxKIAAAggggAACCLhcwJ7E9NrBRqFH/Xwe21iq1uX3nOqbCxB4mFtREoGYCHx05szHk5QGDzu0gj3GTSTsiMmd4qIIIIAAAggggEBsBG6fbE1iaoUeJpOY/mN5qSy35vNgQyARBAg8EuEu00ZXCxx4d61Rzw5tZMeuXWXot77r6vZSeQQQQAABBBBAAAHnAhp6jCnqaXTgT6z5PA4eO2lUlkIIuFmAwMPNd4+6e17gbF2t7PrH343a2T4tTS793v1GZSmEAAIIIIAAAggg4D2BGVcONBraoi2//+E1UnPijPcQaBECfgIEHn4YvEQgngQ07ChduECObd8WtFoadhTMnC2Zg5ikNCgWBRBAAAEEEEAAAY8KXNSnsz20JSOlQ9AW6nwe8xcxn0dQKAq4WoDAw9W3j8p7VcAXdpS/EHzejgs7WJOUWmEHk5R69WmgXQgggAACCCCAgLmAPZ/HNGs+j6QLgx70tM7n8T7zeQSFooBrBQg8XHvrqLiXBbRnh0nYoQY9xk0g7PDyw0DbEEAAAQQQQAABhwL2fB4XGc7nsUDn8zjl8AoUR8AdAgQe7rhP1DKBBE4fPmwcduhQlqHf/l4C6dBUBBBAAAEEEEAAAROBGVcOEJOhLXqu+x9eLbUnzpqcljIIuEqAwMNVt4vKel3gbF2dbPivHxo1s37ejllGZSmEAAIIIIAAAgggkFgCF/XpInMMh7bofB7zFhfLmbMfJhYSrfW8AIGH528xDXSLgIYdziYpnWUNZbnVLc2jnggggAACCCCAAAJRFtChLZOGZpvN57GsVNYU74tyDbkcApEVIPCIrC9nR8BI4KMzZ+ywo/yFZ43KF8wg7DCCohACCCCAAAIIIJDgAv/22VEy2nA+j4Vv7JBDNcznkeCPjKeaT+DhqdtJY9wqsG/1SmveDrOwI7lLF+lzEz073HqvqTcCCCCAAAIIIBBtgZlXDJD0lPZBL6tDW+7/6xqpO8l8HkGxKOAKAQIPV9wmKullgXPH6+T9B//LqIk6b8fwf73fqCyFEEAAAQQQQAABBBBQgYv66nweRdbQluD/+rel/LDMW8R8Hjw53hAI/sR7o520AoG4FNCwo+SxBUZ1sycptYayZA4qMipPIQQQQAABBBBAAAEEfAJ3WPN5TByaYxR6PMV8Hj42vrtcgMDD5TeQ6rtboGThAqOhLBd0aC8FMz7DUBZ3325qjwACCCCAAAIIxFTg33U+j6KeRnV4/I0PmM/DSIpC8SxA4BHPd4e6eVpAe3eUP282b0ePsROssOM2T3vQOAQQQAABBBBAAIHIC8y8cqCkdQw+n4cObWE+j8jfD64QWQECj8j6cnYEmhWwh7JYvTtMtvadOsmw7/yrSVHKIIAAAggggAACCCDQqoDO5zF32mDp4GQ+j3MftXpOPkQgXgUIPOL1zlAvzwroErT2UBaD3h0adhTMnOVZCxqGAAIIIIAAAgggEH2BO6YUyqRLcowurPN5rC3eZ1SWQgjEmwCBR7zdEerjeYGDG9YZDWWpn7fj/7d3J3ByXPWB+J9mRqcPHZZsgw3WfdiW5ZP7CpcNrAmH7wMTliSbi2wCSf4JkOS/bEiW/SzZI1lgN8nalvGFCQQWMAYChBAI4NvYkq3DYLCNbR2+JEuaGW2/Fmr39PT0q5np7qmq/tbnM5+prnr16r3vK6l7fv2OSwxlKf0ToYIECBAgQIAAge4LfPCyM8KCw2ZluvE1X73XUrWZpCTKm4CAR95aRHlKLTD49NNh66evz1THhaeeHo77RfN2ZMKSiAABAgQIECBAYNwC//HfvjDzfB6X33iPoMe4hV0w1QICHlPdAu7fMwIx2BGHsuzccE+yzgOVoSxL3n5+Mp0EBAgQIECAAAECBCYqMJ75PG745uYQgx57zecxUW7XTYGAgMcUoLtlbwocmLfjM8nKx2DH8gsuCfNWrUmmlYAAAQIECBAgQIDAZATifB4vyzqfRyXoYT6PyWi7ttsCAh7dFne/nhQY3PV0Zd6OdLAj4sRgh6EsPfmYqDQBAgQIECBAYEoE/rg6n8fMTPc2n0cmJolyIiDgkZOGUIzyCsRgx6arsy1BO3DIHMGO8j4KakaAAAECBAgQyK3Ah/7tizLP53HFjRvC08/sy21dFIzAQQEBj4MSfhPogMDwvn3VYEeW3h0x2LH8gks7UApZEiBAgAABAgQIEGgtcMLiBeGys1aHGQPpPxE/9c1N4fIvbTCfR2tSZ3MgkH6ac1BIRSBQVIHHbolL0GYbyrLMUJaiNrNyEyBAgAABAgRKIXBuZT6PF6w+KlNdYtDDfB6ZqCSaQgEBjynEd+tyCwzu2lVZgva6TJWcMXduWPyLb8+UViICBAgQIECAAAECnRK48LUrw/xDM87n8bV7K0NbBjtVFPkSmLSAgMekCWVAYLRADHZsvubKbEvQzpkTTnn//z86E0cIECBAgAABAgQIdFkgDm35j+9+UThk1vTknX94//bK0JZ7wj5L1SatJJgaAQGPqXF315ILxGDH/f+QHsoyUAl2LLuwsgTtakvQlvyRUD0CBAgQIECAQGEEYtDjneOYz+Pbdz4k6FGY1u2tggp49FZ7q20XBGLvjizBjliUOG+HoSxdaBS3IECAAAECBAgQGJdAnM/jjIzzefzpFd8zn8e4dCXuloCAR7ek3acnBA4MZcm4BG2ld8fit5i3oyceDJUkQIAAAQIECBRQ4KLKfB7zDsk2n8fVlfk8dpnPo4CtXO4iC3iUu33VrssCm69ZX+nd8ffJu1aHslR6d9gIECBAgAABAgQI5FUgDm35s1+uzOcxcyBZxOp8HjeazyMJJUFXBQQ8usrtZmUW2Pv445mCHdGgOpRF744yPw7qRoAAAQIECBAohUAMelx21powoz/9p+P136gsVbvhZ6Wot0qUQyD91JajnmpBoKMCg7t3hVv/7E8y3WNgzmxDWTJJSUSAAAECBAgQIJAHgfN+oTKfx5ojMxXl6q8a2pIJSqKuCAh4dIXZTcosEIMdm69en3EJ2tmV3h2XlplD3QgQIECAAAECBEoocNFrVoU5hraUsGXLXSUBj3K3r9p1QSAGO7LM29E3fXo12GGi0i40ilsQIECAAAECBAi0VeCEJXGp2jWZgh5xaMv3DW1pq7/MJiYg4DExN1cRqArE3h1Zgh0x8ZEveJGhLJ4bAgQIECBAgACBwgrEoS0x6DE9w3wehrYUtplLVXABj1I1p8p0U2Bo9+6w+ZqrMt1yYPbssO4PPpAprUQECBAgQIAAAQIE8ioQgx4vWJ2ez+Ou+7eHy63aktdm7JlyCXj0TFOraLsFNsUlaD/76WS2Mdix7EJL0CahJCBAgAABAgQIECiEwEWvzTafx4GhLY8Uok4KWU4BAY9ytqtadVgg9u7IEuyIxYjBjsVvOafDJZI9AQIECBAgQIAAge4IHJzPI9vQlo1h157B7hTMXQg0CAh4NIB4SSAlEIMdsXdHli327hDsyCIlDQECBAgQIECAQJEEqkvVZh3a8qV7wr7B4SJVT1lLIiDgUZKGVI3uCAwPDlaDHVl6d1SHslxgKEt3WsZdCBAgQIAAAQIEui1QHdoyYyB52+rQlo2GtiShJGi7gIBH20llWGaBR7/33UxDWfqmD1SWoK0MZXmroSxlfh7UjQABAgQIECDQywInVpaqveys1dlWbfnKxrDb0JZeflympO4CHlPC7qZFFIhDWW77iw9lKvoRJ58m2JFJSiICBAgQIECAAIEiC5z/6hXhjMxDWzaEfUOGthS5vYtWdgGPorWY8k6JwNAz2eft6J89Kyw994IpKaebEiBAgAABAgQIEOi2QNahLdd9477w/Q2GtnS7fXr5fgIevdz66p5ZYNPV2ZagjcGO5RdcGuatPj5z3hISIECAAAECBAgQKLKAoS1Fbr1yl13Ao9ztq3ZtEIi9O7JMUhpvFYMd5u1oA7osCBAgQIAAAQIECiUwrqEtN24Ig4a2FKp9i1pYAY+itpxyd0WgOpSl0rsjyxZ7dwh2ZJGShgABAgQIECBAoIwCcWjL7Ayrtlz3dUNbytj+eayTgEceW0WZciOw6ZqrMvXu6J8Vh7JYgjY3DacgBAgQIECAAAECXReIQ1vemXHVlk9ataXr7dOLNxTw6MVWV+dMAkPPPBPu/8wNybR9AwNh+YVxCdpzk2klIECAAAECBAgQIFBmgTi05fRVRyareNf928PlhrYknSSYnICAx+T8XF1SgeHBwbDpmmxDWY44JS5BK9hR0kdBtQgQIECAAAECBMYpcPHrVhraMk4zyTsjIODRGVe5Flxg2603Z+rdEYeyLD3HErQFb27FJ0CAAAECBAgQaKPAiUuOyD605asbw+69g228u6wIPCsg4PGshT0CVYE4lGXLDddm0ojzdsxbYwnaTFgSESBAgAABAgQI9IxA5qEtWytDW75k1ZaeeTC6XFEBjy6Du13+BeJQlp333J0saOzdsfhthrIkoSQgQIAAAQIECBDoSYEDQ1v6k3W3akuSSIIJCgh4TBDOZeUUGN67J/NQFquylPMZUCsCBAgQIECAAIH2CMShLZedtSZM70//2Xl1ZWjLM3uH2nNjuRD4uUD6yUNFoEcEhvfuDdu+9PlMtV12wcV6d2SSkogAAQIECBAgQKCXBS7IuGrLnZWhLdd98/4wOLy/l7nUvc0CAh5tBpVdcQW2felzYdtXb0pWoH/WzLDkbecl00lAgAABAgQIECBAgEAIcWjLrOnpoS2f+faPww9/9CQyAm0TEPBoG6WMiixQ7d2RMdixrDJRqY0AAQIECBAgQIAAgWwCB1ZtWRMG+qYlL/j89x4Ke/YNJ9NJQCCLgIBHFiVpSi1wYCjL5zLVMQY79O7IRCURAQIECBAgQIAAgZrABa9ZEc5YfWTt9Vg79z34dPjsdx8KQ4a2jEXk+DgEBDzGgSVpOQUe+2LGoSwzDWUp5xOgVgQIECBAgAABAt0QuPh1qzINbfniD34W7jK0pRtNUvp7CHiUvolVsJXA0J49Yevff6pVkuq5voH+sOxCQ1mSUBIQIECAAAECBAgQGEPg4KotA33pP0P/bxzaYtWWMSQdziqQftKy5iQdgYIJ7B8aDJuvWZ+p1EecfKqhLJmkJCJAgAABAgQIECAwtsCFlaEtp69eNHaCn5+5tzK05fIb7wmDQ+bzSGJJMKaAgMeYNE6UXeCxW2/J1LujvzKUZem5F5adQ/0IECBAgAABAgQIdEXg4tdmG9pyzT/eF36w8ZGulMlNyikg4FHOdlWrhEAcyrLlhmsTqQ6cjhOVzltzQqa0EhEgQIAAAQIECBAg0Fpg7dIjwmVnxVVb0n+OfvIrGw1tac3pbAuB9BPW4mKnCBRVIA5l2Xn3D5PFj707lrz9vGQ6CQgQIECAAAECBAgQyC5QHdqyKj205c6t238+tGV/9sylJPBzAQEPj0LPCWSdqDQGO2LvDhsBAgQIECBAgAABAu0XyLpqSxzacrOhLe1vgB7IUcCjBxpZFZ8ViMGOrBOVxmCH3h3P2tkjQIAAAQIECBAg0E6BA0NbVleGtkxLZntVHNqybyiZTgIC9QICHvUa9ksvEIMdWZah7Z85Q7Cj9E+DChIgQIAAAQIECEy1wIWvWRlOW3Vkshh3bt0WLv/ShjA0bGhLEkuCmoCAR43CTtkFhvfuzRzsMJSl7E+D+hEgQIAAAQIECORF4JLXrQozp/cni3PNP95r1ZakkgT1AgIe9Rr2SysQgx2brr4yU/0ODGU5P1NaiQgQIECAAAECBAgQmJxAHNryzjMzDm25aaNeHpPj7qmrBTx6qrl7t7KbMg5l6Zs+vTKURbCjd58UNSdAgAABAgQIEJgKgQtfWxnasjLLqi3b9PKYigYq6D0FPAracIqdXaA6lOXT1ycvmNbfFxa+8exkOgkIECBAgAABAgQIEGi/wNtfsTj0T0tPYPrJSi+PvSYwbX8DlDBHAY8SNqoqPSuwf2goxN4dWbY5q9aEBa89K0tSaQgQIECAAAECBAgQaLPAyuceEk447rBkrnf8fALTZEIJel5AwKPnH4FyA2y77ZawNUPvjjiUZeGZbyo3htoRIECAAAECBAgQyLnA2S84Osyo9LxObVdXJjDdtWcwlcz5HhdIP0k9DqT6xRWIQ1m2fOqaTBVY+Iazw+ylyzOllYgAAQIECBAgQIAAgc4IrDzm0PCWFz8nU+b/38f/xQSmmaR6N5GAR++2felrHoey7Lj7h8l6Tps+EBa8zlCWJJQEBAgQIECAAAECBLog8KYzjgqzpqf/VI1DW27e+EgXSuQWRRVIP0VFrZly97RA1olK+2ZMD0e+8Rd72krlCRAgQIAAAQIECORN4L1vXRH6+9ITmF71lcoEpoPDeSu+8uREQMAjJw2hGO0TiMGOrBOVLr/g0rD47ee17+ZyIkCAAAECBAgQIEBg0gIrjzkknL7yyGQ+d2zZFi7/0j3JdBL0poCAR2+2e6lrvena9dkmKq307lhyzvmltlA5AgQIECBAgAABAkUVuOT1q8KMgfSfrFd/7d6w2wSmRW3mjpY7/fR09PYyJ9BegeF9+8LWG65PZhqHsiy/4JJkOgkIECBAgAABAgQIEJgagbVLjwjvPGtNppv/wSdMYJoJqscSDQwPjxzvFF/XH6vf7zGbjld3//79o+4RjzEfxZL5wKZrrsyUdul5F4fj3nZe1dozn4msLYlYt4VxQpnU/7/S2A4TytBFYwqwHpOmoyfi+2f9+2p9O3T0xjIf8bnF/y+dfSDqn2vWnbWuz73Rur4d6tPZn7xAM+sLXr08XHHjPWFPYp6OOLQlTmB6+qpFky9ID+ZQ/x5apr9JBx544IERzfnEE0+EJ598snasr08nkBpGm3d27twZhoaGRuS6e/fu0NgmIxJ4MabA/sFsvTviqiwDL3xJzdkzPyZp20+wbjtp5gwfeuihWtqnnnpqxP/ztRN22iLAui2M487k4YcfDtu3b69d5720RtHxHc98x4lrN2Bdo+jqjs8v3eMey/p9b1se/uJT94WhJl8Y15fubz5/e1g4a2WmyU7rr7MfRryHxvfUsryPimZ4ukshsH9wMDz2pf+brMu0SgBv0RvOTqaTgAABAgQIECBAgACBfAisPObQcPzzD0sW5t4Hnw53/ejZL++TF0hQeoGBadNGLvUTX9cfq98vvUZOKsh8/A3x6Jc+H7bd9KXkhXNWrApHvP6NI9J55kdwdPQF647ytsy8/v+VxnZoeaGT4xZgPW6ytlxQ7x4zbHzdlpvIpKlAvXXcr3/d9AIHJyxQb8t6wozjvrDRur4dxp2ZC1oKtLL+xRc9J9z9wJNhaHj0tAD1mX70s5vC377nlDA9w2Sn9dfZf1agsR2ePVO8vYG5c+eOKHXjP+DG8yMSezEpgVmzZo36UBCHEDEfH2ucqPSeDMGOvunTw8KTTxnl65kfn/dkUrOejN7kro1dRA9u8f+Yww8//OBLv9sswLrNoBmzO/TQQ8OcOXNqqb2X1ig6vuOZ7zhx7QasaxRd3fH5pXvcrazPqHx+ecHqneE7d/8sWaDPfOeh8K43rjG0JSn1bIL699D4nlqW99FRAY/GCUrKUtFnmzI/e7Nnzw6Nc6TEIAjz8bXRfVf+XaYLllVWZVl67gWj0nrmR5F07ADrjtEmM45zBh3cDjvsMP/PHMTowG/WHUDNkGX8cBbfVw9u3ksPSnT+t2e+88YH78D6oER3f/v80j3vlPWf/8pLwuvf+w9h79DIhTcaS/h/v/9weMVpSysBkqMaT3k9hkD9e2iZAh7m8BijwR0uhsBwZaLSLTdclyxsX2Wi0mbBjuSFEhAgQIAAAQIECBAgkBuBy85aHfobpmVoVrirbtpYWUWq9fCXZtc5Vi4BAY9ytWfP1Wbz1esz1XnZBZdmSicRAQIECBAgQIAAAQL5Fbj4davCaRmWnq0uU3vvo/mtiJJ1RUDAoyvMbtIJAb07OqEqTwIECBAgQIAAAQL5Frjkddl6eay/aUPYN9h6+Eu+a6p0kxUQ8JisoOunRGC4sgzt5muuSt67b2AgxLk7bAQIECBAgAABAgQIlEPgpGVHhDNWH5msTOzlcfmN9xjakpQqbwIBj/K2balrtuW6T4Ytn7o2Wcc4b8fScy9MppOAAAECBAgQIECAAIHiCPzFr74kTO9P/zn7ya/eG242tKU4DdvmkqafkDbfUHYEJisQe3dsv+uOZDaxd8e0yo+NAAECBAgQIECAAIHyCWSdwDQObTGBafnaP0uNBDyyKEmTK4HN16wPO354V7JMyy6My9Dq3ZGEkoAAAQIECBAgQIBAAQUuqUxgeurKRcmSm8A0SVTaBAIepW3aclZsf6V3R5ahLLF3h2BHOZ8BtSJAgAABAgQIECBwUODS12efwHRwyASmB9165beAR6+0dEnquanSuyPLFnt32AgQIECAAAECBAgQKLdAnMA0ay+Py79kaEu5n4bRtRPwGG3iSE4F9O7IacMoFgECBAgQIECAAIEpFIi9PLJMYHrVVzeGW+57dApL6tbdFhDw6La4+01IIAY7svTumNbXF/TumBCxiwgQIECAAAECBAgUUiD28rjszNWhb9q0ZPnXf1kvjyRSiRIIeJSoMctclS2fuibT3B0L1p5k7o4yPwjqRoAAAQIECBAgQKCJwCWvzzaB6e1btunl0cSvrIcEPMrasiWq1/6hwRCXok1tfQP9YcHadalkzhMgQIAAAQIECBAgUEKBd1SCHll7eZjAtIQPQJMqCXg0QXEoXwKbrl6fqXfHsgsqy9Ced1G+Cq80BAgQIECAAAECBAh0ReCkZQszTWAae3nECUxt5RcQ8Ch/Gxe6hvuHhjIFO6b19wt2FLqlFZ4AAQIECBAgQIDA5AViL4+Byrx+qS1OYKqXR0qp+OfTT0Lx66gGBRbIMlFprN5yy9AWuJUVnQABAgQIECBAgEB7BGIvj8vOyjaB6RU3ViYw3b+/PTeWSy4FBDxy2SwKFQWqvTuuvyaJoXdHkkgCAgQIECBAgAABAj0jcGmcwHTFomR913+lskztvZapTUIVOIGAR4Ebr8xF379/ONMytNFA744yPwnqRoAAAQIECBAgQGD8ApeemXEC05v08hi/bnGuEPAoTlv1VEl33HlH2KJ3R0+1ucoSIECAAAECBAgQaJfAujiBaYZeHrdvrixTq5dHu9hzl4+AR+6aRIHiUJZtd9yWhIhDWZZXVmaxESBAgAABAgQIECBAoFEgey+PjWG/uTwa+UrxWsCjFM1YrkrEiUqz9O5Ydv5FYWnlx0aAAAECBAgQIECAAIFGgQO9PBY2Hh71+vbNj+nlMUqlHAcEPMrRjqWpxXgmKl2wdl1p6q0iBAgQIECAAAECBAi0X+DSM7Ot2HLlTXp5tF9/6nMU8Jj6NlCCOoGsy9Auu+DiMP+EtXVX2iVAgAABAgQIECBAgMBIAb08Rnr02isBj15r8RzXd//wcKahLNP6+8Ky8y/OcU0UjQABAgQIECBAgACBvAgc6OWRLs2BXh7pdFIUR0DAozhtVfqSbrr6ykx1XGai0kxOEhEgQIAAAQIECBAgEELs5XFKphVbKnN53PcoshIJCHiUqDGLXBW9O4rcespOgAABAgQIECBAIN8C76jM5dHfNy1ZyCu/vKGyYksymQQFERDwKEhDlbmYMdixubIyS2qb1lcZyqJ3R4rJeQIECBAgQIAAAQIEGgRiL4/LKkGP1FZdsUUvjxRTYc4LeBSmqcpb0C3XfTJsvu7qZAXjMrTm7kgySUCAAAECBAgQIECAQBOBai+PaeleHuv18miiV8xDAh7FbLdSlTr28EhtsXdHiD82AgQIECBAgAABAgQITFDgsrPSvTxu22wujwny5u4yf0Hmrkl6q0DV4SxZendUhrLo3dFbz4baEiBAgAABAgQIEGi3gF4e7RbNd34CHvlun9KXLtvcHdMqc3dYhrb0D4MKEiBAgAABAgQIEOiCQNZeHreay6MLrdHZWwh4dNZX7i0EsvfuuLRFLk4RIECAAAECBAgQIEAgu8B4VmwZtmRLdtgcphTwyGGj9EqR9O7olZZWTwIECBAgQIAAAQL5Evjor78spKYvjXN5XP6lDfkquNKMS0DAY1xcErdNoBIpzbQyi2Vo20YuIwIECBAgQIAAAQIEDgisW74wnLpiUZLjyps2BL08kky5TSDgkdumKXfBNl19ZbKC0/ri3B2XJNNJQIAAAQIECBAgQIAAgfEKXHrm6mQvj5jnFXp5jJc2N+kFPHLTFD1UEL07eqixVZUAAQIECBAgQIBAPgVOrvTyOCVDL48rKr089pvLI5+NmCiVgEcCyOn2C+jd0X5TORIgQIAAAQIECBAgMH6BOIFpai6PmGucy0PMY/y+U32FgMdUt0Cv3V/vjl5rcfUlQIAAAQIECBAgkFuB8fTyuHXTo7mth4I1FxDwaO7iaIcENl2zPpnztGnm7kgiSUCAAAECBAgQIECAQFsEsvbyuPLGSi+PttxRJt0SEPDolrT7hNgHbPO1n0xKLLvQRKVJJAkIECBAgAABAgQIEGiLQNZeHnGZ2tvu08ujLehdykTAo0vQbhOC3h2eAgIECBAgQIAAAQIE8iiQtZfHFXp55LH5xiyTgMeYNE60VSBr7w7L0LaVXWYECBAgQIAAAQIECKQFYi+P+JPa9PJICeXrvIBHvtqjtKXJ0rsjTo9sOEtpHwEVI0CAAAECBAgQIJBrgcvOWpNpxZYrvrwh1/VQuGcFBDyetbDXKYGMvTuWX3Bpp0ogXwIECBAgQIAAAQIECLQUyNzLY9Nj4VZzebS0zMtJAY+8tESJy6F3R4kbV9UIECBAgAABAgQIlEhAL48SNWalKgIe5WrPXNYmy8osy83dkcu2UygCBAgQIECAAAECvSQwvl4ej/USTSHrKuBRyGYrTqE3XX1lurDVuTsMZ0lDSUGAAAECBAgQIECAQKcFsvbyuPLL93S6KPKfpICAxyQBXd5aQO+O1j7OEiBAgAABAgQIECCQL4GsvTxurc7loZdHvlpvZGkEPEZ6eNVGgc3XrM+U27IL9e7IBCURAQIECBAgQIAAAQJdEfjL33x5phVb9PLoSnNM+CYCHhOmc2FKYNM1V6WShOUXXpJMIwEBAgQIECBAgAABAgS6LXDZmauTt4y9PG6r/NjyKSDgkc92KXyp9O4ofBOqAAECBAgQIECAAIGeFnjnG9Zkqv8VN5rLIxPUFCQS8JgC9F64pd4dvdDK6kiAAAECBAgQIECg3AKnLF+YrGDs5WHLp4CARz7bpdCl0ruj0M2n8AQIECBAgAABAgQI/FzgHWdm6+Vx+Y0bmOVQQMAjh41S9CJtujY9d8eyCy4uejWVnwABAgQIECBAgACBkgucsmJhyNLLw7CWfD4IAh75bJfClqrau2N/uvjLL3pHOpEUBAgQIECAAAECBAgQmGKBLL084p9AJi+d4oZqcnsBjyYoDk1cQO+Oidu5kgABAgQIECBAgACB/Ano5ZG/NslaIgGPrFLSJQU2x2Vos/TuuPDSZF4SECBAgAABAgQIECBAIC8C78iwRG3s4aGXR15a7EA5BDzy1R6FLs2ma9cny1+du2PatGQ6CQgQIECAAAECBAgQIJAXgVNWLAonJ1Zsid/9mssjLy12oBwCHvlqj8KWRu+OwjadghMgQIAAAQIECBAgkEHgMr08MijlK4mAR77ao7Cl2Zx1ZRa9OwrbxgpOgAABAgQIECBAoJcFYi+P1KaXR0qou+cFPLrrXcq7xWDH/v3pyTuWm7ujlO2vUgQIECBAgAABAgR6RUAvj2K1tIBHsdorl6WtDmdJlMzcHQkgpwkQIECAAAECBAgQyL3AO89akyxj/Cr4yi9vSKaToPMCAh6dNy71HbL27phmKEupnwOVI0CAAAECBAgQINALAvHPmpOXLUxW9db7Hk2mkaDzAgIenTcu9x0yDGVZcOJJYdkFl5TbQe0IECBAgAABAgQIEOgJgcvOWp2s54G5PPTySEJ1OIGAR4eBy5795us+mazi/BPXhqCHR9JJAgIECBAgQIAAAQIE8i9w8vLKErUZenlcYVjLlDemgMeUN0FxC1AdzjJsstLitqCSEyBAgAABAgQIECAwXoH4Xe47MvTyGK70hr9t02PjzV76NgoIeLQRs9eyyrQU7fkX6d3Raw+G+hIgQIAAAQIECBAoucApGXt5mLx0ah8EAY+p9S/s3Tdf+8mwP0PvjmWWoi1sGys4AQIECBAgQIAAAQLNBaq9PM5Mz+URJy+9XS+P5ohdOCrg0QXkMt5i87Xrk9VaVundMa3PI5aEkoAAAQIECBAgQIAAgcIJnLIiPZeHJWqntln9NTq1/oW8e9beHQvWnlzI+ik0AQIECBAgQIAAAQIEUgJZe3ncopdHirJj5wU8OkZb4oz3DycrF3t3LFh7UjKdBAQIECBAgAABAgQIECiqgF4e+W45AY98t0/uSrfjrjvD5uuuTparOpTFUrRJJwkIECBAgAABAgQIECiuQPyTZ93yhckKVOfy2GzFliRUmxMIeLQZtOzZbb/r9spkpekeHkvPv7jsFOpHgAABAgQIECBAgACBcFmGyUvjX1BWbOn+wyLg0X3zQt8xzt+R2kxWmhJyngABAgQIECBAgACBsgj09U0LJy/L0Mvj3kfLUuXC1EPAozBNNfUF3XxdXIo23bvDUrRT31ZKQIAAAQIECBAgQIBA9wQu1cuje9jjuJOAxziwej3p5muvShIsPe9CS9EmlSQgQIAAAQIECBAgQKBMAqdWlqhdl6GXxxVf3lCmaue+LgIeuW+ifBSw2rtjKN2744iTLEWbjxZTCgIECBAgQIAAAQIEuiWQdYnaoeH94XaTl3arWYKAR9eoC36jDENZYu+OBWvXFbyiik+AAAECBAgQIECAAIHxC2Tt5WHy0vHbTvQKAY+JyvXQdTt+WFmK9vprkjXu6+8PwVK0SScJCBAgQIAAAQIECBAon0DWXh6WqO1e2wt4dM+6sHfafmdlKdqhoWT5l553UTKNBAQIECBAgAABAgQIECirwKkrFibn8qiMagnrzeXRlUdAwKMrzMW+yebrrk5WoDpZaezhYSNAgAABAgQIECBAgECPCkyrdPN4x+tXJWt/y32PJdNIMHkBAY/JG5Y6hy2VYEeW3h3LL7y01A4qR4AAAQIECBAgQIAAgSwCp65clEw2vN/kpUmkNiQQ8GgDYpmz2JR1KVq9O8r8GKgbAQIECBAgQIAAAQIZBWIvj3XLjkimXv/ljck0EkxOQMBjcn6lvnrL9Xp3lLqBVY4AAQIECBAgQIAAgY4IXPr61cl8b7nvUUvUJpUml0DAY3J+pb46y1AWc3eU+hFQOQIECBAgQIAAAQIEJiAQh7WkennEYS16eUwAdxyXCHiMA6uXksbeHZmXou0lGHUlQIAAAQIECBAgQIBAQqCvMqwlay+PRFZOT0Jg4Mc//vGIy5944onw5JNP1o7F8Ue2zgjs3LkzDDUs97pr167Q2CaduXvrXHdu355pstKBF70sF+VtXZvWZz3zrX3aeZZ1OzXHl9eDDz5YuyD+Hx/bwtYZAdadcU3l+vDDD4ftlfeug1se3ksPlqXsvz3z3Wth1t2zrr+Tzy/1Gp3dL5v1wlmV9WcTW+zl8ZXv3B1WHXNoImVnT9e/h8b31LK8jw7srwDXb/F1/bH6/fp09icvMJbtWMcnf8fsOTz25S8mEy88840h9PWNeF6SF+UwQfSuN6/fz2FxC10k1lPXfPXPdWM7TF2pynln1lPTro3PdX07TE2Jeueu9daN7dA7Ct2pKevuODfepfG5rm+HxrReT06gbNax60AMZGz86VMtYf7hOw+G33v7ipZpOn2y/rlubIdO37uT+RvS0kndgua97aYvZurdccQbzi5oDRWbAAECBAgQIECAAAECnRd48wufk7zJ3Q88lQyKJDORoKnAwOGHHz7qRH10p9n5URc4MCGBWbNmhcYhQ32VHhNTbb7xi59P1ueYN781zJ0/P5muKAk8891rKdbds66/0+OPP157Gf+Pmer/Z2qFKeEO66lp1EMPPTTMnj27dnPPeI2i4zue+Y4T127AukbR9R2fX7pHXjbrF594eFh32/Zw+5ZtYyLGYS2f++5D4UO/dNqYaTp9ov49NL6nluV9dGDevHmj7OofsmbnR13gwIQE4kMVAxz1WwyCTKX5lk9dk6l3x/HvfHeY1t9fX/RC73vmu9d8rLtnXX+nxg/JU/n/TH25yrjPempaNX44mzNnTu3mnvEaRcd3PPMdJ67dgHWNous7Pr90j7yM1peeuTrc/rFvt0QcmD5zSv8OrH8Pje+pZXkfHWjsYRBf1x+r32/ZQk62TWBKzRsmUW1WqaXnXhD6BgaanSrkMc9895qNdfesG+9U//9KYzs0pvV6cgKsJ+c30avr3WMeja8nmq/r0gL11nG//nX6ainGI1Bvy3o8cpNL22hd3w6Ty9nVjQJltR7oH/kld2O94+s7Kj1A7tyyPZy07Ihmp7t6rLEdunrzNt8sLd/mG8ou3wJbPnVtsoBlCnYkKysBAQIECBAgQIAAAQIEJiFw0tIjwrrKT6stDmtZf9OGVkmcm4CAgMcE0Mp6SRzOMjw4mKzeknMvTKaRgAABAgQIECBAgAABAgTiwpbTwiWvX52kuPneR8Mdm8ee6yOZgQSjBAQ8RpH07oH9GYIdZRvO0rutreYECBAgQIAAAQIECHRL4LSVi0Ls6dFqi7084o+tfQICHu2zLHxOhrMUvglVgAABAgQIECBAgACBHArEXh79lZ/U9smvbEwlcX4cAgIe48Aqc1LDWcrcuupGgAABAgQIECBAgMBUC1z02lXJItxiWEvSaDwJBDzGo1XitNvvuD1Zu6XnnF+q1VmSFZaAAAECBAgQIECAAAECbRLIMqxlqDKk5aqvmLy0TeRBwKNdkgXPZ/td6YDHsosuLXgtFZ8AAQIECBAgQIAAAQJTIxCHtVyaZfLSjY9OTQFLeFcBjxI26nirFOfu2D803PKy+SecWOndMb1lGicJECBAgAABAgQIECBAYGyB2MsjtcVeHlZrSSllOy/gkc2p1Kk2X7s+Wb8FJ6xNppGAAAECBAgQIECAAAECBMYWiL08Uqu1xKsNaxnbcDxnBDzGo1XCtFtuuDYM7xtM1mzp+Rcn00hAgAABAgQIECBAgAABAq0FLnl9evLSm+PkpVu2tc7I2aSAgEeSqNwJ9u/bl6xgdbLS6YazJKEkIECAAAECBAgQIECAQELgtJVHJnt5DA1XJi+9yeSlCcrkaQGPJFG5E2y54bpkBfsEO5JGEhAgQIAAAQIECBAgQCCLQH9lWEvWXh5Z8pNmbAEBj7FtSn9ma3U4S7qHx5JzLii9hQoSIECAAAECBAgQIECgWwKxl0dqi708DGtJKbU+L+DR2qfUZ4czDGdZcs55QQ+PUj8GKkeAAAECBAgQIECAQJcFYi+PTJOX3rSxyyUr1+0EPMrVnuOqzZZPp4ezHLHu1HHlKTEBAgQIECBAgAABAgQIpAUueV2WyUsfCXeavDSNOUYKAY8xYMp+uDqcZW96OMuCE08qO4X6ESBAgAABAgQIECBAoOsCp63KNnnper08Jtw2Ah4Tpiv2hdvuuC1ZgSVvPy9M6+9PppOAAAECBAgQIECAAAECBMYnUJ28NEMvj32DQ+PLWOqagIBHjaJ3dnbcfVfYfucdyQovv/DSZBoJCBAgQIAAAQIECBAgQGBiAjOmp79gjhOXGtYyMV8Bj4m5FfqqHZVgx/6h1lHC+cefEPpmzCh0PRWeAAECBAgQIECAAAECeRZYu/SI5OSlcbWWqwxrmVAzCnhMiK3YF23+1NXJCsw3d0fSSAICBAgQIECAAAECBAhMRiDrsJa9hrVMiFnAY0Jsxb1oa2VlluEMk5UuO++i4lZSyQkQIECAAAECBAgQIFAQgTh5aWqLQ1oMa0kpjT4v4DHapNRHhvfuTdYvTlZqOEuSSQICBAgQIECAAAECBAhMWiD28jhpyREt8xmMw1q+srFlGidHCwh4jDYp9ZGtn74+Wb9+c3ckjSQgQIAAAQIECBAgQIBAuwQufv2qZFZ797WehzGZQQ8mEPDooUaPw1mGMvXwOL+HVFSVAAECBAgQIECAAAECUytwumEtHWkAAY+OsOYz00zDWd52ruEs+Ww+pSJAgAABAgQIECBAoKQCcVjLWsNa2t66Ah5tJ81vhlv/Pj2c5YiTT81vBZSMAAECBAgQIECAAAECJRW4xLCWtresgEfbSfOZYXU4y570hKUL1q7LZwWUigABAgQIECBAgAABAiUWMKyl/Y0r4NF+01zmuO3225LlWlIZzjKtvz+ZTgICBAgQIECAAAECBAgQaK9A1mEtQ5UVW2zZBAQ8sjkVPtWOu25P1mHZhZcm00hAgAABAgQIECBAgAABAp0RuOR16dVarv3avZ25eQlzFfAoYaM2VikuRTs82HoJo3nHnxD6Z85svNRrAgQIECBAgAABAgQIEOiSwGkZVmv5wcZHwp1btnWpRMW+jYBHsdsvU+m33X5rMt2CE9Ym00hAgAABAgQIECBAgAABAp0TGOjPtlqLYS3Z2kDAI5tToVNlGc6y9LyLCl1HhSdAgAABAgQIECBAgEAZBC5+3cpkNa79R8NakkiVBAIeWZQKnCYuRWs4S4EbUNEJECBAgAABAgQIEOgpgVkzBpL1/cGGRw1rSSoJeGQgKnaS4T17khUwnCVJJAEBAgQIECBAgAABAgS6InDikgVhbeWn1TY4PBwMa2kldOCcHh5po0Kn2Pr3n0qWf8Hadck0EhAgQIAAAQIECBAgQIBA5wUG+vvCxVlWazGsJdkYAh5JouIm2HnPD8NQlh4eJ55U3EoqOQECBAgQIECAAAECBEomkG1YyyMlq3X7qyPg0X7T3OS4/c47kmVZ8rZzwrSB9BixZEYSECBAgAABAgQIECBAgEBbBLINa9kf7tpqedpW4AIerXQKfm7LDdcka9A/c1YyjQQECBAgQIAAAQIECBAg0D2BrMNaPvmVjd0rVAHvJOBRwEbLWuShZ9ITli5+27lZs5OOAAECBAgQIECAAAECBLokkGVYy/c3GNbSqjkEPFrpFPjc/RkmK1381nOCHh4FbmRFJ0CAAAECBAgQIECgtAKGtUy+aQU8Jm+Yyxweu/2WZLkGZhnOkkSSgAABAgQIECBAgAABAlMgEIe1rFu2KHnnT37l3mSaXk0g4FHSlt+RYcLSxW81nKWkza9aBAgQIECAAAECBAiUQODkFQuTtfjBRsNaxkIS8BhLpsDH7//Mp8Lw4GDLGsxbc3zo18OjpZGTBAgQIECAAAECBAgQmEqBk5cvDGuXLGhZhH1Dw1ZrGUNIwGMMmCIfHnrmmWTxF5x4UjKNBAQIECBAgAABAgQIECAwdQJxWEv8SW2GtTQXSss1v87RHAts/cwNydIJeCSJJCBAgAABAgQIECBAgMCUC5z3CyuSZTCspTmRgEdzl8Ie3XnP3SFLD4/5a9cVto4KToAAAQIECBAgQIAAgV4ROGP1kSGu2NJqM6yluY6AR3OXwh7dftftybIvfsvbQ9/AQDKdBAQIECBAgAABAgQIECAwtQJxSMv0DMNarv6q1VoaW0rAo1Gk4K+33HBtsgYDs2cn00hAgAABAgQIECBAgAABAvkQyDKs5fsbrNbS2FoCHo0iBX89tDs9Yenit55T8FoqPgECBAgQIECAAAECBHpHoDqsZXGWYS3bewclQ00FPDIgFSXJ/RkmK43DWfpn6eFRlDZVTgIECBAgQIAAAQIECFSHtQyk/3wfrCxRa3tWIC32bFp7ORfYdtstyRIazpIkkoAAAQIECBAgQIAAAQK5Ezg3w2ot13/9vtyVeyoLJOAxlfptvne2CUsNZ2kzu+wIECBAgAABAgQIECDQcYE4rCW1mcdjpJCAx0iPwr6Kw1mG9w22LP+8NceHfhOWtjRykgABAgQIECBAgAABAnkUiCu1nGgej3E1jYDHuLjym3jomd3Jwi04YW0yjQQECBAgQIAAAQIECBAgkE+B6ebxGFfDCHiMiyu/ie//7KeThZu/dl0yjQQECBAgQIAAAQIECBAgkE+Bc1+1Ilkw83g8SyTg8axFYfd2brg7DO7O0MNj7UmFraOCEyBAgAABAgQIECBAoNcFzOMxvidAwGN8XrlMvf3OO5LlisvR9g1MT6aTgAABAgQIECBAgAABAgTyKRCHtGSZx+OHW7fnswJdLpWAR5fBO3G7rZ++Npmt5WiTRBIQIECAAAECBAgQIEAg9wJZ5vG4bdOjua9HNwoo4NEN5Q7fY3BXejjLcZUeHjYCBAgQIECAAAECBAgQKLbAua9anqzA7ZsfS6bphQQCHgVv5SyTlS7+xbeFgdlzCl5TxSdAgAABAgQIECBAgACBM1YflUS49T4Bj4gk4JF8VPKdYGj3rmQBB+YIdiSRJCBAgAABAgQIECBAgEABBMzjkb2RBDyyW+Uy5c6N9yTLNXf1mmQaCQgQIECAAAECBAgQIECgGALrli1MFvTqr21Mpil7AgGPgrdwlhVaFpy4ruC1VHwCBAgQIECAAAECBAgQOCiwbkU64LHrmcGDyXv2t4BHgZt+54Z7wvC+fS1rMK/Su6NvuuVoWyI5SYAAAQIECBAgQIAAgQIJnLJ8UbK0lqY1h0fyIclzgu133Z4s3oITT0qmkYAAAQIECBAgQIAAAQIEiiMQ+rcrNwAAMrZJREFU5/E4YfGClgXeOzQcfnj/9pZpyn5SD48Ct/COu+5Iln6+gEfSSAICBAgQIECAAAECBAgUTeCi16xMFvnqr96bTFPmBAIeBW7dTPN3rDV/R4GbWNEJECBAgAABAgQIECDQVOCQ2empC3Y903oKhKYZl+iggEdBG9P8HQVtOMUmQIAAAQIECBAgQIBAGwRSQ1riLQxpaQO0LLovsMP8Hd1Hd0cCBAgQIECAAAECBAjkRCDTPB6DvT2Phx4eOXlYx1uM1OosMT+rs4xXVXoCBAgQIECAAAECBAgUR+DCDPN4XNPD83gIeBTnWR5R0vs/9/cjXjd7cdwvvq3ZYccIECBAgAABAgQIECBAoAQCh2aYx+PpHp7HQ8CjgA/5zo33hMGnd7Us+bzVa8LAnENapnGSAAECBAgQIECAAAECBIorcHxiadpYsziPR6/O5SHgUcBne8edtydLPf+Etck0EhAgQIAAAQIECBAgQIBAcQVmDPSFE45b0LICeyvzeOyr/PTiJuBRwFbPMn9H/4wZBayZIhMgQIAAAQIECBAgQIDAeAQufO3KZPIbvrkpmaaMCQQ8Ctiq93/uM8lSH/dm83ckkSQgQIAAAQIECBAgQIBAwQUyzeOxe1/Bazmx4gt4TMxtSq8afPrp5P0HDjF/RxJJAgIECBAgQIAAAQIECBRcIM7jkRrWEufwuLvy02ubgEfBWvxHWVZnefNbClYrxSVAgAABAgQIECBAgACBiQjEeTxmTG/9p32cxyP+9NrWWqXXNApQ3yy9O6YfcmgBaqKIBAgQIECAAAECBAgQINAOgbe/cnkym0/34DweAh7JxyJfCXZu3JAs0NxVa5JpJCBAgAABAgQIECBAgACBcghkmcfjqR6cx0PAo2DP9/a70kvSLjjxpILVSnEJECBAgAABAgQIECBAYKICWefxmGj+Rb1OwKNALfejyuosw3tbz6573NlvCX2WpC1QqyoqAQIECBAgQIAAAQIEJieQdR6PXpu4VMBjcs9VV68efPqp5P2mH2r+jiSSBAQIECBAgAABAgQIECiZwJrjFiRrdNumx5JpypRAwKNArbnz3izzd6wuUI0UlQABAgQIECBAgAABAgTaIXDy8oXJbG4X8EgaSTBFAtvvvCN55wUnrkumkYAAAQIECBAgQIAAAQIEyiWQJeCxd3CoXJVO1EYPjwRQXk4/XlmdZXjv3pbFmbtqtfk7Wgo5SYAAAQIECBAgQIAAgXIKzJjeH44/bn7Lyt19/46W58t2UsCjIC1qdZaCNJRiEiBAgAABAgQIECBAYIoEZlaCHq22PZUeHr00camAR6unIUfntt+VZTiL5Whz1GSKQoAAAQIECBAgQIAAga4KZJm4dO/gcFfLNJU3E/CYSv1x3HtHlvk71pq/YxykkhIgQIAAAQIECBAgQKBUAusyTFz69/+0uVR1blWZgSeeeGLE+aeeeirEn4Nb4/mDx/2evMAzzzwThodHRtf2798fmpkPZZi/46lKfiH+2MYl4JkfF9ekErOeFN+kLq7/f72/vz/09Yl3Twq0xcWsW+B08NTTTz8ddu/eXbtDs/fS2kk7bRXwzLeVs2VmrFvydOxkdK+39/9Lx6irzqwn57vsyBnJDJ7ctXfU35z176HxPbUsz/nA448/PgIkVuzJJ5+sHWs8XzthZ9ICMeARAxz1WzzWaP7M/VvrkzTdn37cklHXNU3o4CgBz/woko4dYN0x2mTG9f+vx8SN//ckM5AgswDrzFRtTRg/INd/WGt8L23rzWQ2QsAzP4Kjoy9Yd5R3zMx9fhmTpu0nWLeHdNnRc8Lmh3eNmVmcuLTxfbL+PTS+pzaeHzOznJ8YaOxhEF/XH6vfz3ldCle8Zn9wxGON5k/de0+6bgMDo65LXyRFFPDMd+85YN0968Y71f+/0tgOjWm9npwA68n5TfTq6F7/vlrfDhPN03XZBOqt437962w5SJVVoN6WdVa1yadrtK5vh8nnLod6Adb1GhPfnzHQuidvnLj0vp8+GZY955DaTRrfQ8vynLeWqFXfzlQKDO/bl7z97EoPDxsBAgQIECBAgAABAgQI9LbA0qOfDWSMJbFvaORIg7HSFf34wDHHHDOiDoccckiYM2dO7Vjj+doJO5MWmDt3bohj6eu32bNnh0bzRx56sD5J0/3lr/qF0Dc9PV6r6cU9ftAz370HgHX3rBvvNDg4WDsU/++ZN29e7bWd9gqwbq9n1twefvjhEc9143tp1nykG7+AZ378ZhO9gvVE5SZ3nc8vk/Mbz9Wsx6M1dtqXnTwjfOEHPxs7QeXMP939eHjNC1fV0tR/Nly0aNGov0lrCQu2M1DZRhQ5vq4/Vr8/IqEXkxZoNmngtGnTRvjHmzx+953Je82Y/WyQKplYghECnvkRHB19wbqjvC0zr/+/vLEdWl7o5LgFWI+brC0XRPf6LxHq26EtN5DJmAL11nG//vWYFzkxIYF6W9YTIpzQRY3W9e0woQxdNKYA6zFpxnXi1FVHJtPv2jM04v/rxvfQsjznhrQkH4WpTfD4vRvC0J69LQsxd9XqluedJECAAAECBAgQIECAAIHeEJg5vT8cf9z8lpW9+0c7Wp4vy0kBj5y35PY770iWcMEJa5NpJCBAgAABAgQIECBAgACB3hCIQY9W2559Q+GeHgh6CHi0egpycG54755kKfpnzkymkYAAAQIECBAgQIAAAQIEekNg9fNb9/CICjHoUfZNwKMELTx3pSEtJWhGVSBAgAABAgQIECBAgEBbBE5eviiZz2f+aXMyTdETCHjkvAV33rsxWcIFa09KppGAAAECBAgQIECAAAECBHpDYOaM1kNaosITu1rPFVkGKQGPnLfijrvSc3j0zTCkJefNqHgECBAgQIAAAQIECBDomsCaxKSlsSDm8Ohac7hRM4EDK7S0nsNj7spn105ulodjBAgQIECAAAECBAgQINBbAllWanmmByYu1cMjx899phVaTjScJcdNqGgECBAgQIAAAQIECBCYEoF1yxYm71v2iUsFPJKPwNQlsELL1Nm7MwECBAgQIECAAAECBIossC7LxKXfKvfEpQIeOX6CH78vPWGpIS05bkBFI0CAAAECBAgQIECAwBQJzMoycenT5Z64VMBjih6+LLfNMqRl/onrsmQlDQECBAgQIECAAAECBAj0kICJS0MQ8MjxAz+0Jz1haf9MK7TkuAkVjQABAgQIECBAgAABAlMiECcuXfP8+S3vXfaJSwU8Wjb/1J18/N70cJYFJiydugZyZwIECBAgQIAAAQIECORc4OTlvT1xqYBHTh/Q7XfdniyZ3h1JIgkIECBAgAABAgQIECDQswJZJi4tM46AR05bdzgxnCWnxVYsAgQIECBAgAABAgQIEMiJQJaJS+/50Y6clLb9xRDwaL9pW3LMskLL89705rbcSyYECBAgQIAAAQIECBAg0JsCt296tLQVF/DIadNmWaFlxuFzc1p6xSJAgAABAgQIECBAgACBqRZYnZi0NJZvz76hqS5mx+4v4NEx2sllnGWFlsndwdUECBAgQIAAAQIECBAgUGaBOKQltVKLIS1lfgJyWDcrtOSwURSJAAECBAgQIECAAAECBRRIzeMRl6bdtnt6AWuWLrIeHmmjrqewQkvXyd2QAAECBAgQIECAAAECpRRYlWFYy+D+aaWsu4BHDps1ywoth69YlcOSKxIBAgQIECBAgAABAgQI5Elg1vT+PBWnq2UR8Ogqd7abPX7fvcmEC9aelEwjAQECBAgQIECAAAECBAj0tsDq4+YnAbbvGkimKWICAY8ctlq2IS2zclhyRSJAgAABAgQIECBAgACBPAnMmpEOZvxMwCNPTVbusgw9s6dlBeeuXNnyvJMECBAgQIAAAQIECBAgQCAKZFmadmjYHB6eli4IPJFlOMsJhrN0oSncggABAgQIECBAgAABAoUXyLI0rVVaCt/MxajA8/vTkbX+WYazFKM1lZIAAQIECBAgQIAAAQJTL5Bamjau0lLGoIc5PKb+2RtRghl96SaxQssIMi8IECBAgAABAgQIECBAYJICZVyaNv3X9STRXN5+gf6ZM9ufqRwJECBAgAABAgQIECBAoJQCq56XXqmljBUX8MhZqy45ZHayRHNXrEqmkYAAAQIECBAgQIAAAQIECESBk5cvTEKUcWlaAY9ks3c3wcz+dJOYw6O7beJuBAgQIECAAAECBAgQKLLArJm9uTRt+q/rIrdqAcu+5JA5BSy1IhMgQIAAAQIECBAgQIBAXgV6dWlaAY+cPZEzE5OWzl2xMmclVhwCBAgQIECAAAECBAgQyLNAXKUlFfSwSkueW7BHymY4S480tGoSIECAAAECBAgQIECgjQKzK0GPVlsZl6bVw6NVi3f5XJYJSw9frodHl5vF7QgQIECAAAECBAgQINATAmVbmlbAI0ePbWo4SyzqwKxZOSqxohAgQIAAAQIECBAgQIBAEQR6cWlaAY8cPZmL56SXpM1RcRWFAAECBAgQIECAAAECBAoisK4Hl6YV8MjRw5mlh4chLTlqMEUhQIAAAQIECBAgQIBAQQRmZ1ia9pFd6eVrC1LdajEFPIrUWpWymrS0YA2muAQIECBAgAABAgQIEMiBwKrnz0uWYnB4WjJNkRIIeOSotRYfkh7SMnfFqhyVWFEIECBAgAABAgQIECBAoAgCs2eUq/dGFnMBjyxKXUozqz/dHHp4dKkx3IYAAQIECBAgQIAAAQIECi2Q/gu70NUrVuGXHDKnWAVWWgIECBAgQIAAAQIECBAojMDq581vWdZtu6e3PF+0kwIeOWqx1KSlc1eszFFpFYUAAQIECBAgQIAAAQIEiiQwe2Z/y+IO7jeHR0sgJzsnYDhL52zlTIAAAQIECBAgQIAAAQLlEtDDIyftmWXC0sOXr8hJaRWDAAECBAgQIECAAAECBMoosL1Ew1oEPHLyhM7qSzfFwKz0Ki45qY5iECBAgAABAgQIECBAgEDOBFYm5vCIxS3TsJb0X9k5a6CyFmfxHMGMsratehEgQIAAAQIECBAgQCAPArNntJ7DIw9lbGcZBDzaqTmJvFITlsasD19u0tJJELuUAAECBAgQIECAAAECPS2w6vmtV2mJONt2lScoIuBRoMfdpKUFaixFJUCAAAECBAgQIECAQM4EZs8cSJZocLg8K7UIeCSbuzsJskxaalna7rSFuxAgQIAAAQIECBAgQIBA8QUEPHLShrP6003Rb9LSnLSWYhAgQIAAAQIECBAgQKCcAvf+ZGdpKpb+K7s0Vc13RbL08Mh3DZSOAAECBAgQIECAAAECBPIssOp585LF271nMJmmKAkEPHLSUrP6Wk8Mc/jyFTkpqWIQIECAAAECBAgQIECAQBEFsszhUcR6jVVmAY+xZHJ2fGC2ZWtz1iSKQ4AAAQIECBAgQIAAgcIJpHp5bHzAkJbCNWqeC7x4TjqYcfgyPTzy3IbKRoAAAQIECBAgQIAAgSIIzEms1LLLkJYiNGNxyphlwlI9PIrTnkpKgAABAgQIECBAgAABAlMvYEjL1LdBOG7OrByUQhEIECBAgAABAgQIECBAgEAIZRnWIuCRg6c5NWFpLKIhLTloKEUgQIAAAQIECBAgQIBAwQVWHts7K7UIeBTkYe03aWlBWkoxCRAgQIAAAQIECBAgkF+BXlqpRcAjB8/h4kPSk5bOXb4yByVVBAIECBAgQIAAAQIECBAossDK580vcvHHVXYBj3FxdSZxlklL9fDojL1cCRAgQIAAAQIECBAg0EsCc2YNJKt7b0mWphXwSDa1BAQIECBAgAABAgQIECBAoHcEdj2zrxSVFfAoRTOqBAECBAgQIECAAAECBAgQaI/AfT/Z2Z6MpjgXAY8pboB4+9QcHocvX5GDUioCAQIECBAgQIAAAQIECBRdYOXz0qu07NozWPRqVssv4JGDZkwtSztghZYctJIiECBAgAABAgQIECBAoPgCc2am5/Aofi0P1EDAoywtqR4ECBAgQIAAAQIECBAgQIBATUDAo0ZhhwABAgQIECBAgAABAgQIlF9g1bGth7VYpaX8z4AaEiBAgAABAgQIECBAgACB0gmklqZ92hwepWtzFSJAgAABAgQIECBAgAABAgQqAmXo5WFIi0eZAAECBAgQIECAAAECBAj0kMCKxJCWSFGGlVoEPArwUB++dHkBSqmIBAgQIECAAAECBAgQIFAEgV5ZqUXAY4qfxuPmzE6WYGDOnGQaCQgQIECAAAECBAgQIECAAIFnBQQ8nrWYkr3Z/ZpgSuDdlAABAgQIECBAgAABAgRKLeCv7VI3r8oRIECAAAECBAgQIECAAIHeFBDw6M12V2sCBAgQIECAAAECBAgQIFBqAQGPUjevyhEgQIAAAQIECBAgQIAAgd4UEPDozXZXawIECBAgQIAAAQIECBAgUGoBAY9SN6/KESBAgAABAgQIECBAgACB3hQQ8Jjidj9uzqwpLoHbEyBAgAABAgQIECBAgACB8gkIeExxm87q60+W4LCly5NpJCBAgAABAgQIECBAgAABAlkEVjxvXjLZfQ/sTKbJewIBj7y3UKV8A3PmFKCUikiAAAECBAgQIECAAAECRRA4ZNb0ZDGffmZfMk3eEwh45L2FlI8AAQIECBAgQIAAAQIECBAYt4CAx7jJXECAAAECBAgQIECAAAECBAjkXUDAI+8tpHwECBAgQIAAAQIECBAgQIDAuAUEPMZN5gICBAgQIECAAAECBAgQIEAg7wICHnlvIeUjQIAAAQIECBAgQIAAAQIExi0wcM0114y4aNeuXSH+HNwWLlx4cNfvNgvcdtttYeWMgWSuX/jeD8LAXXcn00kwMQHP/MTcJnIV64moteeaxx57rJbRnMrKT/HH1hkB1p1xTeW6devWEH8ObocddtjBXb87LOCZ7zBwXfas6zC6uOvzS/ewWXfP+rZN8bPhsS1veNddPwzX7LytZZq8n5x2+umn768v5ODgYBgaGqodmjlzZm3fTnsFHn744fCe5x8dTjpiQcuMP/DQ9pbnnZycgGd+cn7juZr1eLTam3bPnj21DPv7+8PAQDrYWrvAzrgEWI+Lq22Jn3766RFf2CxatKhtecuotYBnvrVPO8+ybqdm9rx8fsluNdmUrCcrmP36fbOODvNOe1fLC/b++Fth3wPfapkm7ycHfvrTn44o4/DwcNi//9kYSPxgbOuMwFNPPVXJ+Ohk5o1tlLxAgnEJeObHxTWpxKwnxTepi+sD2dOmTQt9fUY0Tgq0xcWsW+B08NS+fftC/Dm47d279+Cu3x0W8Mx3GLgue9Z1GF3c9fmle9isu2c9+8hDwrzE7Z544omwvSFekLgkd6d94s1dkygQAQIECBAgQIAAAQIECBCYWoFZ8583tQVow90FPNqAKAsCBAgQIECAAAECBAgQIFAUgT07HkgWdd9Tz84Bl0yc0wQDJ5544oiixbGBsSvRwW327NkHd/1us8DNN98ctjzxZMs5PH60a3dobKM2F6Pns/PMd+8RYN0968Y77d69u3Yozs1kSEuNo+07rNtOminDn/3sZyOGtBx7bOuJ2DJlKlEmAc98Jqa2JGLdFsZxZ+Lzy7jJJnwB6wnTTejC1ODP41cvD9uGRsYLJnSjKbxo2t133/3shB2VgsRxOgfmljhQquc+97lTWLxy3/oTn/hE2PilL4R/v2rpmBVd8AuvCYeedfaY552YvIBnfvKGWXNgnVWq/ekefPDBWqZx9QorWNQ42r7Duu2kmTK84447woYNG2ppzzvvvNq+nc4KeOY761ufO+t6je7t+/zCunsC3b3T527dHb70vR+NedO/+Z2XhH27ir2AxsCaNWtGVHDnzp3h8ccfrx077rjjavt22ivwvOc9L3x+1zPhW49tDy9fOHqllmNe+/qw/MJLw6xFR7b3xnIbIeCZH8HR0ResO8rbMvP6ZWjnzp0b5s1LTVPVMjsnWwiwboHTwVNxKcP6zy+Nn286eOuez9oz371HgHX3rOvv5PNLvUZn91l31rcx9wVH7wqbfvp4uO+nOxtPhTe84Liw/LijKsfjT3E36xJOcdvtriwB/A8PPlIrRQx8HL50WXhuJdhx1AtfIthRk7FDgAABAgQIECBAgAABAu0SOGr+nPCHF58aPvWNzWHjxo1hxzMHwgNveNFx4Rdftbpdt5nSfAQ8ppT/wM237d1XC3rsOPqY8Bf//n1h9qKjwsAhh+SgdIpAgAABAgQIECBAgAABAmUUWPrcueGdZ60OV++4Newdmlat4tpjBkIMhpRhE/DISSvGoEfcHp7WHw5bPPacHjkprmIQIECAAAECBAgQIECAQAkEjlowJxwyfajyc6AyM/pHTPNZ6BpalrbQzafwBAgQIECAAAECBAgQIECAQDMBAY9mKo4RIECAAAECBAgQIECAAAEChRYQ8Ch08yk8AQIECBAgQIAAAQIECBAg0ExAwKOZimMECBAgQIAAAQIECBAgQIBAoQUEPArdfApPgAABAgQIECBAgAABAgQINBMQ8Gim4hgBAgQIECBAgAABAgQIECBQaAEBj0I3n8ITIECAAAECBAgQIECAAAECzQQEPJqpOEaAAAECBAgQIECAAAECBAgUWmCg0KVXeAIECBAgQIAAAQIECBAgQGBSAtOmTQtz5swJ8+bNCwsWLJhUXnm6WMAjT62hLAQIECBAgAABAgQIECBAoMsCp59+ejjmmGPCjBkzwuzZs7t8987dTsCjc7ZyJkCAAAECBAgQIECAAAECuRdYs2ZNmDVrVu7LOd4CmsNjvGLSEyBAgAABAgQIECBAgACBEgmUMdgRm0fAo0QPqaoQIECAAAECBAgQIECAAAECBwQMaak43H333eH+++8PP/nJT8IDDzwQnn766bBw4cKwaNGisHz58vCSl7wkzJw50zNDgAABAgQITELgpz/9abjnnntC/B3fbx977LEwd+7ccNRRR4Vjjz02vOxlL+v6RGm7du0KO3bsmEStDlx6+OGHh8MOO2zS+ciAAAECBAhMpUD82/gTn/hErQi/8zu/ExYvXlx7XbSdng54bNy4Mfzv//2/wze+8Y1qkCN+6Ik/g4OD1QBH7NZz6KGHVoMfF1xwQfilX/olgY+iPeHKS4AAAQJTLrBt27awfv36cN1114Unnngi7N69u/p+u2fPnjB9+vTqmOE4M3z8ouHVr351+I3f+I1w5JFHdqXcX/ziF8N/+S//ZdL3euMb3xg++MEPTjofGRAgQIAAgakSiO/L73//+8PXv/71WhHOOeccAY+aRoF2Pv7xj4e//du/DZs3b870zc7WrVvDP//zP4cPfehDYcmSJQWqqaISIECAAIGpE/jmN79Z/fAUe1LGnh2ttvhFRPz5l3/5l/Anf/In1R4frdK349w//dM/he9+97uTzir2CLURIECAAIEiC8TOADfddFP1S4mD9di7d+/B3UL+7skeHldffXX48z//8/DjH/84c6PFtJ/5zGeq3W+vuuqqaq+PzBdLSIAAAQIEelDg9ttvD7/5m78Z7rrrrsy1f/TRR6vfLP3sZz8Ll19+eTj11FMzXzuRhN///vcncplrCBAgQIBAqQTi37gf+chHRgQ7ylDBnpu09Gtf+1r44z/+46bBjlWrVoU4dOWyyy4Lp5122qj2jcNdYvee3//9368OexmVwAECBAgQIECgKvCjH/1ozGBHnK/j7LPPDu9+97vDK1/5yhCHs9RvQ0ND4c477wzvec97wkMPPVR/qq37setuvI+NAAECBAj0ssD1119f7VkZ59cq29ZTPTziB5s//MM/rA5jqW/I+EHrwx/+cHVy0vnz54f+/v6wc+fOED+s/dEf/VF1grWD6WOXnhtuuCG8/e1vD29605sOHvabAAECBAgQqBP4b//tv4XvfOc7dUcO7MYeHxdddFF1ctI4V9aTTz4ZHnnkkfA//sf/CJ/97GdHpI9DTf7n//yf1eGkI0606UV8n48TlddvK1asmNBQmle84hX12dgnQIAAAQK5F4h/H8epHv7qr/4qbNmyJfflnUgBeyrg8YUvfCHccsstI5zmzZsXPvrRj4a3vvWtIe7XbyeeeGI44ogjQpyZ9uabb66dih/O/uzP/iy89rWvNYlpTcUOAQIECBA4IBA/NMVJSmNPjfotToT2q7/6q+F5z3te/eGwf//+cMwxx1R7esRhpwe3eP3f/M3fVCcNX7p06cHDbft9xx13jMorfh74tV/7tVHHUwes0JIScp4AAQIE8iQQe1DG+bLi5N2pObbyVO7xlqVnAh5x5ZU4Jqnxw1fsLnvuuedWV2NpxIszx8claf/6r/+62vU2jis+uMUASJzE9DWvec3BQ34TIECAAAECFYEYpIhLztZvb3jDG8Jv/dZvVZegrT8e96dNmxbisNL/8B/+Q3UIS/3s8A8//HCIQZAPfOADjZdN+nWzgEdcGrfIy+9NGkUGBAgQIFBqgThi4fOf/3z42Mc+Fr73ve9Ve1qWucI9M4fHrbfeGuJP/fac5zwn/Mqv/ErTYMfBdHF4yxlnnFEdZ3zwWPx9cGhL/TH7BAgQIECg1wXifFf/5//8n1EMv/u7v9s02FGfcNmyZeG9731v/aHq/pVXXjnqC4tRiSZwoLHXZ8xi3bp1E8jJJQQIECBAIN8CsTdlXJns0ksvrU7b8I1vfKP0wY7YIj0T8IjjiBuX1InfNj33uc9NPpl9fX3hne9856h0n/70p0s3i+2oSjpAgAABAgTGIRCXlY29Muq32Hsj9pjMsr3qVa+q9vaoTxuHyMQVX9q5DQ8Ph29/+9sjsoxfhGT5XDDiIi8IECBAgEABBLZu3VqdTPwf/uEfwr333jvqi4S4aEecsqFsW08FPBob78wzz6x2o2083ux1HDscP7DVb3GIy3333Vd/yD4BAgQIEOhpgWbLvMYPUI0rsYyFdMghh4QY9Kjf4nDUOIFpO7c4djlOUF6/xSVwBwZ6ZrRvfdXtEyBAgEDJBeIk3XFlsjhRaeMW59eKk5euWbOm8VThX/dEwCN232n8Fie23Etf+tLMDRg/ADWbgf2ee+7JnIeEBAgQIECg7ALNVmZp9v7ZyuHlL3/5qNPN5tsYlWgcB+6+++5RqeMQVhsBAgQIEOgVgdj78oorrqiuZBp7eMyYMaN0Ve+JrzEefPDBEH/qt7giy9FHH11/KLnfLOLV7ANTMiMJCBAgQIBASQX+5V/+ZVTNVq9ePepYqwONPSpj2vitVDu3ZgGU+GEvbvHLjM2bN1eXp49L1+7bty/Enp5xjpElS5ZUJzWdPXt2O4sjLwIECBAg0DWB+MVCXCL+xS9+cYjLsWfthdm1ArbxRj0R8HjkkUdGjVGKH1jihKTj2Z7//OePSr5hw4ZRxxwgQIAAAQK9KnD//fePqnrjMrSjEjQcOPbYYxuOhNAsQDEq0TgONE5kHi+NPULjUvQxaBOXoH/qqadC7AIc5/uIy84eeuih1d9x2E1M92/+zb/JPDR2HEWTlAABAgQItF0gfuF/9tlnV9+7XvSiF1UD+L2wpHpPBDwef/zxUQ9M/JZmvNsxxxwz6pIYTLERIECAAAECoTouuHGC8PgBa+7cuePiOeKII0alj8GHmHe7utvGpfgatw9+8IPVXh2Nc3vEdI3H4hwgcbb7973vfcnVZxrv4zUBAgQIEOi2wFFHHRU+8pGPhPilQgzg98rWEwGP+C1N47Zo0aLGQ8nX8+fPH5WmWd6jEjlAgAABAgR6QCAGJRq3BQsWhLja2Xi26dOnhxgoaQwy7N69uy0Bjx07dlQDG41lGs9KMLGHZ/zS41//9V/DJz7xiVJO9Nbo4zUBAgQIFFcgfmEw3iGmxa3tsyUf3yeQZ68r1F6zHh6xO+p4t2ZjmwQ8xqsoPQECBAiUVaDZe+JEu8s26xUSAx7t2OJyfI09URrzXbduXYirub3yla+sfhvWeD6+3r59e/jWt74VPvCBDzSd9b7ZNY4RIECAAAEC3RPo2R4ezYIXKfaZM2eOStLs26xRiRwgQIAAAQI9INAs4DGR99tI1WxS0F27drVFsdUEqOeff354y1veEpYvX14tQ1wSN9YrLkV/5ZVXhs985jOjynDjjTeG9evXh3e/+92jzjlAgAABAgQITJ1ATwQ8YtfYxm0i3xLFpWkbt3Z9+GrM12sCBAgQIFA0gWaTgU/0fXLWrFmjqr9nz55RxyZyoNmEpTGf3/7t3w6/8Ru/EeIk5Y1fcgwODlaHrcQl7eNcH/WfI2IdP/zhD4dXvepV1UDJRMrkGgIECBAgQKD9Aj0xpCUuJ9e4NX6QaTzf7HX8lqdxa/YNVGMarwkQIECAQC8IxKBA4zaR99uYR7O8mn2B0Xi/LK/jcJVzzz03xOBFDG7E9/L3v//91QlI4/J8zcocv/SIy+W+613vCu9973tH3Wbr1q3h+uuvH3XcAQIECBAgQGDqBEZ3WZi6snTszs0+IMUl5sa7NRvv22wi0/HmKz0BAgQIECiDQLMVVOJSrxPZnnnmmVGXTXQ+kMaM4pCV2Bsj9syIy87Ge51wwgnh6KOPbkw66nV83//1X//18MUvfjHccsstI87H+TxsBAgQIECAQH4EeiLg0WzZnWYfpFLN0qwrbZxF3kaAAAECBAiE0GxC8PqhH+MxioGIxq1dAY8jjzwyxJ+Jbs95znPCv/t3/y78yq/8yogsvvvd74YY4Jk2bdqI414QIECAAAECUyPQE0Namk2Y1rjUXRb+J554YlQyAY9RJA4QIECAQI8KtOv9NgYNtm3bNkqx2bweoxJ16cArXvGKUXeKny1+9rOfjTruAAECBAgQIDA1Aj0R8Gg27OSBBx4Yt/jDDz886hoBj1EkDhAgQIBAjwo061H5yCOPJJeAbeSKXzA0DiON77d9ffn52BLn/mi2bdmypdlhxwgQIECAAIEpEMjPJ4cOVn7x4sWjcr/vvvtGHUsd+MlPfjIqyVFHHTXqmAMECBAgQKAXBeIcHkuWLBlR9Ri4iEu6jmd78MEHRyV/7nOfO+rYVB6IvU2aTVzebLLVqSynexMgQIAAgV4W6ImAR5yErLEnRvwwNd5xxZs2bRr1rKxdu3bUMQcIECBAgEAvCsS5K+IKKI1bXMFkPFuzXhKnnnpqyyxiACL26Dz40zLxz0/G1dcef/zx8OSTT2ZJPiJNnAus2Spwxx577Ih0XhAgQIAAAQJTJ9ATk5bGVVrWrFkTvvOd79Sk4zdOP/zhD8Ppp59eO5baaTb7+niuT+XvPAECBAgQKLrAiSeeGD772c+OqMYPfvCD8LKXvWzEsVYvvve97406/aIXvWjUsfoDsTfnokWL6g813Y8rq3ziE5+o9jqJq7TEoEUM0nz0ox9tmn6sgz/+8Y9HLZ0be3wcc8wxY13iOAECBAgQINBlgZ7o4RFNX/jCF46i/ed//udRx8Y6ECdPu/3220ecjh9sVqxYMeKYFwQIECBAoJcFTjvttFHV/9rXvjbqWKsDX/3qV0edTn3BEFeIObj6SqsVWOKcIldffXX4/Oc/H7785S+Hf/zHfwxXXHFFdXnaUTdtceDWW28ddTZ+Jpg5c+ao4w4QIECAAAECUyPQMwGPN73pTaOEr7rqqlGToo1K9PMDn/vc50Z9GIrfNjUbvztWHo4TIECAAIGyC7z0pS8d9d4Yv2BoNkylmcWdd97Z9AuG448/vlnycR+L+Tz11FMjemds3749NOtVMlbmccncZj1CUkGZsfJznAABAgQIEOiMQM8EPGIPj8ZupvFDVWO322bM8YPQf/2v/3XUqXe+852jjjlAgAABAgR6WWDhwoXhrLPOGkEQl2v967/+6xCXm221xQk/4/ttDCjUb+eff35otgJMfZqs+3Hy05NOOmlU8g9/+MOj7jsq0c8PXHnllaFZDw+fC8YSc5wAAQIECEyNQM8EPA477LBwzjnnjFCO83j8yZ/8SbjxxhtHHK9/EWeWf8973hPuvvvu+sNh5cqVoVmvkRGJvCBAgAABAj0mECcufcc73jGq1rFX5V/+5V+GOFFosy2+J//5n/950y8ifvM3fzPEfMfa7r333up18UuMgz/f/OY3myYfGBgIZ5555qhzsRdK7LUxPDw86tzBAzFgE4fC/Of//J9H9BCJ52NQ5owzzjiY1G8CBAgQIEAgBwI9MWnpQedf+7VfC9ddd114+OGHDx4KGzZsCL/3e79XnaH97LPPDnGW97jFDzWbN28Of/RHfxS+8IUvjPpg86u/+qvhiCOOqOVjhwABAgQIEDgg8Au/8Avhta99baifiyPOnREDCnF1k1//9V8fsXpanCcrnvvbv/3bEHtV1m9vfetbQ2pFtBiEiNfWb7FX5ytf+cr6Q7X9X/qlX6p+HogTjx7cYrk+9rGPhViW3/7t3x61vO6OHTvCf//v/z1cf/31oXHVmTi89fd///drnyEO5uk3AQIECBAgMLUCPRXwiJOJxeDGe9/73hHqd911V/jgBz9Y/bB08sknVz+E3XHHHSF+ELr55purH87qL3j1q18dLr744vpD9gkQIECAAIGfC8ydOzd84AMfCN/+9rdHLAH/05/+NPzVX/1VdaLQ+J68bNmyEHtnxC8Y4vvuY489NsLw+c9/fvjDP/zDMGPGjBHHG1889NBD4Z577hlxuNVSs7GX5l/8xV+Eiy66aMQ1MZ/LL7+8+t4fh73E8sUvQDZu3FidgyQOhY2Bm8btfe97XzIo03iN1wQIECBAgEDnBXoq4NHX11ftZhuXo/27v/u7Ebrxw0z8iUvnxQ9W8Rue2L22cTvllFPCRz7ykXDUUUc1nvKaAAECBAgQ+LlAnNj7Qx/6UIjBgPotBhXiz7/+67+GGBiJ83s0ztkR08+bN686BCZ+EdHurb+/P7z5zW+u9uKMc3fUb48//niIw1viymyHH3549dRYZYwnf/d3fzfEHqTTp0+vz8Y+AQIECBAgkAOBngp4RO84mdr73//+alDj4x//+KgmiIGOsbY4Nvc//af/FGLQw0aAAAECBAiMLRCXZ42TeMaJSGNvihg0qN/iSinxp9kWh6P86Z/+aXjjG9/YsUBCXMY2zg0SPxf8r//1v6pDXOvLEnuItOolEq/7rd/6rfCud70rPOc5z6m/1D4BAgQIECCQE4GeC3hE96VLl4Y/+IM/CKeddlqIM61/61vfatkcsetrHO/7mte8phrsiD1FbAQIECBAgEBrgTjX1S//8i+H1atXh/Xr14cvfvGLI4a4NF4de3XEIEmcUyt+yXBwXq3GdI2vm6WbM2dOY7JRr2OgIr6/x3vFyU7jPCCNgZnGi44++ujq/CQXXHBBeMELXhAWLVrUmMRrAgQIECBQSIFm76fNjhWpcj0Z8IgNtHjx4nDhhReGU089dcS43PhBJzZqnIAsLl0XP9isWrUqHH/88SYpLdKTrawECBAgkAuBBQsWVFc1i++lsTdEnAfjJz/5SYiTgMYVU+Lwkvh+G4MPS5Ysqc6FEXt4tFqVpbFicVWYF7/4xSMOx9XZsmwxyPLSl760eu+4nG6coyNObh7nG4n7sRxxqOv8+fOrnx3i54Fjjz22+uVJLLuNAAECBAiURaDZ++kJJ5xQ6Or1bMAjtlrszhoDHnFispe//OXVb53ivB3xA0z8EBa/HTr4M54PXoV+IhSeAAECBAi0WSC+p8ZeHjHoEef2iENZ9uzZE2KPyfj+Gt+P4/tt/D2RXpSxJ2b8megWyxCDLPEnfg7YtWtXtYy7d++uli+WKQ7RiXN6ZA2kTLQsriNAgAABAlMlMNn306kqd6v79nTA4yBM/CBmEtKDGn4TIECAAIHOCMTAQuzxEX/yusXeHPEn9vywESBAgAABAsUWMBlFsdtP6QkQIECAAAECBAgQIECAAIEmAgIeTVAcIkCAAAECBAgQIECAAAECBIotYEhLsdtP6QkQIECAAIGKQJwINU40enB74QtfeHDXbwIECBAgQCAh8PWvf706X1WczzJOzh3ntSrDJuBRhlZUBwIECBAg0OMC27ZtCxs2bKgpCHjUKOwQIECAAIGkwJYtW6qLd8T5tuKqpQIeSTIJCBAgQIAAAQLdERgcHKyu/NKdu7kLAQIECBAol8DQ0FCIP3GL76ll2czhUZaWVA8CBAgQIECAAAECBAgQIECgJiDgUaOwQ4AAAQIECBAgQIAAAQIECJRFQMCjLC2pHgQIECBAgAABAgQIECBAgEBNQMCjRmGHAAECBAgQIECAAAECBAgQKIuAgEdZWlI9CBAgQIAAAQIECBAgQIAAgZqAgEeNwg4BAgQIECBAgAABAgQIECBQFgEBj7K0pHoQIECAAAECBAgQIECAAAECNQEBjxqFHQIECBAgQIAAAQIECBAgQKAsAgIeZWlJ9SBAgAABAgQIECBAgAABAgRqAgIeNQo7BAgQIECAAAECBAgQIECAQFkEBDzK0pLqQYAAAQIECBAgQIAAAQIECNQEBDxqFHYIECBAgAABAgQIECBAgACBsggIeJSlJdWDAAECBAgQIECAAAECBAgQqAkIeNQo7BAgQIAAAQIECBAgQIAAAQJlERDwKEtLqgcBAgQIECBAgAABAgQIECBQExDwqFHYIUCAAAECBAgQIECAAAECBMoiIOBRlpZUDwIECBAgQIAAAQIECBAgQKAmIOBRo7BDgAABAgQIECBAgAABAgQIlEVAwKMsLakeBAgQIECAAAECBAgQIECAQE1AwKNGYYcAAQIECBAgQIAAAQIECBAoi4CAR1laUj0IECBAgAABAgQIECBAgACBmoCAR43CDgECBAgQIECAAAECBAgQIFAWAQGPsrSkehAgQIAAAQIECBAgQIAAAQI1AQGPGoUdAgQIECBAgAABAgQIECBAoCwCAh5laUn1IECAAAECBAgQIECAAAECBGoCAh41CjsECBAgQIAAAQIECBAgQIBAWQQEPMrSkupBgAABAgQIECBAgAABAgQI1AQGHn300dqLuPPEE09Ufw4enDNnzsFdv9ss8NRTT4Xh4eERue7Zsyc0tsmIBF60XcAz33bSMTNkPSZNx09s3769do/BwcGwb9++2ms77RVg3V7PrLnt2LEjPPnkk7Xk3ktrFB3f8cx3nLh2A9Y1iq7u+PzSPW7W3bNuvFP9e2h8Ty3L++jArl27RtQ1vt69e3ftWOP52gk7kxaIf3Ds379/RD5DQ0OB+QiSjr/wzHecuHYD1jWKru/U/78+MDAQ4o+tMwKsO+OayvWZZ54Je/furSXzXlqj6PiOZ77jxLUbsK5RdHXH55fucbPunnXjnerfQ+N7alneR/8fZKfhLv7xfRQAAAAASUVORK5CYII=;fontColor=#c74440;" parent="1" vertex="1">
          <mxGeometry x="190" y="100" width="1084" height="1084" as="geometry" />
        </mxCell>
        <mxCell id="ELQDbCGjd16Vh4-IR_vf-2" value="$$\sqrt{1-\alpha}$$" style="text;html=1;align=center;verticalAlign=middle;whiteSpace=wrap;rounded=0;fontSize=70;fontColor=#c74440;" parent="1" vertex="1">
          <mxGeometry x="290" y="977" width="312" height="105" as="geometry" />
        </mxCell>
        <mxCell id="ELQDbCGjd16Vh4-IR_vf-3" value="$$\sqrt{\alpha}$$" style="text;html=1;align=center;verticalAlign=middle;whiteSpace=wrap;rounded=0;fontSize=70;fontColor=#2c70b3;" parent="1" vertex="1">
          <mxGeometry x="979" y="977" width="262" height="105" as="geometry" />
        </mxCell>
      </root>
    </mxGraphModel>
  </diagram>
</mxfile>
